<?xml version="1.0" encoding="UTF-8" standalone="no"?>
<!DOCTYPE svg  PUBLIC '-//W3C//DTD SVG 1.1//EN'  'http://www.w3.org/Graphics/SVG/1.1/DTD/svg11.dtd'>
<svg xmlns="http://www.w3.org/2000/svg">
<defs>
<font id="PermianSansTypeface-Italic" horiz-adv-x="479">
<font-face slope="-10" underline-position="-50" font-weight="400" descent="-200" panose-1="2 0 0 0 0 0 0 0 0 0" units-per-em="1000" unicode-range="U+0020-25CA" bbox="-125 -259.014 1301 984" x-height="500" underline-thickness="50" font-family="PermianSansTypeface" ascent="800" font-style="italic" cap-height="700"/>
<missing-glyph horiz-adv-x="1000"/>
<glyph glyph-name=".notdef" horiz-adv-x="1000"/>
<glyph glyph-name=".null" horiz-adv-x="0"/>
<glyph glyph-name="nonmarkingreturn" horiz-adv-x="1000"/>
<glyph glyph-name="space" horiz-adv-x="235" unicode=" "/>
<glyph glyph-name="exclam" horiz-adv-x="283" unicode="!" d="M88 -15q-26 0 -40 15t-14 39q0 32 21 53t52 21q25 0 39 -15t15 -39q0 -32 -21 -53t-52 -21zM85 220l79 481l105 5l-101 -486h-83z"/>
<glyph glyph-name="quotedbl" horiz-adv-x="388" unicode='&quot;' d="M266 463l26 238l105 5l-58 -243h-73zM106 463l26 238l105 5l-58 -243h-73z"/>
<glyph glyph-name="numbersign" horiz-adv-x="759" unicode="#" d="M347 383l-92 -166h158l93 166h-159zM120 383v74h186l76 135h82l-76 -135h159l76 135h82l-76 -135h92v-74h-133l-92 -166h143v-74h-185l-80 -143h-83l81 143h-159l-80 -143h-83l81 143h-93v74h134l93 166h-145z"/>
<glyph glyph-name="dollar" horiz-adv-x="482" unicode="$" d="M193 62q58 0 94 26t36 78q0 40 -25 68t-61 46t-72 40q-36 20 -61 56t-25 88q-1 87 59 142t145 55l18 144q20 7 40 7q17 0 38 -7l-33 -142q30 -2 60 -12t46 -19l16 -8l-41 -68q-57 30 -124 30q-61 0 -95 -30t-34 -84q0 -32 25 -58t61 -44q36 -20 72 -42t60 -60 q25 -37 25 -87q0 -86 -53 -136t-149 -54l-16 -144q-20 -7 -40 -7q-21 0 -38 7l32 142q-37 2 -73 11t-55 18l-18 8l40 70q79 -34 146 -34z"/>
<glyph glyph-name="percent" horiz-adv-x="939" unicode="%" d="M665 -10q-72 0 -118 38t-46 112q1 90 59 156t161 67q79 -1 121 -43t42 -107q0 -97 -61 -160t-158 -63zM674 53q52 -1 82 45t31 105q0 43 -19 70t-59 27q-53 0 -83 -47t-30 -108q0 -92 78 -92zM274 0h-98l502 700h97zM239 341q-72 1 -118 39t-46 111q1 91 59 157t161 66 q79 0 121 -42t42 -108q0 -97 -61 -160t-158 -63zM248 404q52 0 82 46t31 104q0 43 -19 70t-59 27q-53 0 -83 -47t-30 -108q0 -92 78 -92z"/>
<glyph glyph-name="ampersand" horiz-adv-x="710" unicode="&amp;" d="M239 542q0 -71 51 -148q133 95 133 178q0 38 -20 58t-57 19q-51 1 -79 -29t-28 -78zM233 59q69 0 144 52q-15 21 -33 45t-39 56t-32 47l-43 62q-99 -69 -99 -157q0 -105 102 -105zM618 57h20v-57h-49q-93 0 -163 62q-100 -72 -216 -72q-78 0 -126 42t-48 111 q0 132 165 220q-56 82 -56 157q1 82 59 138t148 56q82 0 122 -36t41 -95q1 -63 -47 -117t-148 -116l36 -52q48 -71 91 -125q86 91 122 200h78q-55 -150 -153 -252q64 -64 124 -64z"/>
<glyph glyph-name="quotesingle" horiz-adv-x="228" unicode="&apos;" d="M106 463l26 238l105 5l-58 -243h-73z"/>
<glyph glyph-name="parenleft" horiz-adv-x="336" unicode="(" d="M284 -162l-38 -48q-210 129 -210 406q0 120 40 234t132 214q91 102 221 158l24 -48q-113 -66 -188 -158t-106 -188t-31 -200q0 -234 156 -370z"/>
<glyph glyph-name="parenright" horiz-adv-x="338" unicode=")" d="M55 754l38 48q210 -129 210 -406q-1 -120 -41 -234t-131 -214q-91 -102 -221 -158l-24 48q113 66 188 158t106 188t31 200q0 234 -156 370z"/>
<glyph glyph-name="asterisk" horiz-adv-x="537" unicode="*" d="M110 707q9 23 30 29q5 1 11 1q17 0 37 -12l110 -55l8 5l9 136q0 25 15 43t41 18t34 -19q3 -8 3 -17q0 -12 -6 -25l-47 -137l7 -6l127 58q21 11 37 11q6 1 12 -1q20 -6 25 -29q2 -6 2 -11q-1 -16 -13 -28q-16 -16 -47 -19l-134 -26l-6 -11l62 -95q16 -20 16 -38 q-1 -3 -1 -6q-4 -20 -24 -32q-12 -6 -23 -6q-10 1 -18 5q-19 10 -26 40l-33 97h-19l-82 -111q-17 -26 -41 -32q-7 -2 -13 -2q-14 0 -22 9q-14 8 -14 29q0 28 29 49l112 90l-2 15l-114 26q-26 4 -38 20q-7 9 -7 21q0 7 3 16z"/>
<glyph glyph-name="plus" horiz-adv-x="519" unicode="+" d="M52 248v74h172l32 169h80l-32 -169h159v-74h-174l-32 -168h-80l32 168h-157z"/>
<glyph glyph-name="comma" horiz-adv-x="263" unicode="," d="M17 -197l-38 42q73 56 101 140q-26 -1 -42 13t-16 42t20 50t50 23q66 0 66 -76q0 -52 -40 -121t-101 -113z"/>
<glyph glyph-name="hyphen" horiz-adv-x="458" unicode="-" d="M84 262v74h291v-74h-291z"/>
<glyph glyph-name="period" horiz-adv-x="253" unicode="." d="M76 -15q-26 0 -40 15t-14 39q0 32 21 53t52 21q25 0 39 -15t15 -39q0 -32 -21 -53t-52 -21z"/>
<glyph glyph-name="slash" horiz-adv-x="410" unicode="/" d="M14 -171h-83l431 871h82z"/>
<glyph glyph-name="zero" horiz-adv-x="622" unicode="0" d="M68 219q0 65 10 130t32 131q24 66 59 117q35 50 91 82t124 32q94 1 142 -59t48 -170q0 -65 -10 -130q-10 -66 -32 -132q-24 -66 -59 -116t-91 -82t-124 -32q-94 0 -142 59t-48 170zM467 469q0 167 -103 167q-47 0 -85 -40t-60 -100q-21 -62 -33 -130t-12 -131 q0 -170 104 -170q47 -1 85 39t60 102t33 130t11 133z"/>
<glyph glyph-name="one" horiz-adv-x="373" unicode="1" d="M84 599v53l233 54h26l-125 -706h-98l109 613z"/>
<glyph glyph-name="two" horiz-adv-x="495" unicode="2" d="M-4 50q187 174 267 282t80 194q0 102 -110 102q-31 0 -65 -9t-54 -17l-20 -9l15 82q54 35 147 35q86 0 136 -44t51 -122q-1 -100 -73 -204t-250 -267l291 8l-5 -81h-410v50z"/>
<glyph glyph-name="three" horiz-adv-x="522" unicode="3" d="M160 339l16 68h31q65 1 117 39t52 98q0 42 -25 64t-73 22q-38 0 -76 -9t-56 -17l-19 -9l14 80q64 35 160 35q83 0 129 -38t46 -104q0 -68 -44 -119t-132 -70q68 -11 106 -53t37 -103q0 -97 -79 -165t-206 -68q-42 0 -82 9t-58 17l-18 9l31 74q56 -27 140 -27q75 0 123 40 t48 106q0 121 -162 121h-20z"/>
<glyph glyph-name="four" horiz-adv-x="572" unicode="4" d="M332 479l-224 -253l217 3l42 239l20 83h-3q-27 -44 -52 -72zM381 -10h-98l29 169h-290l-16 50l444 506l54 -6l-81 -477l94 1l-6 -74h-102l-16 -76z"/>
<glyph glyph-name="five" horiz-adv-x="512" unicode="5" d="M498 700l-8 -82l-258 9l-39 -181q244 -29 244 -210q0 -100 -73 -172t-201 -73q-43 1 -81 7t-54 12l-16 6l19 83q54 -26 143 -26q83 1 122 39t39 106q0 72 -55 110t-177 43l69 329h326z"/>
<glyph glyph-name="six" horiz-adv-x="557" unicode="6" d="M268 350q-67 0 -106 -39q-4 -33 -4 -76q0 -75 26 -123t81 -48t87 44t32 117q0 125 -116 125zM534 636q-291 -17 -357 -251q50 44 124 44q79 0 131 -51t52 -142q0 -102 -62 -174t-173 -72q-89 0 -140 67t-51 172q0 99 29 183t86 148q57 66 149 104t212 44v-72z"/>
<glyph glyph-name="seven" horiz-adv-x="464" unicode="7" d="M91 611l5 89h409v-27q-175 -299 -336 -683l-101 37q138 290 328 597z"/>
<glyph glyph-name="eight" horiz-adv-x="558" unicode="8" d="M222 540q0 -39 23 -67t68 -61q55 33 81 66t26 76q0 42 -24 64t-64 22q-54 0 -82 -28t-28 -72zM377 186q-1 24 -9 44t-28 40t-34 32t-44 32q-122 -65 -122 -169q0 -44 27 -74t80 -30q58 0 94 32t36 93zM46 159q0 128 171 208q-45 33 -69 71t-24 89q0 83 60 133t152 50 q84 0 130 -38t47 -105q1 -59 -45 -107t-110 -79q56 -39 86 -82t30 -107q0 -85 -66 -144t-167 -59q-91 0 -143 45t-52 125z"/>
<glyph glyph-name="nine" horiz-adv-x="567" unicode="9" d="M312 348q54 0 106 27q5 42 5 81q0 180 -116 180q-52 0 -84 -45t-32 -111q0 -60 31 -96t90 -36zM47 62q132 0 227 58t130 183q-52 -34 -128 -34q-81 1 -133 53t-52 143q0 97 59 171t162 74q102 0 156 -62t55 -174q-1 -234 -123 -358t-353 -125v71z"/>
<glyph glyph-name="colon" horiz-adv-x="291" unicode=":" d="M157 374q-25 0 -39 15t-15 39q0 32 21 53t52 21q26 0 40 -15t14 -39q0 -32 -21 -53t-52 -21zM98 -15q-26 0 -40 15t-14 39q0 32 21 53t52 21q25 0 39 -15t15 -39q0 -32 -21 -53t-52 -21z"/>
<glyph glyph-name="semicolon" horiz-adv-x="299" unicode=";" d="M39 -197l-38 42q73 56 101 140q-26 -1 -42 13t-16 42t20 50t50 23q66 0 66 -76q0 -52 -40 -121t-101 -113zM158 374q-26 0 -40 15t-14 39q0 32 21 53t52 21q25 0 39 -15t15 -39q0 -32 -21 -53t-52 -21z"/>
<glyph glyph-name="less" horiz-adv-x="426" unicode="&lt;" d="M41 310l346 190l-22 -107l-204 -107l153 -136l-22 -99l-251 230v29z"/>
<glyph glyph-name="equal" horiz-adv-x="627" unicode="=" d="M105 152v74h411v-74h-411zM105 342v74h411v-74h-411z"/>
<glyph glyph-name="greater" horiz-adv-x="426" unicode="&gt;" d="M378 240l-346 -190l22 107l203 107l-152 136l22 99l251 -230v-29z"/>
<glyph glyph-name="question" horiz-adv-x="445" unicode="?" d="M155 -15q-25 0 -39 15t-15 39q0 32 21 53t52 21q26 0 40 -15t14 -39q0 -32 -21 -53t-52 -21zM251 635q-35 0 -75 -12t-60 -24l-22 -12l14 79q7 5 21 13q15 7 61 21t96 14q79 0 120 -38t41 -99q0 -41 -17 -77q-16 -36 -42 -58q-26 -23 -56 -44t-56 -36t-42 -32 q-17 -17 -17 -33q0 -22 18 -22q12 0 28 12l33 -53q-42 -38 -96 -38q-34 0 -57 22t-23 52q0 42 23 74t56 54t67 44t56 54q23 32 23 75q0 29 -25 47t-69 17z"/>
<glyph glyph-name="at" horiz-adv-x="891" unicode="@" d="M489 100l41 237q-14 22 -68 22q-44 0 -76 -32t-45 -74t-13 -87q0 -103 77 -103q27 -1 48 9t29 19zM587 -10q-75 0 -95 63q-6 -7 -14 -17t-38 -28t-65 -18q-69 0 -107 45t-38 118q0 65 24 127t74 106q52 44 121 44q30 0 55 -9t36 -19l10 -9l79 42h11l-58 -328 q-4 -15 2 -29t24 -14q34 0 62 46t42 104t14 104q0 108 -62 171t-173 63q-84 0 -154 -38t-114 -100t-68 -138q-24 -75 -24 -153q1 -107 53 -169t164 -63q29 0 56 4l-4 -66q-43 -7 -87 -7q-139 0 -212 74t-73 204q0 140 60 258t175 190q116 72 268 73q127 1 212 -73t85 -208 q0 -78 -32 -158t-88 -136q-57 -56 -121 -56z"/>
<glyph glyph-name="A" horiz-adv-x="566" unicode="A" d="M281 494l-120 -264h209l-35 263l-11 102h-4q-18 -54 -39 -101zM402 -4l-22 163h-252l-3 -8q-41 -98 -54 -151h-86q17 72 67 177l251 520l94 6l83 -583l22 -118z"/>
<glyph glyph-name="B" horiz-adv-x="597" unicode="B" d="M339 629h-78l-40 -226h155q3 2 8 5q5 2 18 14t23 26t18 36q8 23 8 48q0 97 -112 97zM304 331h-96l-46 -259h95q69 0 117 41t49 110q0 108 -119 108zM52 0l105 598l12 102h180q101 0 150 -44t49 -114q0 -56 -38 -105t-93 -68v-2q51 -15 79 -49t28 -83q0 -107 -77 -171 t-194 -64h-201z"/>
<glyph glyph-name="C" horiz-adv-x="566" unicode="C" d="M409 635q-65 1 -121 -51t-87 -130t-31 -157q0 -227 171 -227q34 0 67 5t48 9l16 5l5 -70q-49 -29 -153 -29q-124 0 -192 75t-68 210q0 109 50 211t133 164q84 62 179 63q31 0 59 -7q28 -6 57 -18t45 -16l-28 -77q-17 4 -62 22t-88 18z"/>
<glyph glyph-name="D" horiz-adv-x="684" unicode="D" d="M303 628h-42l-99 -556h66q142 0 226 92t84 240q0 224 -235 224zM52 0l105 598l12 102h167q152 0 232 -76t79 -201q0 -113 -52 -209q-53 -96 -153 -155t-230 -59h-160z"/>
<glyph glyph-name="E" horiz-adv-x="560" unicode="E" d="M52 0l105 598l12 102h403l-19 -79q-35 5 -91 6l-201 3l-42 -240l249 5l-20 -86l-242 8l-44 -246l215 4l86 5l-19 -80h-392z"/>
<glyph glyph-name="F" horiz-adv-x="533" unicode="F" d="M52 0l105 598l12 102h393l-19 -80q-44 5 -105 6l-177 3l-46 -259l240 5l-20 -86l-233 8l-36 -204l-11 -93h-103z"/>
<glyph glyph-name="G" horiz-adv-x="641" unicode="G" d="M445 635q-117 0 -197 -98t-80 -252q0 -100 44 -159t139 -59q21 0 39 2t26 4l8 2l30 134l16 103l99 5l-64 -302q-69 -25 -152 -25q-141 0 -217 74t-76 204q0 114 48 214t143 166t216 65q41 0 69 -7t56 -18t46 -16l-28 -77q-12 3 -62 21t-103 19z"/>
<glyph glyph-name="H" horiz-adv-x="717" unicode="H" d="M463 0l58 325h-314l-41 -232l-12 -93h-103l106 598l12 103l105 5l-54 -307h314l35 199l12 103l105 5l-108 -613l-12 -93h-103z"/>
<glyph glyph-name="I" horiz-adv-x="305" unicode="I" d="M51 0l106 598l12 103l105 5l-108 -613l-12 -93h-103z"/>
<glyph glyph-name="J" horiz-adv-x="304" unicode="J" d="M68 90l89 508l12 103l105 5l-108 -615q-11 -61 -38 -114q-18 -33 -44 -63t-66 -70q-42 -40 -54 -53l-52 49q12 14 46 47t52 56t30 50q17 38 28 97z"/>
<glyph glyph-name="K" horiz-adv-x="599" unicode="K" d="M52 0l105 598l12 103l105 5l-54 -305h48q82 89 133 149t68 82t49 68h101q-92 -122 -291 -329l168 -290q10 -20 24 -40t22 -31l7 -10l-115 -5l-184 334h-43l-41 -236l-11 -93h-103z"/>
<glyph glyph-name="L" horiz-adv-x="526" unicode="L" d="M472 80l-19 -80h-402l106 598l12 102l105 5l-112 -634l214 3q27 0 51 2t35 2z"/>
<glyph glyph-name="M" horiz-adv-x="842" unicode="M" d="M394 170h-13l-127 292q-8 18 -15 38t-10 30l-3 11h-5q-5 -50 -9 -75l-67 -383l-10 -83h-83l104 587l14 114l81 3l139 -328l26 -75h6q19 39 46 75l246 325l96 3l-107 -611l-12 -93h-100l85 483l17 78h-5q-23 -38 -52 -76z"/>
<glyph glyph-name="N" horiz-adv-x="700" unicode="N" d="M463 -10l-203 475l-35 101h-3q-2 -61 -10 -106l-64 -367l-12 -93h-85l106 598l12 103l87 5l201 -472q11 -26 20 -52t13 -40l4 -14l4 1v10q0 47 8 94l65 365l12 103l87 5l-125 -706z"/>
<glyph glyph-name="O" horiz-adv-x="713" unicode="O" d="M292 -10q-88 0 -144 50t-74 128q-9 40 -10 85q0 41 8 84q30 171 126 272t244 101q66 0 116 -32t73 -80q24 -50 34 -112q4 -27 4 -54q0 -35 -7 -69q-30 -171 -126 -272t-244 -101zM315 60q89 0 154 79t86 199q9 40 9 81q0 14 -1 27q-4 54 -18 97t-47 70t-81 27 q-89 0 -153 -79t-85 -199q-9 -42 -9 -84v-24q4 -54 17 -97t47 -70t81 -27z"/>
<glyph glyph-name="P" horiz-adv-x="582" unicode="P" d="M261 628l-53 -298h80q86 0 134 44t49 127q0 61 -39 94t-113 33h-58zM286 257h-91l-29 -164l-11 -93h-103l105 598l12 102h176q110 0 169 -51t59 -136q0 -113 -82 -185t-205 -71z"/>
<glyph glyph-name="Q" horiz-adv-x="713" unicode="Q" d="M324 60q86 0 148 78t83 200q10 43 10 86q0 11 -1 22q-2 54 -16 97t-50 70t-88 27q-86 0 -148 -78t-83 -200q-10 -43 -10 -86q0 -11 1 -22q2 -54 16 -97t50 -70t88 -27zM292 -10q-88 0 -144 50t-74 128q-9 40 -10 85q0 41 8 84q30 171 126 272t244 101q88 0 144 -50 t74 -128q9 -40 10 -85q0 -41 -8 -84q-20 -120 -76 -208t-140 -130l57 -132l38 -76l-111 -5l-74 184q-30 -6 -64 -6z"/>
<glyph glyph-name="R" horiz-adv-x="605" unicode="R" d="M308 628h-48l-51 -290h72q81 0 131 47t50 121q0 122 -154 122zM51 0l106 598l12 102h166q112 0 169 -52t57 -142q1 -78 -45 -132t-126 -81l94 -217l38 -76l-108 -5l-109 272h-109l-30 -174l-12 -93h-103z"/>
<glyph glyph-name="S" horiz-adv-x="505" unicode="S" d="M319 713q37 0 66 -7q29 -6 56 -18t43 -16l-28 -77q-17 3 -64 21t-89 19q-51 0 -81 -28t-30 -71q0 -32 18 -60t44 -48t58 -44q32 -25 58 -49q26 -23 44 -61t18 -82q0 -92 -64 -147t-174 -55q-54 0 -96 6t-57 12l-15 7l14 77q49 -23 155 -23q64 0 105 28t41 81q0 38 -25 70 q-24 32 -60 58t-71 54t-60 68q-25 42 -25 94q0 79 58 135t161 56z"/>
<glyph glyph-name="T" horiz-adv-x="551" unicode="T" d="M172 0l115 629l-102 -2l-104 -5l18 78h501l-18 -78q-37 4 -88 5l-109 2l-99 -536l-11 -93h-103z"/>
<glyph glyph-name="U" horiz-adv-x="697" unicode="U" d="M674 706l-80 -455q-21 -123 -94 -194t-202 -71q-126 0 -178 71q-37 50 -37 126q0 32 6 69l61 346l12 103l105 5l-80 -455q-6 -34 -6 -61q0 -129 134 -129q156 0 191 190l61 347l12 103z"/>
<glyph glyph-name="V" horiz-adv-x="567" unicode="V" d="M308 205l153 342q39 95 54 153h86q-18 -76 -67 -179l-251 -520l-94 -6l-83 583q-4 32 -10 62t-10 43l-3 13l101 6l70 -496l11 -102h4q18 54 39 101z"/>
<glyph glyph-name="W" horiz-adv-x="875" unicode="W" d="M459 700l95 5l26 -481l4 -99h4q15 49 37 100l120 279q40 94 70 196h95q-31 -100 -90 -226l-220 -472l-97 -6l-25 455v116h-4q-13 -57 -35 -113l-175 -452l-104 -6l-48 583q-2 33 -6 63t-6 42l-3 13l99 6l37 -477l6 -102h4q12 48 32 99z"/>
<glyph glyph-name="X" horiz-adv-x="602" unicode="X" d="M416 -5l-121 289l-129 -163l-93 -126l-102 10q55 79 132 168l161 187l-97 234l-49 106l108 5l113 -274l103 133q24 32 45 66t31 52l9 18l102 1q-33 -72 -113 -169l-146 -177l107 -259l44 -96z"/>
<glyph glyph-name="Y" horiz-adv-x="542" unicode="Y" d="M170 0l49 278l-109 330l-36 92l104 5l116 -352l144 224q21 33 38 64t24 45l6 14h97q-33 -63 -100 -158l-185 -263l-33 -186l-12 -93h-103z"/>
<glyph glyph-name="Z" horiz-adv-x="521" unicode="Z" d="M126 620l8 80h408v-10l-418 -618l212 3l95 6l-9 -81h-437v10l416 618l-165 -2z"/>
<glyph glyph-name="bracketleft" horiz-adv-x="295" unicode="[" d="M1 -199l173 984h178l-9 -51h-100l-155 -882h100l-9 -51h-178z"/>
<glyph glyph-name="backslash" horiz-adv-x="481" unicode="\" d="M452 -171h-83l-283 871h82z"/>
<glyph glyph-name="bracketright" horiz-adv-x="296" unicode="]" d="M294 785l-173 -984h-177l9 51h99l155 882h-100l9 51h178z"/>
<glyph glyph-name="asciicircum" horiz-adv-x="467" unicode="^" d="M278 667l-120 -134h-103l219 227h29l189 -227h-104z"/>
<glyph glyph-name="underscore" horiz-adv-x="515" unicode="_" d="M-49 -173v74h461v-74h-461z"/>
<glyph glyph-name="grave" horiz-adv-x="550" unicode="`" d="M244 635l-47 -34l-138 136l72 61z"/>
<glyph glyph-name="a" horiz-adv-x="538" unicode="a" d="M182 67q18 1 48 19t101 74l52 245q-22 43 -72 43q-73 0 -127 -107q-47 -94 -46 -189q2 -83 44 -85zM498 500l-88 -412l-15 -88h-88l8 84q-65 -58 -102 -76t-71 -18q-77 0 -99 89q-8 31 -8 66q0 69 31 149q50 131 143 186q50 30 105 30q66 0 114 -39l49 35z"/>
<glyph glyph-name="b" horiz-adv-x="539" unicode="b" d="M342 429q-20 0 -51 -18t-100 -73l-51 -241q22 -45 73 -45q74 0 126 108q46 93 45 187q-2 81 -42 82zM46 -10h-23l144 680l13 77l99 3l-71 -336q65 60 103 78t76 18q72 0 93 -87q7 -31 7 -65q0 -68 -29 -150q-49 -132 -142 -188q-50 -30 -106 -30q-71 0 -121 44z"/>
<glyph glyph-name="c" horiz-adv-x="456" unicode="c" d="M297 441q-65 1 -109 -79t-44 -181q0 -61 24 -87t59 -27q58 0 147 65v-62q-103 -80 -174 -80q-76 0 -116 52t-40 143q0 135 79 230t177 95q24 0 46 -5t47 -15t36 -12l-31 -81q-19 6 -50 25t-51 19z"/>
<glyph glyph-name="d" horiz-adv-x="539" unicode="d" d="M182 67q20 1 50 19t99 74l52 244q-22 44 -72 44q-73 0 -127 -107q-47 -94 -46 -189q2 -83 44 -85zM551 750l-141 -662l-15 -88h-88l8 85q-65 -59 -102 -77t-71 -18q-77 0 -99 89q-8 31 -8 66q0 69 31 149q50 131 143 186q50 30 105 30q48 0 87 -21l38 181l13 77z"/>
<glyph glyph-name="e" d="M286 444q-47 0 -81 -47t-51 -121l67 25q71 27 93 47q23 20 22 51q0 18 -13 31q-14 14 -37 14zM380 70q-104 -80 -186 -80q-74 0 -114 53q-38 49 -38 130v12q6 137 84 231t185 94q63 0 97 -30q32 -28 31 -75v-6q-2 -48 -39 -80t-130 -64l-126 -43q-2 -22 -2 -31v-9 q0 -54 24 -78q26 -26 64 -27q57 0 150 65v-62z" unicode="e"/>
<glyph glyph-name="f" horiz-adv-x="391" unicode="f" d="M346 694q-59 0 -79 -88l-23 -106h150v-68l-163 2l-74 -341l-14 -93h-98l93 436l-67 1v63h81l16 72q19 88 66 138t122 50q26 0 47 -5t45 -14t38 -13l-31 -81q-19 5 -51 26t-58 21z"/>
<glyph glyph-name="g" horiz-adv-x="539" unicode="g" d="M182 67q18 1 48 19t100 74l53 245q-22 43 -72 43q-73 0 -127 -107q-47 -94 -46 -189q2 -83 44 -85zM498 500l-107 -505q-25 -115 -79 -185t-144 -69q-40 1 -70 7t-70 22t-60 21l33 82q35 -11 88 -41t86 -30q42 0 68 34t41 107l30 140q-64 -57 -101 -75t-71 -18 q-77 0 -99 89q-8 31 -8 66q0 69 31 149q50 131 143 186q50 30 105 30q66 0 114 -39l49 35z"/>
<glyph glyph-name="h" horiz-adv-x="530" unicode="h" d="M393 0h-98l77 364q3 16 3 28q0 24 -13 32q-6 3 -14 3q-19 0 -49 -20l-108 -70l-72 -337h-94l142 670l13 77l99 3l-72 -337l105 71q37 26 72 26q54 0 74 -41q12 -25 12 -58q0 -22 -5 -47l-58 -276z"/>
<glyph glyph-name="i" horiz-adv-x="266" unicode="i" d="M198 601q-24 0 -40 16t-15 42q1 25 17 45t47 20q23 0 39 -16t16 -42t-16 -46t-48 -19zM128 500l99 3l-108 -503h-94l90 423z"/>
<glyph glyph-name="j" horiz-adv-x="265" unicode="j" d="M196 601q-24 0 -40 16t-15 42q1 25 17 45t47 20q23 0 39 -16t16 -42t-16 -46t-48 -19zM225 505l-101 -479q-10 -51 -34 -94q-24 -44 -45 -66t-61 -61t-62 -62l-47 49q18 22 50 56q31 34 47 52t34 52t25 74l78 371l16 103z"/>
<glyph glyph-name="k" horiz-adv-x="490" unicode="k" d="M407 0l-103 -5l-134 246l-32 -153l-15 -88h-98l142 670l13 77l99 3l-104 -487q163 165 217 237h108q-79 -93 -235 -245l85 -159z"/>
<glyph glyph-name="l" horiz-adv-x="275" unicode="l" d="M283 750l-141 -662l-15 -88h-98l142 670l13 77z"/>
<glyph glyph-name="m" horiz-adv-x="777" unicode="m" d="M640 0h-97l77 364q3 16 3 28q1 24 -13 32q-6 3 -14 3q-19 0 -50 -20l-93 -60l-54 -259l-14 -88h-98l76 364q3 16 3 28q0 24 -14 32q-6 3 -13 3q-19 0 -50 -20l-97 -63l-74 -344h-93l90 423l13 77l98 3l-18 -83l94 64q37 26 72 26q43 0 65 -24t23 -68l97 66q37 26 72 26 q54 0 74 -41q12 -25 12 -58q0 -22 -5 -47l-58 -276z"/>
<glyph glyph-name="n" horiz-adv-x="530" unicode="n" d="M393 0h-98l77 364q3 16 3 28q0 24 -13 32q-6 3 -14 3q-19 0 -49 -20l-108 -70l-72 -337h-94l90 423l13 77l99 3l-19 -90l104 71q37 26 72 26q54 0 74 -41q12 -25 12 -58q0 -22 -5 -47l-58 -276z"/>
<glyph glyph-name="o" horiz-adv-x="527" unicode="o" d="M469 336q0 -58 -17 -117q-16 -59 -48 -111t-86 -85t-118 -33q-74 0 -116 46t-42 131q0 79 28 155t92 132t149 56q74 0 116 -46t42 -128zM295 448q-42 0 -73 -30t-47 -76q-15 -46 -23 -91t-8 -88q0 -61 17 -86t57 -25q36 0 64 24t44 56q16 34 25 76q10 42 13 74t3 59 q-1 55 -17 81t-55 26z"/>
<glyph glyph-name="p" horiz-adv-x="541" unicode="p" d="M343 429q-20 0 -51 -18t-100 -73l2 13l-54 -251q22 -48 74 -48q74 0 126 108q46 93 45 187q-2 81 -42 82zM121 12l-38 -174l-15 -88h-98l145 670l13 77l99 3l-19 -86q66 60 104 78t76 18q72 0 93 -87q7 -31 7 -65q0 -68 -29 -150q-49 -132 -142 -188q-50 -30 -106 -30 q-48 0 -90 22z"/>
<glyph glyph-name="q" horiz-adv-x="538" unicode="q" d="M182 67q18 1 48 19t101 74l52 245q-22 43 -72 43q-73 0 -127 -107q-47 -94 -46 -189q2 -83 44 -85zM498 500l-141 -662l-15 -88h-98l71 334q-65 -58 -102 -76t-71 -18q-77 0 -99 89q-8 31 -8 66q0 69 31 149q50 131 143 186q50 30 105 30q66 0 114 -39l49 35z"/>
<glyph glyph-name="r" horiz-adv-x="417" unicode="r" d="M128 500l99 3l-24 -113q45 68 73 94t55 26q17 0 31 -6t33 -18t33 -17l-45 -88q-17 6 -41 21t-35 15q-25 -1 -53 -31t-74 -99l-61 -287h-94l90 423z"/>
<glyph glyph-name="s" horiz-adv-x="420" unicode="s" d="M164 -8q-32 0 -59 3t-58 9t-48 7l25 82q20 -1 64 -15t80 -14t56 18t20 48q0 24 -16 46t-40 39t-48 36t-40 49t-16 67q0 63 40 103t113 40q23 0 45 -4t32 -6t38 -11t37 -12l-31 -81q-23 6 -60 23t-66 17q-27 0 -43 -16t-16 -43q1 -25 17 -46t40 -39t47 -36q25 -20 41 -51 t16 -70q0 -71 -47 -107t-123 -36z"/>
<glyph glyph-name="t" horiz-adv-x="405" unicode="t" d="M241 500h149v-68l-163 2l-63 -299q-4 -17 -4 -29q0 -32 27 -32q28 0 50 10t92 56v-62q-66 -50 -104 -68t-73 -18q-87 0 -87 91q0 27 8 62l60 291l-66 1v63h79l19 90l76 42h28z"/>
<glyph glyph-name="u" horiz-adv-x="530" unicode="u" d="M122 500h98l-77 -364q-3 -16 -3 -28q0 -24 13 -32q6 -3 14 -3q19 0 49 20l107 69l73 338h94l-90 -423l-13 -77l-89 -1l8 87l-103 -70q-37 -26 -72 -26q-54 0 -74 41q-12 25 -12 58q0 22 5 47l58 276z"/>
<glyph glyph-name="v" horiz-adv-x="467" unicode="v" d="M77 500l97 5l19 -428q138 162 162 423h91q-12 -142 -80 -270t-171 -230h-91l-18 414z"/>
<glyph glyph-name="w" horiz-adv-x="708" unicode="w" d="M341 500h81l16 -427q134 159 161 427h88q-23 -271 -248 -500h-79l-10 200l2 89h-5q-5 -49 -21 -86q-47 -112 -138 -203h-82l-22 403l-8 97l94 5l20 -426q64 77 104 191t47 230z"/>
<glyph glyph-name="x" horiz-adv-x="485" unicode="x" d="M180 505l78 -195l60 81q22 31 40 59t24 38l6 12h106q-37 -66 -124 -158l-87 -92l70 -174l36 -76l-101 -5l-80 197l-44 -61q-28 -39 -49 -73t-28 -48l-7 -14l-105 6q39 69 127 161l83 86l-68 168q-7 21 -17 41l-16 32l-5 10z"/>
<glyph glyph-name="y" d="M244 -3q-12 -13 -44 -51t-46 -56q-14 -16 -40 -46t-51 -54q-24 -24 -50 -49l-63 69q34 30 108 88t105 89l-90 428l-20 85l97 5l85 -432q106 158 106 405v22h93v-21q0 -257 -190 -482z" unicode="y"/>
<glyph glyph-name="z" horiz-adv-x="439" unicode="z" d="M87 417l5 83h330v-20l-301 -410l142 5l80 7l-5 -82h-344v20l301 411l-132 -6z"/>
<glyph glyph-name="braceleft" horiz-adv-x="335" unicode="{" d="M233 450q-15 -93 -68 -138q28 -26 28 -73q0 -15 -3 -33l-45 -257q-3 -19 -3 -35q0 -22 6 -37q12 -25 57 -25h23l-9 -51h-54q-65 0 -88 37q-15 24 -15 62q0 22 5 49l43 247q5 24 5 41q-1 6 -1 12q-2 21 -21 31q-14 -2 -29 -2q-18 0 -38 3v61h4q60 0 88 28t41 102l29 165 q13 74 49 111t101 37h54l-9 -51h-23q-46 0 -66 -25t-28 -72z"/>
<glyph glyph-name="bar" horiz-adv-x="254" unicode="|" d="M-10 -259l181 1024h78l-181 -1024h-78z"/>
<glyph glyph-name="braceright" horiz-adv-x="336" unicode="}" d="M102 136q15 95 67 137q-27 26 -27 73q0 16 3 34l45 257q3 19 3 35q-1 22 -7 37q-12 25 -56 25h-23l9 51h54q65 0 88 -37q15 -24 15 -62q0 -22 -5 -49l-43 -247q-5 -24 -5 -42v-12q2 -21 21 -31q15 3 32 3t36 -3v-61h-4q-59 0 -87 -28t-42 -102l-29 -165q-13 -74 -49 -111 t-101 -37h-54l9 51h23q45 0 65 25t29 72z"/>
<glyph glyph-name="asciitilde" horiz-adv-x="588" unicode="~" d="M393 307q23 0 45 12t31 24l9 12l54 -40q-2 -4 -6 -10t-16 -21t-28 -27q-16 -11 -40 -21q-26 -10 -54 -10q-48 0 -102 32t-91 33q-23 0 -45 -12t-31 -24l-9 -12l-54 40q2 4 6 10t16 21t28 27q16 11 40 21q26 10 54 10q48 0 104 -32t89 -33z"/>
<glyph glyph-name="uni00A0" horiz-adv-x="235" unicode=" "/>
<glyph glyph-name="exclamdown" horiz-adv-x="274" unicode="¡" d="M175 513q25 0 39 -15t15 -39q0 -32 -21 -53t-52 -21q-26 0 -40 15t-14 39q0 32 21 53t52 21zM178 278l-79 -481l-105 -5l101 486h83z"/>
<glyph glyph-name="cent" horiz-adv-x="456" unicode="¢" d="M289 441q-65 1 -109 -79t-44 -181q0 -61 24 -87t59 -27q58 0 147 65v-62q-78 -61 -135 -75l-14 -109h-78l29 106q-64 8 -98 59t-34 134q0 119 63 209t149 110l14 106h78l-27 -101q25 -3 63 -16t45 -15l-31 -81q-19 6 -50 25t-51 19z"/>
<glyph glyph-name="sterling" horiz-adv-x="563" unicode="£" d="M264 483l-4 -127h218v-74h-220q-4 -49 -20 -88t-33 -61t-39 -37t-34 -20t-19 -6l352 12l-11 -82h-441v64q5 0 15 4t35 18t45 34t36 56q16 37 17 82v24h-90v74h92l2 100q5 118 67 188t176 71q30 0 73 -9t65 -11l-19 -82q-26 3 -70 13t-67 10q-60 0 -92 -32t-34 -121z"/>
<glyph glyph-name="yen" horiz-adv-x="608" unicode="¥" d="M83 260v74h149l-90 274l-36 92l104 5l116 -353l144 225q21 33 38 64t24 45l6 14h97q-33 -63 -100 -158l-147 -208h106v-74h-148l-17 -97h165v-74h-178l-11 -89h-103l15 89h-134v74h147l18 97h-165z"/>
<glyph glyph-name="brokenbar" horiz-adv-x="260" unicode="¦" d="M61 143h78l-78 -402h-77zM184 373h-78l76 392h78z"/>
<glyph glyph-name="section" horiz-adv-x="523" unicode="§" d="M381 337q0 32 -26 52t-74 40t-70 36q-48 -36 -48 -95q0 -32 26 -52q25 -20 73 -40t70 -36q49 36 49 95zM470 353q0 -41 -30 -79t-76 -62q22 -32 22 -72q0 -62 -52 -105t-152 -43q-39 0 -87 10t-69 10l12 77q29 -2 74 -12t76 -10q56 0 83 19t27 47q0 25 -23 43t-56 31 t-66 29t-56 46t-23 72t30 80t76 61q-22 28 -22 72q0 62 52 105t152 43q39 1 87 -9t69 -11l-12 -77q-29 2 -74 12t-76 10q-56 0 -83 -19t-27 -47q0 -25 23 -43t56 -31t66 -29t56 -46t23 -72z"/>
<glyph glyph-name="dieresis" horiz-adv-x="502" unicode="¨" d="M342 621q-24 0 -40 16t-15 42q1 25 17 45t47 20q27 0 41 -16t14 -40q0 -28 -18 -48t-46 -19zM149 621q-23 0 -39 16t-16 42q0 25 16 45t48 20q26 0 40 -16t15 -40q0 -28 -17 -48t-47 -19z"/>
<glyph glyph-name="copyright" horiz-adv-x="824" unicode="©" d="M352 -8q-132 0 -214 81t-81 208q0 182 125 309t311 127q131 0 213 -81t82 -208q0 -182 -125 -309t-311 -127zM367 63q142 1 237 105t95 245q-1 105 -61 169t-160 64q-142 0 -237 -104t-95 -246q0 -104 60 -168t161 -65zM456 494q-60 0 -96 -43t-37 -113q1 -52 27 -81 t72 -29q24 0 50 5t38 10l14 5l-13 -64q-47 -25 -122 -25q-63 0 -107 42t-45 112q-1 110 71 179t166 69q24 1 58 -7t51 -9l-25 -69q-16 2 -50 10t-52 8z"/>
<glyph glyph-name="guillemotleft" horiz-adv-x="563" unicode="«" d="M393 288l-53 -41l30 -34q26 -30 53 -83t39 -98l-77 -23q-40 111 -106 188l-42 49v21l64 49q118 89 175 166l64 -43q-50 -77 -147 -151zM178 288l-53 -41l30 -34q26 -30 53 -83t39 -98l-77 -23q-40 111 -106 188l-42 49v21l64 49q118 89 175 166l64 -43q-50 -77 -147 -151 z"/>
<glyph glyph-name="logicalnot" horiz-adv-x="610" unicode="¬" d="M89 248v74h412v-185h-67v111h-345z"/>
<glyph glyph-name="registered" horiz-adv-x="499" unicode="®" d="M297 593h-18l-11 -57h20q18 0 30 8t12 26q0 23 -33 23zM201 438l31 157l4 33h78q68 0 68 -54q0 -42 -46 -60l16 -52l8 -24l-51 -2l-17 66h-30l-7 -34l-4 -30h-50zM262 387q68 1 114 50t46 117q0 52 -28 82t-77 29q-69 0 -115 -48t-47 -118q0 -53 29 -83t78 -29zM252 338 q-70 0 -114 43t-44 109q0 97 63 161t168 64q70 0 114 -43t44 -109q0 -97 -63 -161t-168 -64z"/>
<glyph glyph-name="macron" horiz-adv-x="364" unicode="¯" d="M45 539v74h274v-74h-274z"/>
<glyph glyph-name="degree" horiz-adv-x="417" unicode="°" d="M229 452q-61 0 -94 34t-33 90q0 84 53 134t139 50q61 0 94 -34t33 -90q0 -84 -53 -134t-139 -50zM246 517q44 1 70 31t26 73q0 35 -17 55t-48 20q-45 0 -71 -32t-25 -73q0 -74 65 -74z"/>
<glyph glyph-name="plusminus" horiz-adv-x="572" unicode="±" d="M42 60v74h411v-74h-411zM96 308v74h172l27 139h80l-27 -139h159v-74h-174l-27 -138h-80l27 138h-157z"/>
<glyph glyph-name="acute" horiz-adv-x="294" unicode="´" d="M71 590l-32 48l188 151l55 -79z"/>
<glyph glyph-name="mu" horiz-adv-x="536" unicode="µ" d="M392 0l-99 -3l19 89l-104 -70q-37 -26 -72 -26q-22 0 -40 8v-26q0 -82 -11 -135l-8 -39h-94l71 336l6 28l53 250l14 88h98l-77 -364q-3 -16 -3 -28q0 -24 13 -32q6 -3 14 -3q19 0 49 20l107 69l73 338h94l-90 -423z"/>
<glyph glyph-name="paragraph" horiz-adv-x="699" unicode="¶" d="M376 433q-101 0 -165 -62t-64 -164q0 -133 158 -133h26l69 359h-24zM424 -250l133 684h-78l-133 -684h-78l48 250h-36q-114 0 -173 50t-59 140q0 142 98 226t270 84h231l-145 -750h-78z"/>
<glyph glyph-name="periodcentered" horiz-adv-x="263" unicode="·" d="M127 218q-23 0 -41 17t-18 42q0 23 18 41t43 18q24 0 41 -17t17 -42q0 -23 -18 -41t-42 -18z"/>
<glyph glyph-name="cedilla" horiz-adv-x="240" unicode="¸" d="M124 -220q-28 0 -54 6t-38 10l-12 6l21 41q27 -15 64 -15q27 0 40 10t13 25q0 27 -37 27q-9 0 -19 -2t-16 -4l-5 -3l-23 22l73 81h58l-47 -49h4q32 1 56 -15q26 -16 26 -52q0 -44 -32 -66t-72 -22z"/>
<glyph glyph-name="guillemotright" horiz-adv-x="564" unicode="»" d="M153 202l53 41l-30 34q-26 30 -53 83t-39 98l77 23q40 -111 106 -188l42 -49v-21l-64 -49q-118 -89 -175 -166l-64 43q50 77 147 151zM368 202l53 41l-30 34q-26 30 -53 83t-39 98l77 23q40 -111 106 -188l42 -49v-21l-64 -49q-118 -89 -175 -166l-64 43q50 77 147 151z "/>
<glyph glyph-name="onequarter" horiz-adv-x="749" unicode="¼" d="M535 251l-104 -120h105l21 112l15 61h-2q-16 -30 -35 -53zM100 674l148 32h18l-74 -382h-69l62 319l-79 -5zM119 0l-49 40l568 669l50 -38zM680 132l-7 -45h-78l-9 -45l-8 -52h-69l18 97h-159v32l224 269l60 -7l-49 -250z"/>
<glyph glyph-name="onehalf" horiz-adv-x="787" unicode="½" d="M100 674l148 32h18l-74 -382h-69l62 319l-79 -5zM434 0v30l89 85q51 49 71 70t34 47q16 26 16 52q0 55 -75 55q-20 -1 -42 -5t-33 -9l-12 -5v46q45 24 115 24q53 0 83 -26t31 -71q-1 -21 -9 -42t-16 -35t-34 -40q-24 -26 -35 -36t-47 -42l-56 -51l190 12l-5 -59h-265z M119 0l-49 40l568 669l50 -38z"/>
<glyph glyph-name="threequarters" horiz-adv-x="785" unicode="¾" d="M574 251l-104 -120h105l21 112l15 61h-2q-16 -30 -35 -53zM153 499l6 46h24q41 0 65 20t23 51q0 46 -63 46q-15 0 -34 -4t-31 -8l-12 -3l3 47q37 16 93 16q58 0 88 -24t30 -64q0 -35 -28 -63t-73 -38q34 -5 54 -25t21 -55q1 -53 -39 -87t-120 -34q-28 0 -54 6t-38 10 l-13 6l15 45q33 -16 77 -16q100 0 100 69q0 59 -68 59h-26zM158 0l-49 40l568 669l50 -38zM719 132l-7 -45h-78l-9 -45l-8 -52h-69l18 97h-159v32l224 269l60 -7l-49 -250z"/>
<glyph glyph-name="questiondown" horiz-adv-x="440" unicode="¿" d="M278 506q26 0 40 -15t14 -39q0 -32 -21 -53t-52 -21q-25 0 -39 15t-15 39q0 32 21 53t52 21zM182 -144q34 0 74 12t62 24l21 12l-14 -79q-7 -5 -21 -13t-60 -22t-97 -13q-79 1 -120 39t-41 98q0 40 17 76t43 59t55 44t55 36t43 32t17 33q0 22 -18 22q-12 0 -28 -12 l-33 53q42 38 96 38q34 1 57 -21t23 -53q0 -43 -23 -75q-22 -32 -56 -54t-67 -44t-56 -54t-23 -74q0 -28 25 -46t69 -18z"/>
<glyph glyph-name="Agrave" horiz-adv-x="566" unicode="À" d="M386 809l-47 -34l-138 136l72 61zM281 494l-120 -264h209l-35 263l-11 102h-4q-18 -54 -39 -101zM402 -4l-22 163h-252l-3 -8q-41 -98 -54 -151h-86q17 72 67 177l251 520l94 6l83 -583l22 -118z"/>
<glyph glyph-name="Aacute" horiz-adv-x="566" unicode="Á" d="M334 784l-32 48l188 151l55 -79zM281 494l-120 -264h209l-35 263l-11 102h-4q-18 -54 -39 -101zM402 -4l-22 163h-252l-3 -8q-41 -98 -54 -151h-86q17 72 67 177l251 520l94 6l83 -583l22 -118z"/>
<glyph glyph-name="Acircumflex" horiz-adv-x="566" unicode="Â" d="M227 781l-36 48l172 122h31l121 -128l-45 -41l-103 77zM281 494l-120 -264h209l-35 263l-11 102h-4q-18 -54 -39 -101zM402 -4l-22 163h-252l-3 -8q-41 -98 -54 -151h-86q17 72 67 177l251 520l94 6l83 -583l22 -118z"/>
<glyph glyph-name="Atilde" horiz-adv-x="566" unicode="Ã" d="M424 786q-39 0 -78 24t-56 24q-36 0 -59 -49l-63 16q16 49 46 81t67 32q35 0 72 -24t59 -24q32 0 52 49l61 -16q-14 -51 -40 -82t-61 -31zM281 494l-120 -264h209l-35 263l-11 102h-4q-18 -54 -39 -101zM402 -4l-22 163h-252l-3 -8q-41 -98 -54 -151h-86q17 72 67 177 l251 520l94 6l83 -583l22 -118z"/>
<glyph glyph-name="Adieresis" horiz-adv-x="566" unicode="Ä" d="M445 784q-23 0 -39 16t-16 42t16 46t48 19q26 1 40 -15t15 -41q1 -27 -17 -47t-47 -20zM252 784q-24 0 -40 16t-15 42t17 46t47 19q27 1 41 -15t14 -41q0 -27 -17 -47t-47 -20zM281 494l-120 -264h209l-35 263l-11 102h-4q-18 -54 -39 -101zM402 -4l-22 163h-252l-3 -8 q-41 -98 -54 -151h-86q17 72 67 177l251 520l94 6l83 -583l22 -118z"/>
<glyph glyph-name="Aring" horiz-adv-x="566" unicode="Å" d="M361 762q-57 0 -89 28t-32 76q0 54 38 86t94 32q54 0 86 -29t33 -76q0 -53 -39 -85t-91 -32zM364 819q23 -1 38 15t15 39q1 23 -13 39t-37 15q-25 1 -40 -15t-15 -39q0 -24 14 -39t38 -15zM281 494l-120 -264h209l-35 263l-11 102h-4q-18 -54 -39 -101zM402 -4l-22 163 h-252l-3 -8q-41 -98 -54 -151h-86q17 72 67 177l251 520l94 6l83 -583l22 -118z"/>
<glyph glyph-name="AE" horiz-adv-x="826" unicode="Æ" d="M362 519l-183 -289h179l69 390h-4q-31 -54 -61 -101zM318 0l28 159h-212l-5 -8q-58 -95 -83 -151h-90q31 74 100 177l351 523h431l-19 -79l-292 9l-42 -240l249 5l-20 -86l-242 8l-44 -246l301 9l-19 -80h-392z"/>
<glyph glyph-name="Ccedilla" horiz-adv-x="567" unicode="Ç" d="M282 -211q-28 -1 -54 5t-38 12l-12 5l21 41q27 -15 64 -15q27 1 40 11t13 24q0 27 -37 27q-9 -1 -19 -3t-16 -4l-5 -2l-23 22l72 80q-106 11 -164 85t-59 198q-1 109 49 211t134 164t179 63q31 0 59 -7q28 -6 57 -18t45 -16l-28 -77q-17 4 -62 22t-88 18q-64 1 -120 -51 t-88 -130q-31 -78 -31 -157q0 -227 171 -227q34 0 67 5t49 9l15 5l5 -70q-44 -25 -134 -28l-44 -47h4q32 0 56 -16q26 -16 26 -51q0 -43 -32 -65t-72 -23z"/>
<glyph glyph-name="Egrave" horiz-adv-x="560" unicode="È" d="M418 808l-47 -34l-138 136l72 61zM52 0l105 598l12 102h403l-19 -79q-35 5 -91 6l-201 3l-42 -240l249 5l-20 -86l-242 8l-44 -246l215 4l86 5l-19 -80h-392z"/>
<glyph glyph-name="Eacute" horiz-adv-x="560" unicode="É" d="M345 773l-32 48l188 151l55 -79zM52 0l105 598l12 102h403l-19 -79q-35 5 -91 6l-201 3l-42 -240l249 5l-20 -86l-242 8l-44 -246l215 4l86 5l-19 -80h-392z"/>
<glyph glyph-name="Ecircumflex" horiz-adv-x="560" unicode="Ê" d="M248 784l-36 48l172 122h31l121 -128l-45 -41l-103 77zM52 0l105 598l12 102h403l-19 -79q-35 5 -91 6l-201 3l-42 -240l249 5l-20 -86l-242 8l-44 -246l215 4l86 5l-19 -80h-392z"/>
<glyph glyph-name="Edieresis" horiz-adv-x="560" unicode="Ë" d="M469 785q-23 0 -39 16t-16 42q0 25 16 45t48 20q26 0 40 -16t15 -40q1 -28 -17 -48t-47 -19zM276 785q-24 0 -40 16t-15 42q1 25 17 45t47 20q27 0 41 -16t14 -40q0 -28 -17 -48t-47 -19zM52 0l105 598l12 102h403l-19 -79q-35 5 -91 6l-201 3l-42 -240l249 5l-20 -86 l-242 8l-44 -246l215 4l86 5l-19 -80h-392z"/>
<glyph glyph-name="Igrave" horiz-adv-x="305" unicode="Ì" d="M278 809l-47 -34l-138 136l72 61zM51 0l106 598l12 103l105 5l-108 -613l-12 -93h-103z"/>
<glyph glyph-name="Iacute" horiz-adv-x="305" unicode="Í" d="M225 772l-32 48l188 151l55 -79zM51 0l106 598l12 103l105 5l-108 -613l-12 -93h-103z"/>
<glyph glyph-name="Icircumflex" horiz-adv-x="305" unicode="Î" d="M105 777l-36 48l172 122h31l121 -128l-45 -41l-103 77zM51 0l106 598l12 103l105 5l-108 -613l-12 -93h-103z"/>
<glyph glyph-name="Idieresis" horiz-adv-x="305" unicode="Ï" d="M317 784q-23 0 -39 16t-16 42t16 46t48 19q26 1 40 -15t15 -41q1 -27 -17 -47t-47 -20zM124 784q-24 0 -40 16t-15 42t17 46t47 19q27 1 41 -15t14 -41q0 -27 -17 -47t-47 -20zM51 0l106 598l12 103l105 5l-108 -613l-12 -93h-103z"/>
<glyph glyph-name="Eth" horiz-adv-x="688" unicode="Ð" d="M306 628h-42l-43 -239h140v-74h-153l-43 -243h66q143 0 227 92t83 240q0 224 -235 224zM27 315v74h96l37 209l12 102h167q151 0 231 -76t80 -201q0 -113 -52 -209t-152 -155t-231 -59h-160l55 315h-83z"/>
<glyph glyph-name="Ntilde" horiz-adv-x="700" unicode="Ñ" d="M521 785q-39 0 -78 24t-56 24q-36 0 -59 -49l-63 16q17 50 47 82t66 31q35 0 72 -24t59 -24q32 0 52 49l61 -16q-14 -51 -40 -82t-61 -31zM463 -10l-203 475l-35 101h-3q-2 -61 -10 -106l-64 -367l-12 -93h-85l106 598l12 103l87 5l201 -472q11 -26 20 -52t13 -40l4 -14 l4 1v10q0 47 8 94l65 365l12 103l87 5l-125 -706z"/>
<glyph glyph-name="Ograve" horiz-adv-x="713" unicode="Ò" d="M465 809l-47 -34l-138 136l72 61zM292 -10q-88 0 -144 50t-74 128q-9 40 -10 85q0 41 8 84q30 171 126 272t244 101q66 0 116 -32t73 -80q24 -50 34 -112q4 -27 4 -54q0 -35 -7 -69q-30 -171 -126 -272t-244 -101zM315 60q89 0 154 79t86 199q9 40 9 81q0 14 -1 27 q-4 54 -18 97t-47 70t-81 27q-89 0 -153 -79t-85 -199q-9 -42 -9 -84v-24q4 -54 17 -97t47 -70t81 -27z"/>
<glyph glyph-name="Oacute" horiz-adv-x="713" unicode="Ó" d="M412 773l-32 48l188 151l55 -79zM292 -10q-88 0 -144 50t-74 128q-9 40 -10 85q0 41 8 84q30 171 126 272t244 101q66 0 116 -32t73 -80q24 -50 34 -112q4 -27 4 -54q0 -35 -7 -69q-30 -171 -126 -272t-244 -101zM315 60q89 0 154 79t86 199q9 40 9 81q0 14 -1 27 q-4 54 -18 97t-47 70t-81 27q-89 0 -153 -79t-85 -199q-9 -42 -9 -84v-24q4 -54 17 -97t47 -70t81 -27z"/>
<glyph glyph-name="Ocircumflex" horiz-adv-x="713" unicode="Ô" d="M302 784l-36 48l172 122h31l121 -128l-45 -41l-103 77zM292 -10q-88 0 -144 50t-74 128q-9 40 -10 85q0 41 8 84q30 171 126 272t244 101q66 0 116 -32t73 -80q24 -50 34 -112q4 -27 4 -54q0 -35 -7 -69q-30 -171 -126 -272t-244 -101zM315 60q89 0 154 79t86 199 q9 40 9 81q0 14 -1 27q-4 54 -18 97t-47 70t-81 27q-89 0 -153 -79t-85 -199q-9 -42 -9 -84v-24q4 -54 17 -97t47 -70t81 -27z"/>
<glyph glyph-name="Otilde" horiz-adv-x="713" unicode="Õ" d="M531 786q-39 0 -78 24t-56 24q-36 0 -59 -49l-63 16q17 49 47 81t66 32q35 0 72 -24t59 -24q32 0 52 49l61 -16q-14 -51 -40 -82t-61 -31zM292 -10q-88 0 -144 50t-74 128q-9 40 -10 85q0 41 8 84q30 171 126 272t244 101q66 0 116 -32t73 -80q24 -50 34 -112 q4 -27 4 -54q0 -35 -7 -69q-30 -171 -126 -272t-244 -101zM315 60q89 0 154 79t86 199q9 40 9 81q0 14 -1 27q-4 54 -18 97t-47 70t-81 27q-89 0 -153 -79t-85 -199q-9 -42 -9 -84v-24q4 -54 17 -97t47 -70t81 -27z"/>
<glyph glyph-name="Odieresis" horiz-adv-x="713" unicode="Ö" d="M550 785q-24 0 -40 16t-15 42q1 25 17 45t47 20q27 0 41 -16t14 -40q0 -28 -18 -48t-46 -19zM357 785q-23 0 -39 16t-16 42q0 25 16 45t48 20q26 0 40 -16t15 -40q0 -28 -17 -48t-47 -19zM292 -10q-88 0 -144 50t-74 128q-9 40 -10 85q0 41 8 84q30 171 126 272t244 101 q66 0 116 -32t73 -80q24 -50 34 -112q4 -27 4 -54q0 -35 -7 -69q-30 -171 -126 -272t-244 -101zM315 60q89 0 154 79t86 199q9 40 9 81q0 14 -1 27q-4 54 -18 97t-47 70t-81 27q-89 0 -153 -79t-85 -199q-9 -42 -9 -84v-24q4 -54 17 -97t47 -70t81 -27z"/>
<glyph glyph-name="multiply" horiz-adv-x="516" unicode="×" d="M73 87l-39 49l178 153l-108 153l53 43l106 -152l176 152l41 -51l-180 -153l108 -152l-52 -41l-107 149z"/>
<glyph glyph-name="Oslash" horiz-adv-x="713" unicode="Ø" d="M324 60q86 0 148 78t83 200q9 52 9 97q0 52 -12 95l-326 -435q37 -35 98 -35zM179 362q-10 -54 -10 -100q0 -56 15 -100l329 438q-38 40 -103 40q-86 0 -148 -78t-83 -200zM128 -35l-59 42l48 65q-53 72 -53 177q0 41 8 88q30 171 126 272t244 101q72 0 126 -36l44 58 l59 -43l-50 -67q49 -71 49 -172q0 -41 -8 -87q-30 -171 -126 -272t-244 -101q-72 0 -121 32z"/>
<glyph glyph-name="Ugrave" horiz-adv-x="697" unicode="Ù" d="M475 808l-47 -34l-138 136l72 61zM674 706l-80 -455q-21 -123 -94 -194t-202 -71q-126 0 -178 71q-37 50 -37 126q0 32 6 69l61 346l12 103l105 5l-80 -455q-6 -34 -6 -61q0 -129 134 -129q156 0 191 190l61 347l12 103z"/>
<glyph glyph-name="Uacute" horiz-adv-x="697" unicode="Ú" d="M404 784l-32 48l188 151l55 -79zM674 706l-80 -455q-21 -123 -94 -194t-202 -71q-126 0 -178 71q-37 50 -37 126q0 32 6 69l61 346l12 103l105 5l-80 -455q-6 -34 -6 -61q0 -129 134 -129q156 0 191 190l61 347l12 103z"/>
<glyph glyph-name="Ucircumflex" horiz-adv-x="697" unicode="Û" d="M301 784l-36 48l172 122h31l121 -128l-45 -41l-103 77zM674 706l-80 -455q-21 -123 -94 -194t-202 -71q-126 0 -178 71q-37 50 -37 126q0 32 6 69l61 346l12 103l105 5l-80 -455q-6 -34 -6 -61q0 -129 134 -129q156 0 191 190l61 347l12 103z"/>
<glyph glyph-name="Udieresis" horiz-adv-x="697" unicode="Ü" d="M529 785q-23 0 -39 16t-16 42q0 25 16 45t48 20q26 0 40 -16t15 -40q1 -28 -17 -48t-47 -19zM336 785q-24 0 -40 16t-15 42q1 25 17 45t47 20q27 0 41 -16t14 -40q0 -28 -17 -48t-47 -19zM674 706l-80 -455q-21 -123 -94 -194t-202 -71q-126 0 -178 71q-37 50 -37 126 q0 32 6 69l61 346l12 103l105 5l-80 -455q-6 -34 -6 -61q0 -129 134 -129q156 0 191 190l61 347l12 103z"/>
<glyph glyph-name="Yacute" horiz-adv-x="542" unicode="Ý" d="M330 772l-32 48l188 151l55 -79zM170 0l49 278l-109 330l-36 92l104 5l116 -352l144 224q21 33 38 64t24 45l6 14h97q-33 -63 -100 -158l-185 -263l-33 -186l-12 -93h-103z"/>
<glyph glyph-name="Thorn" horiz-adv-x="569" unicode="Þ" d="M290 514h-50l-56 -319h72q80 1 132 55t53 131q0 133 -151 133zM273 700l-20 -114h64q103 0 165 -50t61 -141q0 -49 -21 -97q-20 -48 -58 -88q-38 -39 -96 -63t-125 -24h-72l-5 -30l-11 -93h-103l105 598l12 102h104z"/>
<glyph glyph-name="germandbls" horiz-adv-x="657" unicode="ß" d="M404 -10q-35 0 -87 10t-71 11l26 82q20 -2 69 -13t76 -11q40 1 62 17t22 43q-1 23 -19 41t-44 32t-52 30t-44 44t-19 64q-1 40 19 72t48 52t54 40q28 18 48 43t19 56q0 39 -27 63t-77 24q-72 0 -105 -36t-48 -104l-97 -457l-15 -93h-98l92 432h-56v68h71l10 47 q23 103 89 158t173 55q89 0 137 -40t49 -110q-1 -43 -21 -77q-20 -33 -49 -55t-57 -40t-50 -40q-20 -22 -20 -45q0 -19 18 -36t45 -31q26 -14 52 -31q27 -17 45 -46t18 -66q0 -69 -50 -111t-136 -42z"/>
<glyph glyph-name="agrave" horiz-adv-x="538" unicode="à" d="M399 622l-47 -34l-138 136l72 61zM182 67q18 1 48 19t101 74l52 245q-22 43 -72 43q-73 0 -127 -107q-47 -94 -46 -189q2 -83 44 -85zM498 500l-88 -412l-15 -88h-88l8 84q-65 -58 -102 -76t-71 -18q-77 0 -99 89q-8 31 -8 66q0 69 31 149q50 131 143 186q50 30 105 30 q66 0 114 -39l49 35z"/>
<glyph glyph-name="aacute" horiz-adv-x="538" unicode="á" d="M331 585l-32 48l188 151l55 -79zM182 67q18 1 48 19t101 74l52 245q-22 43 -72 43q-73 0 -127 -107q-47 -94 -46 -189q2 -83 44 -85zM498 500l-88 -412l-15 -88h-88l8 84q-65 -58 -102 -76t-71 -18q-77 0 -99 89q-8 31 -8 66q0 69 31 149q50 131 143 186q50 30 105 30 q66 0 114 -39l49 35z"/>
<glyph glyph-name="acircumflex" horiz-adv-x="538" unicode="â" d="M224 592l-36 48l172 122h31l121 -128l-45 -41l-103 77zM182 67q18 1 48 19t101 74l52 245q-22 43 -72 43q-73 0 -127 -107q-47 -94 -46 -189q2 -83 44 -85zM498 500l-88 -412l-15 -88h-88l8 84q-65 -58 -102 -76t-71 -18q-77 0 -99 89q-8 31 -8 66q0 69 31 149 q50 131 143 186q50 30 105 30q66 0 114 -39l49 35z"/>
<glyph glyph-name="atilde" horiz-adv-x="538" unicode="ã" d="M418 591q-39 0 -78 24t-56 24q-36 0 -59 -49l-63 16q16 50 46 82t67 31q35 0 72 -24t59 -24q32 0 52 49l61 -16q-14 -51 -40 -82t-61 -31zM182 67q18 1 48 19t101 74l52 245q-22 43 -72 43q-73 0 -127 -107q-47 -94 -46 -189q2 -83 44 -85zM498 500l-88 -412l-15 -88h-88 l8 84q-65 -58 -102 -76t-71 -18q-77 0 -99 89q-8 31 -8 66q0 69 31 149q50 131 143 186q50 30 105 30q66 0 114 -39l49 35z"/>
<glyph glyph-name="adieresis" horiz-adv-x="538" unicode="ä" d="M438 589q-24 0 -40 16t-15 42q1 25 17 45t47 20q27 0 41 -16t14 -40q0 -28 -18 -48t-46 -19zM245 589q-23 0 -39 16t-16 42q0 25 16 45t48 20q26 0 40 -16t15 -40q0 -28 -17 -48t-47 -19zM182 67q18 1 48 19t101 74l52 245q-22 43 -72 43q-73 0 -127 -107 q-47 -94 -46 -189q2 -83 44 -85zM498 500l-88 -412l-15 -88h-88l8 84q-65 -58 -102 -76t-71 -18q-77 0 -99 89q-8 31 -8 66q0 69 31 149q50 131 143 186q50 30 105 30q66 0 114 -39l49 35z"/>
<glyph glyph-name="aring" horiz-adv-x="538" unicode="å" d="M353 591q-57 0 -89 28t-32 76q0 53 38 85t94 33q54 0 86 -29t33 -76q0 -53 -39 -85t-91 -32zM356 648q23 0 38 16t15 38q1 22 -13 38t-37 16q-25 0 -40 -15t-15 -39t14 -39t38 -15zM182 67q18 1 48 19t101 74l52 245q-22 43 -72 43q-73 0 -127 -107q-47 -94 -46 -189 q2 -83 44 -85zM498 500l-88 -412l-15 -88h-88l8 84q-65 -58 -102 -76t-71 -18q-77 0 -99 89q-8 31 -8 66q0 69 31 149q50 131 143 186q50 30 105 30q66 0 114 -39l49 35z"/>
<glyph glyph-name="ae" horiz-adv-x="784" unicode="æ" d="M585 444q-47 0 -82 -48t-50 -122l119 45q64 24 64 77q0 20 -14 34t-37 14zM182 67q54 0 164 152l35 176q-19 53 -70 53q-73 0 -127 -107q-47 -94 -46 -189q2 -83 44 -85zM690 70q-102 -80 -181 -80q-64 0 -104 39t-51 107q-42 -54 -102 -100t-110 -46q-77 0 -99 89 q-8 31 -8 66q0 69 31 149q50 131 143 186q50 30 105 30q66 0 105 -45l38 41l21 -6l-6 -37q61 47 135 47q62 0 97 -30t35 -74q0 -87 -94 -121l-200 -75q-1 -10 -1 -29q0 -61 30 -87t68 -27q57 0 148 65v-62z"/>
<glyph glyph-name="ccedilla" horiz-adv-x="458" unicode="ç" d="M162 -207q-28 -1 -54 5t-38 12l-12 5l21 41q27 -15 64 -15q27 1 40 11t13 24q0 27 -37 27q-9 -1 -19 -3t-16 -4l-5 -2l-23 22l70 78q-59 12 -90 62t-31 129q0 135 79 230t177 95q25 0 47 -5t46 -15q25 -10 36 -12l-31 -81q-19 6 -50 25t-51 19q-64 1 -108 -79t-45 -181 q1 -61 25 -87t58 -27q58 0 147 65v-62q-90 -70 -154 -78l-41 -44h4q32 0 56 -16q26 -16 26 -51q0 -43 -32 -65t-72 -23z"/>
<glyph glyph-name="egrave" d="M352 622l-47 -34l-138 136l72 61zM286 444q-47 0 -81 -47t-51 -121l67 25q71 27 93 47q23 20 22 51q0 18 -13 31q-14 14 -37 14zM380 70q-104 -80 -186 -80q-74 0 -114 53q-38 49 -38 130v12q6 137 84 231t185 94q63 0 97 -30q32 -28 31 -75v-6q-2 -48 -39 -80t-130 -64 l-126 -43q-2 -22 -2 -31v-9q0 -54 24 -78q26 -26 64 -27q57 0 150 65v-62z" unicode="è"/>
<glyph glyph-name="eacute" d="M282 590l-32 48l188 151l55 -79zM286 444q-47 0 -81 -47t-51 -121l67 25q71 27 93 47q23 20 22 51q0 18 -13 31q-14 14 -37 14zM380 70q-104 -80 -186 -80q-74 0 -114 53q-38 49 -38 130v12q6 137 84 231t185 94q63 0 97 -30q32 -28 31 -75v-6q-2 -48 -39 -80t-130 -64 l-126 -43q-2 -22 -2 -31v-9q0 -54 24 -78q26 -26 64 -27q57 0 150 65v-62z" unicode="é"/>
<glyph glyph-name="ecircumflex" d="M189 589l-36 48l172 122h31l121 -128l-45 -41l-103 77zM286 444q-47 0 -81 -47t-51 -121l67 25q71 27 93 47q23 20 22 51q0 18 -13 31q-14 14 -37 14zM380 70q-104 -80 -186 -80q-74 0 -114 53q-38 49 -38 130v12q6 137 84 231t185 94q63 0 97 -30q32 -28 31 -75v-6 q-2 -48 -39 -80t-130 -64l-126 -43q-2 -22 -2 -31v-9q0 -54 24 -78q26 -26 64 -27q57 0 150 65v-62z" unicode="ê"/>
<glyph glyph-name="edieresis" d="M411 589q-23 0 -39 16t-16 42q0 25 16 45t48 20q26 0 40 -16t15 -40q1 -28 -17 -48t-47 -19zM218 589q-24 0 -40 16t-15 42q1 25 17 45t47 20q27 0 41 -16t14 -40q0 -28 -17 -48t-47 -19zM286 444q-47 0 -81 -47t-51 -121l67 25q71 27 93 47q23 20 22 51q0 18 -13 31 q-14 14 -37 14zM380 70q-104 -80 -186 -80q-74 0 -114 53q-38 49 -38 130v12q6 137 84 231t185 94q63 0 97 -30q32 -28 31 -75v-6q-2 -48 -39 -80t-130 -64l-126 -43q-2 -22 -2 -31v-9q0 -54 24 -78q26 -26 64 -27q57 0 150 65v-62z" unicode="ë"/>
<glyph glyph-name="igrave" horiz-adv-x="266" unicode="ì" d="M218 621l-47 -34l-138 136l72 61zM128 500l99 3l-108 -503h-94l90 423z"/>
<glyph glyph-name="iacute" horiz-adv-x="266" unicode="í" d="M171 590l-32 48l188 151l55 -79zM128 500l99 3l-108 -503h-94l90 423z"/>
<glyph glyph-name="icircumflex" horiz-adv-x="266" unicode="î" d="M66 590l-36 48l172 122h31l121 -128l-45 -41l-103 77zM128 500l99 3l-108 -503h-94l90 423z"/>
<glyph glyph-name="idieresis" horiz-adv-x="266" unicode="ï" d="M280 590q-24 0 -40 16t-15 42t17 46t47 19q27 1 41 -15t14 -41q0 -27 -18 -47t-46 -20zM87 590q-23 0 -39 16t-16 42t16 46t48 19q26 1 40 -15t15 -41q0 -27 -17 -47t-47 -20zM128 500l99 3l-108 -503h-94l90 423z"/>
<glyph glyph-name="eth" horiz-adv-x="537" unicode="ð" d="M232 52q65 0 104 78t39 194q0 20 -1 30q-37 39 -95 39q-68 1 -101 -63t-33 -151q0 -127 87 -127zM189 525l-35 50l90 68q-45 33 -105 57l24 56q78 -31 138 -70l90 68l36 -50l-76 -57q124 -115 124 -323q0 -58 -15 -114t-44 -106t-81 -82t-118 -32q-82 0 -127 52t-45 139 q-1 117 59 199t169 83q53 0 93 -27q-17 100 -75 165z"/>
<glyph glyph-name="ntilde" horiz-adv-x="530" unicode="ñ" d="M407 591q-39 0 -78 24t-56 24q-36 0 -59 -49l-63 16q17 50 47 82t66 31q35 0 72 -24t59 -24q32 0 52 49l61 -16q-14 -51 -40 -82t-61 -31zM393 0h-98l77 364q3 16 3 28q0 24 -13 32q-6 3 -14 3q-19 0 -49 -20l-108 -70l-72 -337h-94l90 423l13 77l99 3l-19 -90l104 71 q37 26 72 26q54 0 74 -41q12 -25 12 -58q0 -22 -5 -47l-58 -276z"/>
<glyph glyph-name="ograve" horiz-adv-x="527" unicode="ò" d="M355 621l-47 -34l-138 136l72 61zM469 336q0 -58 -17 -117q-16 -59 -48 -111t-86 -85t-118 -33q-74 0 -116 46t-42 131q0 79 28 155t92 132t149 56q74 0 116 -46t42 -128zM295 448q-42 0 -73 -30t-47 -76q-15 -46 -23 -91t-8 -88q0 -61 17 -86t57 -25q36 0 64 24t44 56 q16 34 25 76q10 42 13 74t3 59q-1 55 -17 81t-55 26z"/>
<glyph glyph-name="oacute" horiz-adv-x="527" unicode="ó" d="M290 589l-32 48l188 151l55 -79zM469 336q0 -58 -17 -117q-16 -59 -48 -111t-86 -85t-118 -33q-74 0 -116 46t-42 131q0 79 28 155t92 132t149 56q74 0 116 -46t42 -128zM295 448q-42 0 -73 -30t-47 -76q-15 -46 -23 -91t-8 -88q0 -61 17 -86t57 -25q36 0 64 24t44 56 q16 34 25 76q10 42 13 74t3 59q-1 55 -17 81t-55 26z"/>
<glyph glyph-name="ocircumflex" horiz-adv-x="527" unicode="ô" d="M192 590l-36 48l172 122h31l121 -128l-45 -41l-103 77zM469 336q0 -58 -17 -117q-16 -59 -48 -111t-86 -85t-118 -33q-74 0 -116 46t-42 131q0 79 28 155t92 132t149 56q74 0 116 -46t42 -128zM295 448q-42 0 -73 -30t-47 -76q-15 -46 -23 -91t-8 -88q0 -61 17 -86 t57 -25q36 0 64 24t44 56q16 34 25 76q10 42 13 74t3 59q-1 55 -17 81t-55 26z"/>
<glyph glyph-name="otilde" horiz-adv-x="527" unicode="õ" d="M395 591q-39 0 -78 24t-56 24q-36 0 -59 -49l-63 16q17 50 47 82t66 31q35 0 72 -24t59 -24q32 0 52 49l61 -16q-14 -51 -40 -82t-61 -31zM469 336q0 -58 -17 -117q-16 -59 -48 -111t-86 -85t-118 -33q-74 0 -116 46t-42 131q0 79 28 155t92 132t149 56q74 0 116 -46 t42 -128zM295 448q-42 0 -73 -30t-47 -76q-15 -46 -23 -91t-8 -88q0 -61 17 -86t57 -25q36 0 64 24t44 56q16 34 25 76q10 42 13 74t3 59q-1 55 -17 81t-55 26z"/>
<glyph glyph-name="odieresis" horiz-adv-x="527" unicode="ö" d="M415 589q-23 0 -39 16t-16 42q0 25 16 45t48 20q26 0 40 -16t15 -40q1 -28 -17 -48t-47 -19zM222 589q-24 0 -40 16t-15 42q1 25 17 45t47 20q27 0 41 -16t14 -40q0 -28 -17 -48t-47 -19zM469 336q0 -58 -17 -117q-16 -59 -48 -111t-86 -85t-118 -33q-74 0 -116 46 t-42 131q0 79 28 155t92 132t149 56q74 0 116 -46t42 -128zM295 448q-42 0 -73 -30t-47 -76q-15 -46 -23 -91t-8 -88q0 -61 17 -86t57 -25q36 0 64 24t44 56q16 34 25 76q10 42 13 74t3 59q-1 55 -17 81t-55 26z"/>
<glyph glyph-name="divide" horiz-adv-x="556" unicode="÷" d="M233 49q-25 0 -39 15t-15 39q0 32 21 53t52 21q26 0 40 -15t14 -39q0 -32 -21 -53t-52 -21zM292 396q-26 0 -40 15t-14 39q0 32 21 53t52 21q25 0 39 -15t15 -39q0 -32 -21 -53t-52 -21zM65 248v74h421v-74h-421z"/>
<glyph glyph-name="oslash" horiz-adv-x="544" unicode="ø" d="M378 312q0 23 -1 34l-193 -277q18 -17 52 -17q38 0 68 28t44 70t22 84t8 78zM150 196q0 -32 2 -46l194 280q-19 18 -53 18q-38 0 -67 -26t-45 -65q-15 -40 -23 -81t-8 -80zM82 -78l-63 37l66 95q-36 49 -36 127q0 59 16 115t46 105t81 79t114 30q45 0 83 -19l58 84 l63 -38l-66 -94q34 -48 34 -120q0 -83 -26 -157t-88 -124q-60 -52 -143 -52q-44 0 -80 17z"/>
<glyph glyph-name="ugrave" horiz-adv-x="530" unicode="ù" d="M356 621l-47 -34l-138 136l72 61zM122 500h98l-77 -364q-3 -16 -3 -28q0 -24 13 -32q6 -3 14 -3q19 0 49 20l107 69l73 338h94l-90 -423l-13 -77l-89 -1l8 87l-103 -70q-37 -26 -72 -26q-54 0 -74 41q-12 25 -12 58q0 22 5 47l58 276z"/>
<glyph glyph-name="uacute" horiz-adv-x="530" unicode="ú" d="M307 589l-32 48l188 151l55 -79zM122 500h98l-77 -364q-3 -16 -3 -28q0 -24 13 -32q6 -3 14 -3q19 0 49 20l107 69l73 338h94l-90 -423l-13 -77l-89 -1l8 87l-103 -70q-37 -26 -72 -26q-54 0 -74 41q-12 25 -12 58q0 22 5 47l58 276z"/>
<glyph glyph-name="ucircumflex" horiz-adv-x="530" unicode="û" d="M188 590l-36 48l172 122h31l121 -128l-45 -41l-103 77zM122 500h98l-77 -364q-3 -16 -3 -28q0 -24 13 -32q6 -3 14 -3q19 0 49 20l107 69l73 338h94l-90 -423l-13 -77l-89 -1l8 87l-103 -70q-37 -26 -72 -26q-54 0 -74 41q-12 25 -12 58q0 22 5 47l58 276z"/>
<glyph glyph-name="udieresis" horiz-adv-x="530" unicode="ü" d="M418 589q-24 0 -40 16t-15 42q1 25 17 45t47 20q27 0 41 -16t14 -40q0 -28 -18 -48t-46 -19zM225 589q-23 0 -39 16t-16 42q0 25 16 45t48 20q26 0 40 -16t15 -40q0 -28 -17 -48t-47 -19zM122 500h98l-77 -364q-3 -16 -3 -28q0 -24 13 -32q6 -3 14 -3q19 0 49 20l107 69 l73 338h94l-90 -423l-13 -77l-89 -1l8 87l-103 -70q-37 -26 -72 -26q-54 0 -74 41q-12 25 -12 58q0 22 5 47l58 276z"/>
<glyph glyph-name="yacute" d="M245 586l-32 48l188 151l55 -79zM244 -3q-12 -13 -44 -51t-46 -56q-14 -16 -40 -46t-51 -54q-24 -24 -50 -49l-63 69q34 30 108 88t105 89l-90 428l-20 85l97 5l85 -432q106 158 106 405v22h93v-21q0 -257 -190 -482z" unicode="ý"/>
<glyph glyph-name="thorn" horiz-adv-x="539" unicode="þ" d="M342 429q-20 0 -51 -18t-100 -73l-52 -238q22 -48 74 -48q74 0 126 108q46 93 45 187q-2 81 -42 82zM120 12l-38 -174l-15 -88h-98l201 924l13 77l99 3l-74 -340q65 60 103 78t76 18q72 0 93 -87q7 -31 7 -65q0 -68 -29 -150q-49 -132 -142 -188q-50 -30 -106 -30 q-48 0 -90 22z"/>
<glyph glyph-name="OE" horiz-adv-x="977" unicode="Œ" d="M325 60q92 0 168 81l77 434q-55 65 -135 65q-83 0 -144 -54t-91 -138t-29 -183q0 -91 37 -148t117 -57zM469 0l6 35q-76 -45 -172 -45q-117 0 -177 75t-60 191q0 65 14 129t46 123q31 60 75 104q45 44 107 71t136 27q84 0 142 -41l6 31h397l-19 -79l-292 9l-42 -240 l249 5l-20 -86l-242 8l-44 -246l301 9l-19 -80h-392z"/>
<glyph glyph-name="oe" horiz-adv-x="798" unicode="œ" d="M599 444q-47 0 -79 -47t-47 -120l113 42q64 24 64 77q0 20 -14 34t-37 14zM145 196q1 -78 21 -111t65 -33q37 0 67 28t45 70t23 84t7 78q1 72 -19 104t-66 32q-38 0 -67 -26t-45 -65q-16 -40 -24 -81t-7 -80zM704 70q-102 -80 -181 -80q-94 0 -130 84q-69 -84 -177 -84 q-78 0 -125 50t-47 141q0 59 16 115t46 105t81 79t114 30q105 0 149 -85q71 85 171 85q62 0 97 -30t35 -74q0 -87 -94 -121l-194 -72q-1 -11 -1 -32q0 -61 27 -87t65 -27q57 0 148 65v-62z"/>
<glyph glyph-name="Scaron" horiz-adv-x="505" unicode="Š" d="M466 951l36 -48l-168 -118h-38l-118 124l45 41l102 -78zM319 713q37 0 66 -7q29 -6 56 -18t43 -16l-28 -77q-17 3 -64 21t-89 19q-51 0 -81 -28t-30 -71q0 -32 18 -60t44 -48t58 -44q32 -25 58 -49q26 -23 44 -61t18 -82q0 -92 -64 -147t-174 -55q-54 0 -96 6t-57 12 l-15 7l14 77q49 -23 155 -23q64 0 105 28t41 81q0 38 -25 70q-24 32 -60 58t-71 54t-60 68q-25 42 -25 94q0 79 58 135t161 56z"/>
<glyph glyph-name="scaron" horiz-adv-x="420" unicode="š" d="M396 755l36 -48l-168 -118h-38l-118 124l45 41l102 -78zM164 -8q-32 0 -59 3t-58 9t-48 7l25 82q20 -1 64 -15t80 -14t56 18t20 48q0 24 -16 46t-40 39t-48 36t-40 49t-16 67q0 63 40 103t113 40q23 0 45 -4t32 -6t38 -11t37 -12l-31 -81q-23 6 -60 23t-66 17 q-27 0 -43 -16t-16 -43q1 -25 17 -46t40 -39t47 -36q25 -20 41 -51t16 -70q0 -71 -47 -107t-123 -36z"/>
<glyph glyph-name="Ydieresis" horiz-adv-x="542" unicode="Ÿ" d="M448 784q-24 0 -40 16t-15 42t17 46t47 19q27 1 41 -15t14 -41q0 -27 -18 -47t-46 -20zM255 784q-23 0 -39 16t-16 42t16 46t48 19q26 1 40 -15t15 -41q0 -27 -17 -47t-47 -20zM170 0l49 278l-109 330l-36 92l104 5l116 -352l144 224q21 33 38 64t24 45l6 14h97 q-33 -63 -100 -158l-185 -263l-33 -186l-12 -93h-103z"/>
<glyph glyph-name="circumflex" horiz-adv-x="384" unicode="ˆ" d="M57 541l-36 48l172 122h31l121 -128l-45 -41l-103 77z"/>
<glyph glyph-name="tilde" horiz-adv-x="424" unicode="˜" d="M284 539q-39 0 -78 24t-56 24q-36 0 -59 -49l-63 16q16 50 46 82t67 31q35 0 72 -24t59 -24q32 0 52 49l61 -16q-14 -51 -40 -82t-61 -31z"/>
<glyph glyph-name="afii10023" horiz-adv-x="560" unicode="Ё" d="M482 776q-24 0 -40 16t-15 42t17 46t47 19q27 1 41 -15t14 -41q0 -27 -18 -47t-46 -20zM289 776q-23 0 -39 16t-16 42t16 46t48 19q26 1 40 -15t15 -41q0 -27 -17 -47t-47 -20zM52 0l105 598l12 102h403l-19 -79q-35 5 -91 6l-201 3l-42 -240l249 5l-20 -86l-242 8 l-44 -246l215 4l86 5l-19 -80h-392z"/>
<glyph glyph-name="afii10051" horiz-adv-x="720" unicode="Ђ" d="M175 0l114 621h-117l-88 -5l11 84h508l-19 -77q-25 4 -77 4h-119l-39 -205q55 28 128 28q94 0 142 -50t48 -135q1 -113 -61 -202t-186 -135l-29 73q83 27 129 98t47 154q0 119 -112 119q-25 0 -55 -4t-46 -8l-17 -4l-48 -263q-5 -19 -7 -43t-3 -37l-1 -13h-103z"/>
<glyph glyph-name="afii10052" horiz-adv-x="516" unicode="Ѓ" d="M330 749l-32 48l188 151l55 -79zM52 0l105 598l12 102h393l-19 -80q-40 5 -83 6l-199 3l-95 -536l-11 -93h-103z"/>
<glyph glyph-name="afii10053" horiz-adv-x="570" unicode="Є" d="M409 635q-75 0 -137 -68t-88 -166l268 5v-83l-281 4q-1 -10 -1 -30q0 -227 171 -227q34 0 67 5t48 9l16 5l5 -70q-49 -29 -153 -29q-124 0 -192 75t-68 210q0 109 50 211t133 164q84 62 179 63q31 0 59 -7q28 -6 57 -18t45 -16l-28 -77q-17 4 -62 22t-88 18z"/>
<glyph glyph-name="afii10054" horiz-adv-x="505" unicode="Ѕ" d="M319 713q37 0 66 -7q29 -6 56 -18t43 -16l-28 -77q-17 3 -64 21t-89 19q-51 0 -81 -28t-30 -71q0 -32 18 -60t44 -48t58 -44q32 -25 58 -49q26 -23 44 -61t18 -82q0 -92 -64 -147t-174 -55q-54 0 -96 6t-57 12l-15 7l14 77q49 -23 155 -23q64 0 105 28t41 81q0 38 -25 70 q-24 32 -60 58t-71 54t-60 68q-25 42 -25 94q0 79 58 135t161 56z"/>
<glyph glyph-name="afii10055" horiz-adv-x="305" unicode="І" d="M51 0l106 598l12 103l105 5l-108 -613l-12 -93h-103z"/>
<glyph glyph-name="afii10056" horiz-adv-x="305" unicode="Ї" d="M325 786q-23 0 -39 16t-16 42t16 46t48 19q26 1 40 -15t15 -41q1 -27 -17 -47t-47 -20zM132 786q-24 0 -40 16t-15 42t17 46t47 19q27 1 41 -15t14 -41q0 -27 -17 -47t-47 -20zM51 0l106 598l12 103l105 5l-108 -613l-12 -93h-103z"/>
<glyph glyph-name="afii10057" horiz-adv-x="304" unicode="Ј" d="M68 90l89 508l12 103l105 5l-108 -615q-11 -61 -38 -114q-18 -33 -44 -63t-66 -70q-42 -40 -54 -53l-52 49q12 14 46 47t52 56t30 50q17 38 28 97z"/>
<glyph glyph-name="afii10058" horiz-adv-x="924" unicode="Љ" d="M627 358h-60l-50 -283h57q90 -1 144 41t54 114q0 68 -36 98t-109 30zM255 700h372l-47 -267h77q101 0 159 -48t58 -145q0 -106 -87 -173t-210 -67h-170l110 626h-193q-26 -124 -47 -208t-46 -164t-50 -128t-57 -82t-68 -44q-18 -5 -38 -5q-21 0 -44 5v79q7 -1 15 -1 q46 0 82 44q42 51 86 187t98 391z"/>
<glyph glyph-name="afii10059" horiz-adv-x="980" unicode="Њ" d="M683 358h-60l-50 -283h57q91 -1 146 43t54 119q-4 65 -40 93t-107 28zM274 706l-54 -307h313l35 199q4 22 7 48t3 40l1 14l105 5l-48 -272h77q100 1 157 -45t60 -139v-9q0 -103 -84 -170q-88 -70 -213 -70h-170l57 325h-313l-41 -232l-12 -93h-103l106 598l12 103z"/>
<glyph glyph-name="afii10060" horiz-adv-x="714" unicode="Ћ" d="M175 0l114 627l-206 -5l10 78h510l-18 -78l-197 5l-39 -205q76 28 145 28q90 0 130 -52q28 -36 29 -95q0 -26 -6 -58l-43 -245h-98l44 249q3 19 3 34q0 87 -98 87q-25 0 -55 -4t-46 -6l-16 -4l-49 -263l-11 -93h-103z"/>
<glyph glyph-name="afii10061" horiz-adv-x="599" unicode="Ќ" d="M368 750l-32 48l188 151l55 -79zM52 0l105 598l12 103l105 5l-54 -305h48q82 89 133 149t68 82t49 68h101q-92 -122 -291 -329l168 -290q10 -20 24 -40t22 -31l7 -10l-115 -5l-184 334h-43l-41 -236l-11 -93h-103z"/>
<glyph glyph-name="afii10062" horiz-adv-x="548" unicode="Ў" d="M207 0h-99q35 63 109 166l-111 431l-32 103l104 3l78 -313l25 -122l6 -1q24 61 56 119l86 155q25 43 43 83t25 58l7 18h93q-33 -84 -116 -225l-165 -283zM353 785q-57 0 -101 21t-68 51l63 63q9 -8 23 -24t23 -24t26 -16t38 -7q24 1 41 9t42 31t34 30l45 -62 q-82 -72 -166 -72z"/>
<glyph glyph-name="afii10145" horiz-adv-x="717" unicode="Џ" d="M51 0l106 598l12 103l105 5l-112 -632h314l93 524l12 103l105 5l-108 -613l-12 -93h-205l-21 -120l-11 -90l-91 -6l30 216h-217z"/>
<glyph glyph-name="afii10017" horiz-adv-x="566" unicode="А" d="M281 494l-120 -264h209l-35 263l-11 102h-4q-18 -54 -39 -101zM402 -4l-22 163h-252l-3 -8q-41 -98 -54 -151h-86q17 72 67 177l251 520l94 6l83 -583l22 -118z"/>
<glyph glyph-name="afii10018" horiz-adv-x="584" unicode="Б" d="M212 350l-60 -278h64q84 0 138 48t54 121q0 57 -34 83t-108 26h-54zM39 0l127 598l16 102h393l-16 -76q-68 3 -101 3l-187 2l-44 -206h62q111 -1 167 -45t56 -125q0 -111 -84 -182t-210 -71h-179z"/>
<glyph glyph-name="afii10019" horiz-adv-x="597" unicode="В" d="M339 629h-78l-40 -226h155q3 2 8 5q5 2 18 14t23 26t18 36q8 23 8 48q0 97 -112 97zM304 331h-96l-46 -259h95q69 0 117 41t49 110q0 108 -119 108zM52 0l105 598l12 102h180q101 0 150 -44t49 -114q0 -56 -38 -105t-93 -68v-2q51 -15 79 -49t28 -83q0 -107 -77 -171 t-194 -64h-201z"/>
<glyph glyph-name="afii10020" horiz-adv-x="516" unicode="Г" d="M52 0l105 598l12 102h393l-19 -80q-40 5 -83 6l-199 3l-95 -536l-11 -93h-103z"/>
<glyph glyph-name="afii10021" horiz-adv-x="699" unicode="Д" d="M335 628q-43 -196 -90 -328t-121 -228h307l98 556h-194zM-66 -206l41 278h46q85 93 139 243t106 385h375l-112 -628h93l-32 -182l-13 -90l-86 -6l30 206h-472l-19 -110l-13 -90z"/>
<glyph glyph-name="afii10022" horiz-adv-x="560" unicode="Е" d="M52 0l105 598l12 102h403l-19 -79q-35 5 -91 6l-201 3l-42 -240l249 5l-20 -86l-242 8l-44 -246l215 4l86 5l-19 -80h-392z"/>
<glyph glyph-name="afii10024" horiz-adv-x="888" unicode="Ж" d="M346 0l57 324h-48l-280 -329l-126 5q42 38 81 83l260 295q-120 228 -154 321l98 4q39 -116 126 -310h55l36 205l12 103l101 3l-55 -311h56q183 208 245 310l101 -4q-90 -131 -282 -334l152 -284q11 -20 25 -40t20 -31l8 -10l-112 -5l-172 329h-54l-40 -231l-11 -93h-99z "/>
<glyph glyph-name="afii10025" horiz-adv-x="494" unicode="З" d="M153 67q81 -1 123 41t41 109q0 53 -32 81t-88 28h-52l6 73h58q67 0 105 37t38 102q0 46 -22 74t-71 28q-25 0 -47 -5t-48 -14q-28 -9 -48 -14l-18 75q18 3 52 12t62 14t55 5q95 0 141 -48t47 -114q1 -72 -37 -120t-101 -66v-3q101 -29 101 -136q0 -96 -74 -166t-192 -70 q-42 0 -78 6t-52 12l-15 7l12 75q57 -23 134 -23z"/>
<glyph glyph-name="afii10026" horiz-adv-x="717" unicode="И" d="M51 0l106 598l11 103l106 5l-85 -477q-10 -52 -19 -81h5q19 35 45 68l371 485l95 5l-109 -613l-11 -93h-103l86 478l18 74h-5q-21 -34 -44 -64l-374 -488h-93z"/>
<glyph glyph-name="afii10027" horiz-adv-x="717" unicode="Й" d="M51 0l106 598l11 103l106 5l-85 -477q-10 -52 -19 -81h5q19 35 45 68l371 485l95 5l-109 -613l-11 -93h-103l86 478l18 74h-5q-21 -34 -44 -64l-374 -488h-93zM452 783q-57 0 -101 21t-68 51l63 63q8 -8 22 -24t24 -24q9 -8 26 -16t38 -7q24 1 41 9t42 31t34 30l45 -62 q-82 -72 -166 -72z"/>
<glyph glyph-name="afii10028" horiz-adv-x="599" unicode="К" d="M52 0l105 598l12 103l105 5l-54 -305h48q82 89 133 149t68 82t49 68h101q-92 -122 -291 -329l168 -290q10 -20 24 -40t22 -31l7 -10l-115 -5l-184 334h-43l-41 -236l-11 -93h-103z"/>
<glyph glyph-name="afii10029" horiz-adv-x="660" unicode="Л" d="M257 700h371l-107 -607q-3 -19 -7 -43t-5 -37l-1 -13h-103l111 626h-195q-27 -123 -47 -207q-20 -83 -45 -163t-50 -128t-56 -82q-31 -36 -68 -46q-19 -5 -40 -5q-20 0 -42 5l-2 79q8 -1 16 -1q45 0 81 39q42 45 90 185q46 140 99 398z"/>
<glyph glyph-name="afii10030" horiz-adv-x="842" unicode="М" d="M394 170h-13l-127 292q-8 18 -15 38t-10 30l-3 11h-5q-5 -50 -9 -75l-67 -383l-10 -83h-83l104 587l14 114l81 3l139 -328l26 -75h6q19 39 46 75l246 325l96 3l-107 -611l-12 -93h-100l85 483l17 78h-5q-23 -38 -52 -76z"/>
<glyph glyph-name="afii10031" horiz-adv-x="717" unicode="Н" d="M463 0l58 325h-314l-41 -232l-12 -93h-103l106 598l12 103l105 5l-54 -307h314l35 199l12 103l105 5l-108 -613l-12 -93h-103z"/>
<glyph glyph-name="afii10032" horiz-adv-x="713" unicode="О" d="M292 -10q-88 0 -144 50t-74 128q-9 40 -10 85q0 41 8 84q30 171 126 272t244 101q66 0 116 -32t73 -80q24 -50 34 -112q4 -27 4 -54q0 -35 -7 -69q-30 -171 -126 -272t-244 -101zM315 60q89 0 154 79t86 199q9 40 9 81q0 14 -1 27q-4 54 -18 97t-47 70t-81 27 q-89 0 -153 -79t-85 -199q-9 -42 -9 -84v-24q4 -54 17 -97t47 -70t81 -27z"/>
<glyph glyph-name="afii10033" horiz-adv-x="707" unicode="П" d="M52 0l105 597l12 103h506l-107 -607l-11 -93h-103l111 626h-304l-95 -533l-11 -93h-103z"/>
<glyph glyph-name="afii10034" horiz-adv-x="582" unicode="Р" d="M261 628l-53 -298h80q86 0 134 44t49 127q0 61 -39 94t-113 33h-58zM286 257h-91l-29 -164l-11 -93h-103l105 598l12 102h176q110 0 169 -51t59 -136q0 -113 -82 -185t-205 -71z"/>
<glyph glyph-name="afii10035" horiz-adv-x="566" unicode="С" d="M409 635q-65 1 -121 -51t-87 -130t-31 -157q0 -227 171 -227q34 0 67 5t48 9l16 5l5 -70q-49 -29 -153 -29q-124 0 -192 75t-68 210q0 109 50 211t133 164q84 62 179 63q31 0 59 -7q28 -6 57 -18t45 -16l-28 -77q-17 4 -62 22t-88 18z"/>
<glyph glyph-name="afii10036" horiz-adv-x="551" unicode="Т" d="M172 0l115 629l-102 -2l-104 -5l18 78h501l-18 -78q-37 4 -88 5l-109 2l-99 -536l-11 -93h-103z"/>
<glyph glyph-name="afii10037" horiz-adv-x="548" unicode="У" d="M207 0h-99q35 63 109 166l-111 431l-32 103l104 3l78 -313l25 -122l6 -1q24 61 56 119l86 155q25 43 43 83t25 58l7 18h93q-33 -84 -116 -225l-165 -283z"/>
<glyph glyph-name="afii10038" horiz-adv-x="795" unicode="Ф" d="M153 324q-1 -70 41 -116t127 -47l86 408q-119 -1 -187 -69t-67 -176zM666 406q0 70 -42 116t-127 47l-87 -408q120 1 188 70t68 175zM422 639l14 86l95 5l-19 -91q120 -1 188 -61t67 -157q1 -150 -97 -240t-275 -90l-2 -10l-15 -93h-93l21 103q-120 1 -187 61t-67 157 q0 151 96 241t274 89z"/>
<glyph glyph-name="afii10039" horiz-adv-x="602" unicode="Х" d="M416 -5l-121 289l-129 -163l-93 -126l-102 10q55 79 132 168l161 187l-97 234l-49 106l108 5l113 -274l103 133q24 32 45 66t31 52l9 18l102 1q-33 -72 -113 -169l-146 -177l107 -259l44 -96z"/>
<glyph glyph-name="afii10040" horiz-adv-x="744" unicode="Ц" d="M51 0l105 598q4 22 8 48t5 40l1 15l105 5l-112 -632h314l91 524q4 22 8 48t5 40l1 15l105 5l-112 -632h93l-33 -184l-12 -90l-86 -6l29 206h-515z"/>
<glyph glyph-name="afii10041" horiz-adv-x="616" unicode="Ч" d="M362 0l55 309q-52 -24 -138 -24q-110 -1 -163 61q-36 41 -36 111q0 34 9 75l14 66q5 22 7 48t4 40v15l106 5l-34 -185q-4 -25 -4 -46q0 -47 20 -75q30 -42 119 -41q63 0 108 16l39 223q4 22 7 48t3 40l1 15l106 5l-109 -613l-11 -93h-103z"/>
<glyph glyph-name="afii10042" horiz-adv-x="977" unicode="Ш" d="M51 0l106 598l11 103l106 5l-113 -632h238l94 524l11 103l106 5l-113 -632h238l94 524l11 103l106 5l-109 -613l-11 -93h-775z"/>
<glyph glyph-name="afii10043" horiz-adv-x="1004" unicode="Щ" d="M51 0l105 598q4 22 8 48t5 40l1 15l105 5l-112 -632h238l91 524q4 22 8 48t5 40l1 15l105 5l-112 -632h238l91 524q4 22 8 48t5 40l1 15l105 5l-112 -632h93l-33 -184l-12 -90l-86 -6l29 206h-775z"/>
<glyph glyph-name="afii10044" horiz-adv-x="670" unicode="Ъ" d="M373 358h-60l-50 -283h57q91 -1 146 43q52 41 52 111v8q-2 65 -38 93t-107 28zM81 618l5 82h287l-47 -267h77q100 1 157 -45t60 -139v-9q0 -103 -84 -170q-88 -70 -213 -70h-170l110 630l-102 -4z"/>
<glyph glyph-name="afii10045" horiz-adv-x="830" unicode="Ы" d="M576 0l106 598l12 103l105 5l-108 -613l-12 -93h-103zM282 358h-70l-50 -283h78q82 0 130 43t49 119q0 59 -37 90t-100 31zM273 705l-48 -272h66q107 0 167 -48t61 -141q-1 -112 -83 -178t-198 -66h-186l105 598q5 22 7 48t3 40l1 14z"/>
<glyph glyph-name="afii10046" horiz-adv-x="569" unicode="Ь" d="M282 358h-70l-50 -283h78q82 0 130 43t49 119q0 59 -37 90t-100 31zM273 705l-48 -272h66q107 0 167 -48t61 -141q-1 -112 -83 -178t-198 -66h-186l105 598q5 22 7 48t3 40l1 14z"/>
<glyph glyph-name="afii10047" horiz-adv-x="568" unicode="Э" d="M157 395l259 -5q1 8 1 24q0 98 -35 162t-114 64q-24 0 -46 -5t-50 -14t-47 -14l-18 75q17 3 51 12t62 14t56 5q117 0 181 -84t64 -210q-1 -77 -25 -153t-69 -137q-45 -63 -116 -101t-156 -38q-47 0 -85 6t-54 12l-16 7l20 85q69 -31 145 -31q81 -1 151 67t92 183l-256 -9 z"/>
<glyph glyph-name="afii10048" horiz-adv-x="976" unicode="Ю" d="M586 60q86 0 148 78t83 200q10 43 10 86q0 11 -1 22q-2 54 -16 97t-50 70t-88 27q-86 0 -148 -78t-83 -200q-10 -43 -10 -86q0 -11 1 -22q2 -54 16 -97t50 -70t88 -27zM554 -10q-128 0 -186 98q-42 72 -42 166q0 34 6 71h-125l-41 -232l-12 -93h-103l106 598l12 103 l105 5l-54 -307h128q39 143 130 227t226 84q88 0 144 -50t74 -128q9 -40 10 -85q0 -41 -8 -84q-30 -171 -126 -272t-244 -101z"/>
<glyph glyph-name="afii10049" horiz-adv-x="607" unicode="Я" d="M209 462q0 -66 39 -100t105 -33h57l53 296h-67q-88 0 -138 -45t-49 -118zM457 0l-105 -5l46 262h-73l-36 2l-188 -259h-119q36 37 66 77l158 205q-98 49 -98 162q0 116 82 186t204 70h180l-105 -598z"/>
<glyph glyph-name="afii10065" horiz-adv-x="539" unicode="а" d="M182 67q18 1 48 19t101 74l52 245q-22 43 -72 43q-73 0 -127 -107q-47 -94 -46 -189q2 -83 44 -85zM498 500l-88 -412l-15 -88h-88l8 84q-65 -58 -102 -76t-71 -18q-77 0 -99 89q-8 31 -8 66q0 69 31 149q50 131 143 186q50 30 105 30q66 0 114 -39l49 35z"/>
<glyph glyph-name="afii10066" horiz-adv-x="554" unicode="б" d="M166 196q0 -78 20 -111t66 -33q38 0 68 28t44 70t22 84t8 78q0 72 -20 104t-65 32q-38 0 -67 -26t-45 -65q-15 -40 -23 -81t-8 -80zM494 323q0 -61 -16 -119t-45 -106t-79 -78t-111 -30q-83 0 -131 53t-47 156q0 88 37 225q23 86 58 146t71 90t82 48q45 18 83 22t83 13 q45 8 72 18v-81q-22 -10 -59 -18q-38 -8 -72 -12t-76 -19t-75 -39t-65 -74t-52 -121l5 -1q25 54 69 84t96 30q78 0 125 -50t47 -137z"/>
<glyph glyph-name="afii10067" horiz-adv-x="488" unicode="в" d="M343 399q0 48 -47 48q-48 0 -88 -52t-58 -128l119 20q74 46 74 112zM222 54q38 0 64 30t27 76q0 65 -70 65q-17 0 -103 -14q-2 -30 -2 -43q0 -114 84 -114zM206 -10q-164 0 -164 173q0 139 78 243t202 104q115 0 115 -102q0 -52 -37 -88t-86 -52v-4q92 -5 92 -90 q0 -80 -64 -132t-136 -52z"/>
<glyph glyph-name="afii10068" horiz-adv-x="407" unicode="г" d="M294 300l-73 -73t-71 -72q-25 -26 -26 -50q0 -33 37 -33q32 0 77 22t85 65l-3 -69q-100 -98 -191 -98q-43 0 -69 23q-26 22 -26 59q0 63 61 126q23 24 71 71t68 69q29 29 30 56q0 14 -10 22t-26 8q-67 0 -160 -87l3 69q100 98 201 98q40 0 64 -22q23 -21 22 -59 q0 -58 -64 -125z"/>
<glyph glyph-name="afii10069" horiz-adv-x="542" unicode="д" d="M226 52q63 0 104 80t41 198q0 95 -75 95q-68 0 -108 -81t-40 -184q0 -108 78 -108zM291 490q72 0 101 -54q-10 99 -48 159t-104 113l40 48q98 -62 148 -150t50 -219q0 -50 -8 -101q-8 -52 -26 -106q-20 -54 -48 -96t-76 -68t-107 -26q-82 0 -124 47t-42 130q0 79 29 152 q28 73 86 122t129 49z"/>
<glyph glyph-name="afii10070" d="M286 444q-47 0 -81 -47t-51 -121l67 25q71 27 93 47q23 20 22 51q0 18 -13 31q-14 14 -37 14zM380 70q-104 -80 -186 -80q-74 0 -114 53q-38 49 -38 130v12q6 137 84 231t185 94q63 0 97 -30q32 -28 31 -75v-6q-2 -48 -39 -80t-130 -64l-126 -43q-2 -22 -2 -31v-9 q0 -54 24 -78q26 -26 64 -27q57 0 150 65v-62z" unicode="е"/>
<glyph glyph-name="afii10072" horiz-adv-x="822" unicode="ж" d="M425 160l-14 -67l-15 -93h-87l54 257l-154 -190q-69 -77 -135 -77q-16 0 -28 2t-29 5q-18 4 -31 6l17 81q20 -4 42 -16t40 -11q41 1 83 83t42 187q0 53 -16 82t-38 29q-26 0 -78 -45v58q64 59 120 59q44 0 68 -36t25 -99q0 -108 -52 -209l143 182l11 49l16 103l89 5 l-56 -262l155 190q63 77 135 77q16 0 28 -2t29 -5q18 -4 31 -6l-17 -81q-20 4 -42 16t-40 11q-41 -1 -83 -83t-42 -187q0 -55 14 -83t35 -28q31 0 83 45v-58q-64 -59 -120 -59q-44 0 -68 36t-25 102q0 94 51 205z"/>
<glyph glyph-name="afii10073" horiz-adv-x="416" unicode="з" d="M124 59q54 -1 82 25t28 65q0 77 -72 77h-51v65h68q41 1 65 27t24 64q0 28 -14 46t-41 18q-21 0 -57 -14t-66 -20l-19 75q13 3 62 13t82 10q69 0 109 -34t40 -87q0 -43 -30 -81t-80 -48l-1 -3q37 -7 57 -35t21 -66q0 -72 -53 -119t-136 -47q-42 0 -79 8t-53 16l-16 9 l15 63q52 -27 115 -27z"/>
<glyph glyph-name="afii10074" horiz-adv-x="532" unicode="и" d="M123 500h98l-77 -364q-3 -16 -3 -28q0 -24 13 -32q6 -3 14 -3q19 0 49 20l107 69l73 338h94l-90 -423l-13 -77l-89 -1l8 87l-103 -70q-37 -26 -72 -26q-54 0 -74 41q-12 25 -12 58q0 22 5 47l58 276z"/>
<glyph glyph-name="afii10075" horiz-adv-x="532" unicode="й" d="M123 500h98l-77 -364q-3 -16 -3 -28q0 -24 13 -32q6 -3 14 -3q19 0 49 20l107 69l73 338h94l-90 -423l-13 -77l-89 -1l8 87l-103 -70q-37 -26 -72 -26q-54 0 -74 41q-12 25 -12 58q0 22 5 47l58 276zM333 597q-57 0 -101 21t-68 51l63 63q9 -8 23 -24t23 -24t26 -16 t38 -7q24 1 41 9t42 31t34 30l45 -62q-82 -72 -166 -72z"/>
<glyph glyph-name="afii10076" d="M411 0l-106 -5l-135 248l-31 -150l-15 -93h-98l84 397l16 103l100 5l-53 -248q155 157 220 243h99q-148 -175 -224 -244l86 -160z" unicode="к"/>
<glyph glyph-name="afii10077" horiz-adv-x="536" unicode="л" d="M294 0l92 434h-122q-63 -265 -125 -362q-49 -77 -123 -77q-19 0 -40 5v80q7 -1 13 -1q63 0 104 82q45 90 108 339h292l-88 -417l-13 -83h-98z"/>
<glyph glyph-name="afii10078" horiz-adv-x="696" unicode="м" d="M97 0h-77l121 500l95 5l86 -323l239 318l90 5l-81 -412l-13 -93h-96l57 283l27 97h-7q-26 -46 -57 -87l-190 -253h-15l-69 250l-22 99h-6q-8 -58 -18 -100l-46 -192z"/>
<glyph glyph-name="afii10079" horiz-adv-x="540" unicode="н" d="M298 0l47 221h-179l-27 -128l-15 -93h-98l84 397l16 103l100 5l-46 -218h179l23 110l16 103l100 5l-87 -412l-15 -93h-98z"/>
<glyph glyph-name="afii10080" horiz-adv-x="527" unicode="о" d="M469 336q0 -58 -17 -117q-16 -59 -48 -111t-86 -85t-118 -33q-74 0 -116 46t-42 131q0 79 28 155t92 132t149 56q74 0 116 -46t42 -128zM295 448q-42 0 -73 -30t-47 -76q-15 -46 -23 -91t-8 -88q0 -61 17 -86t57 -25q36 0 64 24t44 56q16 34 25 76q10 42 13 74t3 59 q-1 55 -17 81t-55 26z"/>
<glyph glyph-name="afii10081" horiz-adv-x="532" unicode="п" d="M394 0h-98l77 364q3 16 3 28q0 24 -13 32q-6 3 -14 3q-19 0 -49 -20l-108 -70l-72 -337h-94l90 423l13 77l99 3l-19 -90l104 71q37 26 72 26q54 0 74 -41q12 -25 12 -58q0 -22 -5 -47l-58 -276z"/>
<glyph glyph-name="afii10082" horiz-adv-x="541" unicode="р" d="M344 429q-20 0 -51 -18t-100 -73l2 13l-54 -251q22 -48 74 -48q74 0 126 108q46 93 45 187q-2 81 -42 82zM122 12l-38 -174l-15 -88h-98l145 670l13 77l99 3l-19 -86q66 60 104 78t76 18q72 0 93 -87q7 -31 7 -65q0 -68 -29 -150q-49 -132 -142 -188q-50 -30 -106 -30 q-48 0 -90 22z"/>
<glyph glyph-name="afii10083" horiz-adv-x="455" unicode="с" d="M297 441q-65 1 -109 -79t-44 -181q0 -61 24 -87t59 -27q58 0 147 65v-62q-103 -80 -174 -80q-76 0 -116 52t-40 143q0 135 79 230t177 95q24 0 46 -5t47 -15t36 -12l-31 -81q-19 6 -50 25t-51 19z"/>
<glyph glyph-name="afii10084" horiz-adv-x="779" unicode="т" d="M641 0h-97l77 364q3 16 3 28q0 24 -14 32q-6 3 -13 3q-19 0 -50 -20l-93 -60l-54 -259l-14 -88h-98l76 364q3 16 3 28q1 24 -13 32q-6 3 -14 3q-19 0 -50 -20l-97 -63l-74 -344h-93l90 423l13 77l98 3l-18 -83l94 64q37 26 72 26q43 0 65 -24t23 -68l97 66q37 26 72 26 q54 0 74 -41q12 -25 12 -58q0 -22 -5 -47l-58 -276z"/>
<glyph glyph-name="afii10085" horiz-adv-x="483" unicode="у" d="M244 -3q-12 -13 -44 -51t-46 -56q-14 -16 -40 -46t-51 -54q-24 -24 -50 -49l-63 69q34 30 108 88t105 89l-90 428l-20 85l97 5l85 -432q106 158 106 405v22h93v-21q0 -257 -190 -482z"/>
<glyph glyph-name="afii10086" horiz-adv-x="760" unicode="ф" d="M166 71q43 0 141 79l53 255q-22 43 -67 43t-84 -53t-59 -121t-19 -126q0 -77 35 -77zM571 429q-27 0 -55 -13t-75 -46l-56 -276q22 -42 71 -42q41 0 78 51q36 51 56 119t20 125q0 82 -39 82zM570 695q-61 0 -83 -104l-31 -149q98 68 157 68q47 0 70 -42t23 -108 q0 -80 -30 -164t-89 -144q-60 -62 -134 -62q-49 0 -84 29l-36 -177l-14 -93h-95l67 325q-49 -44 -87 -64t-81 -20t-65 39t-21 103q1 59 19 124q18 64 50 122t84 95q51 37 110 37q44 0 76 -29l19 91q39 188 184 188q25 0 43 -2t38 -8q20 -4 36 -6l-24 -80q-22 4 -51 18 t-51 13z"/>
<glyph glyph-name="afii10087" horiz-adv-x="493" unicode="х" d="M184 505l78 -195l60 81q22 31 40 59t24 38l6 12h106q-37 -66 -124 -158l-87 -92l70 -174l36 -76l-101 -5l-80 197l-44 -61q-28 -39 -49 -73t-28 -48l-7 -14l-105 6q39 69 127 161l83 86l-68 168q-7 21 -17 41l-16 32l-5 10z"/>
<glyph glyph-name="afii10088" horiz-adv-x="559" unicode="ц" d="M399 0h-100l10 87l-105 -71q-37 -26 -72 -26q-54 0 -74 41q-12 25 -12 58q0 22 5 47l58 276l14 88h98l-77 -364q-3 -16 -3 -28q0 -24 13 -32q6 -3 14 -3q19 0 49 20l108 69l72 338h94l-93 -438h101l-25 -97l-32 -130l-73 -2z"/>
<glyph glyph-name="afii10089" horiz-adv-x="501" unicode="ч" d="M357 0l-99 -3l55 256l-104 -70q-37 -26 -72 -26q-54 0 -74 41q-12 25 -12 58q0 22 5 47l22 109l14 88h98l-41 -197q-3 -16 -3 -28q0 -23 13 -31q6 -3 14 -4q19 0 49 20l107 69l37 171h94l-90 -423z"/>
<glyph glyph-name="afii10090" horiz-adv-x="787" unicode="ш" d="M643 0h-89l9 82l-97 -66q-37 -26 -72 -26q-42 0 -64 26t-23 70l-103 -70q-37 -26 -72 -26q-54 0 -74 41q-12 25 -12 58q0 22 5 47l58 276l14 88h98l-77 -364q-3 -16 -3 -28q0 -24 13 -32q6 -3 14 -3q19 0 49 20l100 65l54 254l14 88h98l-77 -364q-3 -16 -3 -28 q0 -24 13 -32q6 -3 14 -3q19 0 49 20l100 64l73 343h94l-90 -423z"/>
<glyph glyph-name="afii10091" horiz-adv-x="814" unicode="щ" d="M623 -167l30 167h-99l8 81l-96 -65q-37 -26 -72 -26q-42 0 -64 26t-23 70l-103 -70q-37 -26 -72 -26q-54 0 -74 41q-12 25 -12 58q0 22 5 47l58 276l14 88h98l-77 -364q-3 -16 -3 -28q0 -24 13 -32q6 -3 14 -3q19 0 49 20l100 65l54 254l14 88h98l-77 -364q-3 -16 -3 -28 q0 -24 13 -32q6 -3 14 -3q19 0 49 20l99 64l74 343h94l-93 -438h100l-25 -97l-32 -130z"/>
<glyph glyph-name="afii10092" horiz-adv-x="543" unicode="ъ" d="M294 258l-50 -23l-9 -40q-10 -48 -10 -79q-1 -18 3 -30q10 -34 50 -34q46 0 80 42t34 102q0 48 -27 65q-12 8 -28 8q-19 0 -43 -11zM145 215l6 26q20 85 69 198l-100 -4l-70 -6l6 71h244v-21q-29 -109 -43 -180l53 24q36 13 71 13h9q39 -2 67 -34t28 -83q1 -97 -65 -163 t-155 -66q-79 0 -113 54q-19 30 -19 80q0 39 12 91z"/>
<glyph glyph-name="afii10093" horiz-adv-x="683" unicode="ы" d="M214 258l-50 -23l-18 -87q-4 -21 -4 -37q0 -59 56 -59q46 0 80 42t34 102q0 48 -27 65q-12 8 -28 8q-19 0 -43 -11zM441 0l84 397l16 103l100 5l-87 -412l-15 -93h-98zM53 160l52 237l16 103l100 5l-43 -205l52 23q30 13 61 13q1 0 3 1q30 1 54 -11q26 -12 41 -40 q16 -28 16 -67q1 -97 -65 -163t-155 -66q-78 0 -114 43q-24 29 -24 76q0 23 6 51z"/>
<glyph glyph-name="afii10094" horiz-adv-x="463" unicode="ь" d="M214 258l-50 -23l-18 -87q-4 -21 -4 -37q0 -59 56 -59q46 0 80 42t34 102q0 48 -27 65q-12 8 -28 8q-19 0 -43 -11zM53 160l52 237l16 103l100 5l-43 -205l52 23q30 13 61 13q1 0 3 1q30 1 54 -11q26 -12 41 -40q16 -28 16 -67q1 -97 -65 -163t-155 -66q-78 0 -114 43 q-24 29 -24 76q0 23 6 51z"/>
<glyph glyph-name="afii10095" horiz-adv-x="447" unicode="э" d="M139 57q47 0 85 44t54 115l-181 -8v83l190 -7v13q0 143 -81 143q-20 0 -54 -14t-62 -20l-19 80q19 2 65 13t72 11q92 0 136 -54t43 -149q0 -73 -30 -145q-29 -72 -89 -122t-134 -50q-38 0 -72 8t-50 16l-16 9l29 79q57 -45 114 -45z"/>
<glyph glyph-name="afii10096" horiz-adv-x="743" unicode="ю" d="M511 448q-42 0 -73 -30t-47 -76q-15 -46 -23 -91t-8 -88q0 -61 17 -86t57 -25q44 0 76 35t47 87t21 94t7 73q0 57 -17 82t-57 25zM685 336q0 -58 -17 -117q-16 -59 -48 -111t-86 -85t-118 -33q-74 0 -116 46t-42 131q0 25 3 54h-95l-27 -128l-15 -93h-98l84 397l16 103 l100 5l-46 -218h95q28 95 93 159t159 64q74 0 116 -46t42 -128z"/>
<glyph glyph-name="afii10097" horiz-adv-x="514" unicode="я" d="M173 324q-1 -44 25 -68t70 -24h53l43 202h-67q-52 0 -88 -32t-36 -78zM272 0l35 166h-37q-24 0 -50 4l-121 -170h-111l156 204q-34 14 -53 42t-19 65q0 89 72 139t176 50h152l-87 -407l-15 -93h-98z"/>
<glyph glyph-name="afii10071" d="M286 444q-47 0 -81 -47t-51 -121l67 25q71 27 93 47q23 20 22 51q0 18 -13 31q-14 14 -37 14zM380 70q-104 -80 -186 -80q-74 0 -114 53q-38 49 -38 130v12q6 137 84 231t185 94q63 0 97 -30q32 -28 31 -75v-6q-2 -48 -39 -80t-130 -64l-126 -43q-2 -22 -2 -31v-9 q0 -54 24 -78q26 -26 64 -27q57 0 150 65v-62zM403 589q-23 0 -39 16t-16 42q0 25 16 45t48 20q26 0 40 -16t15 -40q1 -28 -17 -48t-47 -19zM210 589q-24 0 -40 16t-15 42q1 25 17 45t47 20q27 0 41 -16t14 -40q0 -28 -17 -48t-47 -19z" unicode="ё"/>
<glyph glyph-name="afii10099" horiz-adv-x="532" unicode="ђ" d="M466 364l-75 -363q-11 -47 -35 -86t-46 -58t-59 -45q-36 -26 -50 -40l-44 54q13 12 39 32t42 34t34 44t27 73l74 355q3 16 3 28q0 24 -13 32q-6 3 -14 3q-19 0 -49 -20l-108 -70l-72 -337h-94l120 569h-95v64h109l8 37l13 77l99 3l-25 -117h130v-64h-144l-33 -156l105 71 q37 26 72 26q54 0 74 -41q12 -25 12 -58q0 -22 -5 -47z"/>
<glyph glyph-name="afii10100" horiz-adv-x="407" unicode="ѓ" d="M233 586l-32 48l188 151l55 -79zM294 300l-73 -73t-71 -72q-25 -26 -26 -50q0 -33 37 -33q32 0 77 22t85 65l-3 -69q-100 -98 -191 -98q-43 0 -69 23q-26 22 -26 59q0 63 61 126q23 24 71 71t68 69q29 29 30 56q0 14 -10 22t-26 8q-67 0 -160 -87l3 69q100 98 201 98 q40 0 64 -22q23 -21 22 -59q0 -58 -64 -125z"/>
<glyph glyph-name="afii10101" horiz-adv-x="456" unicode="є" d="M297 441q-47 -1 -84 -45t-56 -113l171 18v-83l-183 -1q-1 -12 -1 -36q0 -61 24 -87t59 -27q58 0 147 65v-62q-103 -80 -174 -80q-76 0 -116 52t-40 143q0 135 79 230t177 95q24 0 46 -5t47 -15t36 -12l-31 -81q-19 6 -50 25t-51 19z"/>
<glyph glyph-name="afii10102" horiz-adv-x="420" unicode="ѕ" d="M164 -8q-32 0 -59 3t-58 9t-48 7l25 82q20 -1 64 -15t80 -14t56 18t20 48q0 24 -16 46t-40 39t-48 36t-40 49t-16 67q0 63 40 103t113 40q23 0 45 -4t32 -6t38 -11t37 -12l-31 -81q-23 6 -60 23t-66 17q-27 0 -43 -16t-16 -43q1 -25 17 -46t40 -39t47 -36q25 -20 41 -51 t16 -70q0 -71 -47 -107t-123 -36z"/>
<glyph glyph-name="afii10103" horiz-adv-x="268" unicode="і" d="M199 601q-23 0 -39 16t-16 42q0 25 16 45t48 20q24 0 40 -16t15 -42t-17 -46t-47 -19zM129 500l99 3l-108 -503h-94l90 423z"/>
<glyph glyph-name="afii10104" horiz-adv-x="268" unicode="ї" d="M280 589q-24 0 -40 16t-15 42q1 25 17 45t47 20q27 0 41 -16t14 -40q0 -28 -18 -48t-46 -19zM87 589q-23 0 -39 16t-16 42q0 25 16 45t48 20q26 0 40 -16t15 -40q0 -28 -17 -48t-47 -19zM129 500l99 3l-108 -503h-94l90 423z"/>
<glyph glyph-name="afii10105" horiz-adv-x="268" unicode="ј" d="M198 601q-24 0 -40 16t-15 42q1 25 17 45t47 20q23 0 39 -16t16 -42t-16 -46t-48 -19zM227 505l-101 -479q-10 -51 -34 -94q-24 -44 -45 -66t-61 -61t-62 -62l-47 49q18 22 50 56q31 34 47 52t34 52t25 74l78 371l16 103z"/>
<glyph glyph-name="afii10106" horiz-adv-x="732" unicode="љ" d="M483 258l-50 -23l-18 -87q-4 -21 -4 -37q0 -59 56 -59q45 0 79 42t35 102q1 48 -27 65q-13 8 -29 8q-19 0 -42 -11zM322 160l60 274h-122q-58 -261 -120 -360q-50 -79 -123 -79q-19 0 -39 5v80q7 -1 13 -1q63 -1 101 81q42 90 97 340h300l-42 -200l52 23q30 13 61 13 q1 0 3 1q29 1 53 -11q26 -12 42 -40t16 -67q0 -97 -66 -163t-154 -66q-78 0 -114 43q-24 29 -24 76q0 23 6 51z"/>
<glyph glyph-name="afii10107" horiz-adv-x="740" unicode="њ" d="M491 258l-50 -23l-18 -87q-4 -21 -4 -37q0 -59 56 -59q45 0 79 42t35 102q1 48 -27 65q-13 8 -29 8q-19 0 -42 -11zM330 160l13 61h-177l-27 -128l-15 -93h-98l84 397l16 103l100 5l-46 -218h178l24 110l16 103l100 5l-43 -205l52 23q30 13 61 13q1 0 3 1q29 1 53 -11 q26 -12 42 -40t16 -67q0 -97 -66 -163t-154 -66q-78 0 -114 43q-24 29 -24 76q0 23 6 51z"/>
<glyph glyph-name="afii10108" horiz-adv-x="532" unicode="ћ" d="M394 0h-98l77 364q3 16 3 28q0 24 -13 32q-6 3 -14 3q-19 0 -49 -20l-108 -70l-72 -337h-94l120 569h-95v64h109l8 37l13 77l99 3l-25 -117h130v-64h-144l-33 -156l105 71q37 26 72 26q54 0 74 -41q12 -25 12 -58q0 -22 -5 -47l-58 -276z"/>
<glyph glyph-name="afii10109" d="M299 589l-32 48l188 151l55 -79zM411 0l-106 -5l-135 248l-31 -150l-15 -93h-98l84 397l16 103l100 5l-53 -248q155 157 220 243h99q-148 -175 -224 -244l86 -160z" unicode="ќ"/>
<glyph glyph-name="afii10110" horiz-adv-x="483" unicode="ў" d="M244 -3q-12 -13 -44 -51t-46 -56q-14 -16 -40 -46t-51 -54q-24 -24 -50 -49l-63 69q34 30 108 88t105 89l-90 428l-20 85l97 5l85 -432q106 158 106 405v22h93v-21q0 -257 -190 -482zM264 597q-57 0 -101 21t-68 51l63 63q8 -8 22 -24t24 -24q9 -8 26 -16t38 -7 q24 1 41 9t42 31t34 30l45 -62q-82 -72 -166 -72z"/>
<glyph glyph-name="afii10193" horiz-adv-x="532" unicode="џ" d="M123 500h98l-77 -364q-3 -16 -3 -28q0 -24 13 -32q6 -3 14 -3q19 0 49 20l107 69l73 338h94l-90 -423l-13 -77l-89 -1l8 87l-103 -70q-37 -26 -72 -26q-54 0 -74 41q-12 25 -12 58q0 22 5 47l58 276zM161 -237h-56q15 20 21 56t18 75t44 72l55 -1q-14 -19 -17 -53 t-15 -74q-12 -39 -50 -75z"/>
<glyph glyph-name="afii10050" horiz-adv-x="495" unicode="Ґ" d="M498 843h69l-45 -225l-262 9l-94 -534l-12 -93h-103l106 598l12 102h289z"/>
<glyph glyph-name="afii10098" horiz-adv-x="406" unicode="ґ" d="M375 634h79l-56 -217l-189 5l-72 -339l-13 -83h-98l85 397l15 103h210l14 40z"/>
<glyph glyph-name="thinspace" horiz-adv-x="40" unicode=" "/>
<glyph glyph-name="endash" horiz-adv-x="672" unicode="–" d="M80 259v74h511v-74h-511z"/>
<glyph glyph-name="emdash" horiz-adv-x="858" unicode="—" d="M84 262v74h691v-74h-691z"/>
<glyph glyph-name="quoteleft" horiz-adv-x="255" unicode="‘" d="M229 717l38 -42q-73 -56 -101 -140q26 1 42 -13t16 -42t-20 -50t-50 -23q-66 0 -66 76q0 52 40 121t101 113z"/>
<glyph glyph-name="quotesinglbase" horiz-adv-x="263" unicode="‚" d="M17 -197l-38 42q73 56 101 140q-26 -1 -42 13t-16 42t20 50t50 23q66 0 66 -76q0 -52 -40 -121t-101 -113z"/>
<glyph glyph-name="quotedblleft" horiz-adv-x="459" unicode="“" d="M433 717l38 -42q-73 -56 -101 -140q26 1 42 -13t16 -42t-20 -50t-50 -23q-66 0 -66 76q0 52 40 121t101 113zM229 717l38 -42q-73 -56 -101 -140q26 1 42 -13t16 -42t-20 -50t-50 -23q-66 0 -66 76q0 52 40 121t101 113z"/>
<glyph glyph-name="quotedblright" horiz-adv-x="456" unicode="”" d="M119 407l-38 42q73 56 101 140q-26 -1 -42 13t-16 42t20 50t50 23q66 0 66 -76q0 -52 -40 -121t-101 -113zM323 407l-38 42q73 56 101 140q-26 -1 -42 13t-16 42t20 50t50 23q66 0 66 -76q0 -52 -40 -121t-101 -113z"/>
<glyph glyph-name="dagger" horiz-adv-x="541" unicode="†" d="M71 500l194 -5l42 220h93l-52 -220l196 5l-15 -74l-194 5l-130 -634l-53 -47l-40 47l140 634l-196 -5z"/>
<glyph glyph-name="daggerdbl" horiz-adv-x="595" unicode="‡" d="M475 -35l-199 4l-38 -219h-88l45 219l-197 -4l14 74l196 -4l31 190l50 207l-203 -6l14 74l201 -6l36 221h88l-49 -221l202 6l-14 -74l-200 6l-31 -207l-45 -190l201 4z"/>
<glyph glyph-name="ellipsis" horiz-adv-x="772" unicode="…" d="M598 -15q-29 -1 -47 17t-18 46q-1 30 19 46t52 16q30 0 47 -16t17 -44q0 -30 -19 -48t-51 -17zM343 -15q-29 -1 -47 17t-18 46q0 30 20 46t51 16q30 0 47 -16t17 -44q0 -30 -19 -48t-51 -17zM89 -15q-29 -1 -47 17t-18 46q0 30 20 46t51 16q30 0 47 -16t17 -44 q0 -30 -19 -48t-51 -17z"/>
<glyph glyph-name="perthousand" horiz-adv-x="1356" unicode="‰" d="M1082 -10q-72 0 -118 38t-46 112q0 90 58 156t162 67q78 -1 120 -43t43 -107q0 -97 -61 -160t-158 -63zM1091 53q53 -1 83 45t30 105q0 43 -19 70t-59 27q-53 0 -83 -47t-30 -108q0 -92 78 -92zM666 -10q-72 0 -118 38t-46 112q0 90 58 156t162 67q78 -1 120 -43t43 -107 q0 -97 -61 -160t-158 -63zM675 53q53 -1 83 45t30 105q0 43 -19 70t-59 27q-53 0 -83 -47t-30 -108q0 -92 78 -92zM275 0h-98l502 700h97zM240 341q-72 1 -118 39t-46 111q0 91 58 157t162 66q78 0 120 -42t43 -108q0 -97 -61 -160t-158 -63zM249 404q53 0 83 46t30 104 q0 43 -19 70t-59 27q-53 0 -83 -47t-30 -108q0 -92 78 -92z"/>
<glyph glyph-name="guilsinglleft" horiz-adv-x="364" unicode="‹" d="M22 283l275 226l51 -65l-233 -174l153 -221l-70 -49l-177 272z"/>
<glyph glyph-name="guilsinglright" horiz-adv-x="366" unicode="›" d="M329 225l-275 -226l-51 65l233 174l-153 221l70 49l177 -272z"/>
<glyph glyph-name="fraction" horiz-adv-x="384" unicode="⁄" d="M46 0h-83l396 701h82z"/>
<glyph glyph-name="Euro" horiz-adv-x="660" unicode="€" d="M492 635q-64 1 -118 -45t-86 -120h222l-13 -74h-233q-11 -50 -11 -96h227l-12 -74h-210q25 -156 166 -156q34 0 67 5t49 9l15 5l5 -70q-49 -29 -153 -29q-112 0 -179 62t-79 174h-82v74h80q3 48 15 96h-95v74h119q46 108 132 176t191 67q31 0 59 -7q28 -6 57 -18t45 -16 l-28 -77q-17 4 -62 22t-88 18z"/>
<glyph glyph-name="trademark" horiz-adv-x="811" unicode="™" d="M561 417h-14l-56 106q-9 13 -15 29t-9 25l-3 9l-2 -1q-2 -35 -9 -73l-13 -66l-9 -64h-68l45 230l11 88l71 4l68 -138l19 -47h2q13 21 32 44l114 137l76 4l-49 -250l-10 -72h-79l29 147l17 67l-3 1q-15 -22 -45 -59zM155 381l51 263l-106 -6l8 62h289l-15 -62l-100 6 l-37 -190l-11 -73h-79z"/>
<glyph glyph-name="arrowright" horiz-adv-x="792" unicode="→" d="M600 280l-4 3q-39 35 -74 83t-50 82l64 34q49 -90 143 -176l50 -46v-29l-50 -46q-94 -86 -143 -176l-64 34q16 33 50 81t72 82h-529v74h535z"/>
<glyph glyph-name="minus" horiz-adv-x="552" unicode="−" d="M88 253v64h371v-64h-371z"/>
<glyph glyph-name="radical" horiz-adv-x="657" unicode="√" d="M729 750l-404 -750l-96 -5l-73 434h-96v71h179l48 -299q4 -27 6 -57t2 -46v-16h4q23 56 55 117l287 551h88z"/>
<glyph glyph-name="infinity" horiz-adv-x="747" unicode="∞" d="M522 215q42 -1 62 23t20 58q0 63 -58 63q-55 0 -138 -73q21 -24 32 -36t33 -24t49 -11zM221 359q-41 1 -63 -23t-21 -58q0 -63 60 -63q59 0 137 71q-22 24 -32 36t-33 24t-48 13zM226 430q83 0 154 -95q91 95 182 95q50 0 84 -31t33 -85q0 -70 -45 -120t-117 -50 q-89 0 -154 92q-95 -92 -182 -92q-49 0 -83 31t-34 85q0 70 45 120t117 50z"/>
<glyph glyph-name="approxequal" horiz-adv-x="642" unicode="≈" d="M201 179q-29 1 -51 -15t-31 -32l-8 -16l-53 53q1 4 4 10q3 5 15 21t27 28t41 22t57 10q52 0 109 -32t95 -33q30 -1 52 15t30 32l8 16l53 -53q-1 -4 -4 -10q-3 -5 -15 -21t-27 -28t-41 -22t-57 -10q-53 0 -110 32t-94 33zM231 361q-29 1 -51 -15t-31 -32l-8 -16l-53 53 q1 4 4 10q3 5 15 21t27 28t41 22t57 10q52 0 109 -32t95 -33q30 -1 52 15t30 32l8 16l53 -53q-1 -4 -4 -10q-3 -5 -15 -21t-27 -28t-41 -22t-57 -10q-53 0 -110 32t-94 33z"/>
<glyph glyph-name="notequal" horiz-adv-x="551" unicode="≠" d="M68 342v74h254l99 150l58 -40l-73 -110h73v-74h-122l-76 -116h198v-74h-247l-106 -161l-58 39l80 122h-80v74h129l76 116h-205z"/>
<glyph glyph-name="lessequal" horiz-adv-x="503" unicode="≤" d="M49 60v74h324l-304 186v29l396 170l-23 -107l-227 -83l188 -101l-22 -99v-69h-332z"/>
<glyph glyph-name="greaterequal" horiz-adv-x="507" unicode="≥" d="M405 134v-74h-357v74h357zM48 134l20 102l226 83l-187 101l22 99l312 -191v-29z"/>
<glyph glyph-name="lozenge" horiz-adv-x="622" unicode="◊" d="M502 348l-137 224l-231 -229l138 -230zM28 338l2 11l353 351h12l216 -353l-2 -11l-353 -351h-12z"/>
</font>
</defs>
</svg>
