<?xml version="1.0" encoding="UTF-8" standalone="no"?>
<!DOCTYPE svg  PUBLIC '-//W3C//DTD SVG 1.1//EN'  'http://www.w3.org/Graphics/SVG/1.1/DTD/svg11.dtd'>
<svg xmlns="http://www.w3.org/2000/svg">
<defs>
<font id="PermianSansTypeface-Bold" horiz-adv-x="636">
<font-face underline-position="-50" font-weight="700" descent="-200" panose-1="2 0 0 0 0 0 0 0 0 0" units-per-em="1000" unicode-range="U+0020-25CA" bbox="-52 -262 1365 1006" x-height="500" underline-thickness="50" font-family="PermianSansTypeface" ascent="800" cap-height="700"/>
<missing-glyph horiz-adv-x="1000"/>
<glyph glyph-name=".notdef" horiz-adv-x="1000"/>
<glyph glyph-name=".null" horiz-adv-x="0"/>
<glyph glyph-name="nonmarkingreturn" horiz-adv-x="1000"/>
<glyph glyph-name="space" horiz-adv-x="235" unicode=" "/>
<glyph glyph-name="exclam" horiz-adv-x="303" unicode="!" d="M149 -15q-33 0 -55 22t-22 56q0 37 24 59t61 22q35 0 55 -20t21 -55q0 -40 -23 -62t-61 -22zM97 220l-23 481l154 5l-22 -486h-109z"/>
<glyph glyph-name="quotedbl" horiz-adv-x="400" unicode='&quot;' d="M228 463l-8 238l134 5l-31 -243h-95zM66 463l-8 238l134 5l-31 -243h-95z"/>
<glyph glyph-name="numbersign" horiz-adv-x="700" unicode="#" d="M288 243h78l44 116h-77zM67 0l53 139h-65v104h105l44 116h-109v104h149l50 129h127l-48 -129h77l50 129h127l-48 -129h64v-104h-104l-45 -116h101v-104h-140l-54 -139h-128l53 139h-77l-54 -139h-128z"/>
<glyph glyph-name="dollar" horiz-adv-x="515" unicode="$" d="M206 -153l10 139q-40 2 -82 12t-63 19l-21 9l28 90q82 -34 163 -34q99 0 99 81q0 28 -16 48t-42 33t-57 25t-63 28q-32 15 -57 37q-26 22 -42 59t-16 86q-1 66 45 116t130 64l-10 146q21 7 55 7t53 -7l-13 -144q37 -3 71 -12t51 -17l17 -8l-29 -88q-73 30 -147 30 q-46 0 -69 -19t-23 -50q0 -37 30 -63t73 -43t87 -39t73 -65q30 -43 30 -106q0 -75 -48 -125t-132 -63l13 -146q-20 -7 -49 -7t-49 7z"/>
<glyph glyph-name="percent" horiz-adv-x="990" unicode="%" d="M741 -10q-86 0 -137 52t-51 137q1 83 53 137t139 55q97 0 149 -48t53 -132q0 -89 -58 -145t-148 -56zM751 77q45 0 45 98q0 53 -10 81t-38 28q-45 0 -45 -97q1 -50 13 -80t35 -30zM173 0l478 700h157l-477 -700h-158zM231 337q-86 0 -137 52t-51 137q1 84 53 138t139 54 q97 0 149 -48t53 -132q0 -88 -58 -144t-148 -57zM241 424q45 0 45 98q0 52 -10 80t-38 29q-45 0 -45 -97q1 -50 13 -80t35 -30z"/>
<glyph glyph-name="ampersand" horiz-adv-x="722" unicode="&amp;" d="M224 555q0 -27 13 -55t25 -46t37 -48q63 68 63 152q0 32 -16 52t-46 20q-36 0 -56 -19t-20 -56zM273 259l-48 53q-36 -50 -36 -112q0 -58 31 -88t78 -30q55 0 107 36q-42 41 -132 141zM277 -10q-95 0 -159 50t-64 138q0 122 123 189q-78 92 -82 164v13q1 70 49 118 q54 52 149 52q89 0 144 -42t55 -120q0 -54 -41 -108t-103 -95l45 -51q47 -56 93 -100q53 69 112 192l80 -40q-72 -143 -123 -211q75 -57 115 -57h10v-82h-32q-52 0 -91 12t-82 45q-87 -67 -198 -67z"/>
<glyph glyph-name="quotesingle" horiz-adv-x="238" unicode="&apos;" d="M66 463l-8 238l134 5l-31 -243h-95z"/>
<glyph glyph-name="parenleft" horiz-adv-x="368" unicode="(" d="M332 -198q-142 80 -218 206t-76 281q0 174 76 309t214 204l31 -49q-109 -113 -151 -213t-42 -241q0 -101 23 -177t65 -136t119 -134z"/>
<glyph glyph-name="parenright" horiz-adv-x="364" unicode=")" d="M36 -198l-31 49q109 113 151 213t42 241q0 101 -23 177t-65 136t-119 134l41 50q142 -80 218 -206t76 -281q0 -174 -76 -309t-214 -204z"/>
<glyph glyph-name="asterisk" horiz-adv-x="547" unicode="*" d="M128 439q-22 15 -28 39q-2 7 -2 14q0 18 11 37q15 27 51 46l65 36l-3 10l-69 -6h-9q-49 0 -80 21q-23 16 -23 44q0 13 5 29q10 31 34 43q15 7 32 6q12 0 22 -2q28 -8 51 -31l60 -60l9 7l-32 66q-18 35 -18 64q0 14 4 27q12 39 69 39q52 0 66 -40q5 -13 5 -28 q0 -30 -19 -65l-34 -62l10 -7l57 59q36 37 72 37q4 0 10 -1q42 -5 57 -52q5 -15 5 -28q0 -27 -22 -43q-32 -24 -90 -23l-68 4l-3 -10l64 -34q28 -13 46 -37q16 -21 16 -46v-6q-2 -28 -30 -47q-25 -16 -46 -16q-16 -1 -31 9q-33 22 -47 77l-16 65h-11l-16 -65 q-14 -61 -52 -79q-15 -8 -30 -7q-21 0 -42 16z"/>
<glyph glyph-name="plus" horiz-adv-x="512" unicode="+" d="M201 80v152h-151v106h151v153h108v-153h152v-106h-152v-152h-108z"/>
<glyph glyph-name="comma" horiz-adv-x="275" unicode="," d="M103 -184l-64 53q57 53 78 117q-28 5 -45 26t-17 51q0 38 24 60t59 22q36 -1 58 -23t22 -68q0 -62 -34 -129t-81 -109z"/>
<glyph glyph-name="hyphen" horiz-adv-x="431" unicode="-" d="M70 232v109l291 10v-109z"/>
<glyph glyph-name="period" horiz-adv-x="274" unicode="." d="M133 -15q-33 0 -55 22t-22 56q0 37 24 59t61 22q35 0 55 -20t21 -55q0 -40 -23 -62t-61 -22z"/>
<glyph glyph-name="slash" horiz-adv-x="525" unicode="/" d="M-52 -172l431 872h132l-430 -872h-133z"/>
<glyph glyph-name="zero" horiz-adv-x="617" unicode="0" d="M297 -10q-74 0 -129 50t-81 126t-26 163q0 177 66 279t193 102q74 0 129 -50t81 -126t26 -163q0 -177 -66 -279t-193 -102zM311 85q29 0 50 21q21 20 32 56t16 75t5 83q0 295 -106 295q-32 -1 -54 -19t-32 -53q-11 -35 -15 -73t-4 -90q0 -295 108 -295z"/>
<glyph glyph-name="one" horiz-adv-x="402" unicode="1" d="M169 0v591l-138 -14l-10 67l230 62h56v-706h-138z"/>
<glyph glyph-name="two" horiz-adv-x="511" unicode="2" d="M27 0v70l100 107q173 186 173 317q0 114 -121 114q-29 0 -61 -4t-50 -8l-17 -3v82q66 35 178 35q95 0 152 -48t57 -141q0 -89 -49 -172t-156 -197l-59 -64l194 8l92 5l-8 -101h-425z"/>
<glyph glyph-name="three" horiz-adv-x="539" unicode="3" d="M217 -10q-43 0 -87 7t-67 15l-23 7l18 92q74 -25 130 -25q155 0 155 119q-1 55 -47 87t-105 31h-39l5 94h33q53 1 90 31t37 76q0 42 -25 64t-92 22q-28 0 -60 -4t-52 -8l-19 -5v82q68 35 164 35t158 -43t62 -118q1 -59 -41 -107t-113 -63q84 -11 134 -59t50 -124 q1 -86 -73 -146t-193 -60z"/>
<glyph glyph-name="four" horiz-adv-x="592" unicode="4" d="M138 239l190 4v191l3 104h-3q-13 -31 -47 -85zM326 -10v159h-282l-28 66l341 499h99v-470l94 1l-8 -96h-86v-66l5 -93h-135z"/>
<glyph glyph-name="five" horiz-adv-x="526" unicode="5" d="M222 -10q-94 0 -181 29l20 85q65 -16 129 -16q66 0 105 30t39 93q0 65 -64 107t-185 53l18 329h343l-5 -109l-249 6l-8 -136q290 -39 290 -256q0 -91 -68 -153t-184 -62z"/>
<glyph glyph-name="six" horiz-adv-x="579" unicode="6" d="M291 346q-49 0 -99 -28v-47q0 -87 30 -137t79 -50q46 0 72 32t26 92q0 62 -28 100t-80 38zM295 -10q-117 0 -179 81t-62 209q0 194 95 302t303 143l22 -89q-121 -33 -186 -83t-87 -141q58 27 131 27q88 0 146 -59t58 -156q0 -98 -65 -166t-176 -68z"/>
<glyph glyph-name="seven" horiz-adv-x="470" unicode="7" d="M230 -13l-140 29q57 217 254 585l-227 -4l-85 -6l8 109h412v-41q-78 -169 -126 -319t-96 -353z"/>
<glyph glyph-name="eight" horiz-adv-x="567" unicode="8" d="M211 544q-1 -34 25 -60t75 -58q62 52 62 118q-1 32 -21 51q-22 20 -57 20q-39 0 -61 -20t-23 -51zM377 177q1 45 -31 77t-92 69q-37 -24 -58 -59t-21 -72q0 -53 30 -80t71 -27q48 0 74 24t27 68zM280 -11q-98 0 -159 49t-61 136q0 126 129 190q-52 36 -81 75t-29 96 q-1 81 59 128t159 47q89 0 139 -42t52 -118q1 -97 -108 -167q60 -39 94 -85t34 -112q0 -86 -67 -142t-161 -55z"/>
<glyph glyph-name="nine" horiz-adv-x="578" unicode="9" d="M287 354q53 0 99 28v56q0 84 -28 131t-81 47q-47 0 -73 -38t-26 -95q0 -65 31 -97t78 -32zM283 710q113 0 177 -76t64 -214q0 -380 -398 -445l-22 89q120 32 186 82t87 141q-58 -26 -131 -26q-88 0 -146 59t-57 156q1 98 65 166t175 68z"/>
<glyph glyph-name="colon" horiz-adv-x="301" unicode=":" d="M147 342q-33 0 -55 22t-22 56q0 38 24 60t61 21q35 0 55 -20t21 -55q0 -40 -23 -62t-61 -22zM147 -15q-33 0 -55 22t-22 56q0 37 24 59t61 22q35 0 55 -20t21 -55q0 -40 -23 -62t-61 -22z"/>
<glyph glyph-name="semicolon" horiz-adv-x="305" unicode=";" d="M150 341q-32 0 -54 22t-23 56q1 37 25 59t60 22t56 -20t20 -55q0 -40 -23 -62t-61 -22zM119 -184l-64 53q57 53 78 117q-28 5 -45 26t-17 51q0 38 24 60t59 22q36 -1 58 -23t22 -68q0 -62 -34 -129t-81 -109z"/>
<glyph glyph-name="less" horiz-adv-x="467" unicode="&lt;" d="M390 20l-348 210v69l348 210v-157l-184 -87l184 -89v-156z"/>
<glyph glyph-name="equal" horiz-adv-x="567" unicode="=" d="M78 332v104h411v-104h-411zM78 122v104h411v-104h-411z"/>
<glyph glyph-name="greater" horiz-adv-x="467" unicode="&gt;" d="M77 20v156l184 89l-184 87v157l348 -210v-69z"/>
<glyph glyph-name="question" horiz-adv-x="426" unicode="?" d="M199 -15q-33 0 -55 22t-22 56q0 37 24 59t61 22q35 0 55 -20t21 -55q0 -40 -23 -62t-61 -22zM212 196q-48 0 -76 24t-28 64q0 37 20 72t42 59q22 23 42 59t20 75q0 33 -24 51t-60 17q-20 1 -45 -5t-41 -12l-15 -5v93q49 26 142 26q79 0 131 -40t52 -104q0 -49 -22 -93 t-50 -70q-26 -26 -48 -57t-23 -57q-1 -13 11 -17t23 6l38 -48q-33 -38 -89 -38z"/>
<glyph glyph-name="at" horiz-adv-x="950" unicode="@" d="M480 75q16 1 32 7t25 12l8 6l-1 223q-14 18 -60 18q-39 -1 -66 -37t-27 -102q0 -58 24 -92t65 -35zM534 -191q-51 -7 -98 -7q-155 0 -257 80q-133 104 -133 297q0 119 51 216t153 156t239 59q189 0 294 -96t105 -251q0 -125 -51 -209t-141 -84q-24 0 -44 7t-34 16 q-12 9 -22 21t-14 18q-4 5 -6 10q-17 -25 -28 -35q-41 -37 -105 -37q-81 0 -135 66t-54 163q0 103 58 167t147 64q33 0 61 -9t42 -19l12 -9l77 31h26v-312q0 -48 27 -48q22 0 40 37t18 106q0 47 -8 91t-28 86t-48 71q-30 31 -77 49t-107 18q-134 0 -224 -84t-90 -237 q0 -77 22 -137t56 -94t82 -54t95 -25q24 -3 48 -3q25 0 51 3v-82z"/>
<glyph glyph-name="A" d="M280 480l-81 -240h203l-87 240l-16 61h-4q-5 -31 -15 -61zM491 -4l-56 153h-267q-29 -91 -38 -149h-107q9 64 49 177l188 520l109 6l216 -583q12 -32 24 -62t19 -43l6 -13z" unicode="A"/>
<glyph glyph-name="B" horiz-adv-x="641" unicode="B" d="M233 412h145q5 4 13 12t21 32q13 25 13 53q0 45 -28 73t-88 28h-76v-198zM233 90h96q58 0 90 30t32 83q1 53 -29 86t-92 33h-97v-232zM96 0v598l-6 102h230q111 0 175 -48t64 -128q0 -119 -118 -153v-4q70 -14 109 -56t39 -106q-1 -97 -75 -151t-185 -54h-233z"/>
<glyph glyph-name="C" horiz-adv-x="594" unicode="C" d="M404 -10q-162 0 -255 94t-93 245q0 174 87 279t242 105q28 1 57 -3t61 -10t49 -7l-14 -98q-26 1 -74 11t-81 9q-85 0 -135 -68t-50 -183q0 -122 51 -198t161 -76q36 0 68 5t47 9l15 5l17 -90q-52 -29 -153 -29z"/>
<glyph glyph-name="D" horiz-adv-x="743" unicode="D" d="M234 92h47q264 0 264 254q1 126 -63 194t-196 68h-52v-516zM96 0v598l-6 102h217q183 0 283 -86t100 -251q0 -92 -30 -163t-85 -114q-54 -42 -122 -64t-147 -22h-210z"/>
<glyph glyph-name="E" horiz-adv-x="598" unicode="E" d="M96 0v598l-6 102h453l-5 -99q-39 5 -85 6l-219 3v-210l259 5l-5 -106l-254 8v-216l204 3l105 6l-5 -100h-442z"/>
<glyph glyph-name="F" horiz-adv-x="578" unicode="F" d="M96 0v598l-6 102h453l-5 -100q-49 5 -96 6l-208 3v-229l259 5l-5 -106l-254 8v-194l5 -93h-143z"/>
<glyph glyph-name="G" horiz-adv-x="684" unicode="G" d="M439 -10q-183 0 -284 88t-101 269q0 160 99 263t265 103q32 1 64 -3t68 -10t50 -7l-14 -98q-14 1 -48 7t-66 10t-62 3q-50 0 -88 -17t-62 -44q-23 -27 -38 -64q-14 -37 -20 -74t-6 -78q0 -120 68 -186t175 -65l48 5v117l-6 103l139 5v-302q-96 -25 -181 -25z"/>
<glyph glyph-name="H" horiz-adv-x="782" unicode="H" d="M96 0v598l-6 103l144 5v-297h314v189l-6 103l144 5v-613l5 -93h-143v315h-314v-222l5 -93h-143z"/>
<glyph glyph-name="I" horiz-adv-x="330" unicode="I" d="M96 0v598l-6 103l144 5v-613l5 -93h-143z"/>
<glyph glyph-name="J" horiz-adv-x="329" unicode="J" d="M64 -209l-76 61q14 20 34 44t27 33t16 22t13 21t8 21q10 29 10 97v508l-6 103l144 5v-615q0 -69 -18 -114q-10 -26 -31 -54t-41 -49t-80 -83z"/>
<glyph glyph-name="K" horiz-adv-x="652" unicode="K" d="M495 -5l-215 317h-46v-219l5 -93h-143v598l-6 103l144 5v-301h58q16 23 32 45t28 38t24 36t19 31t17 29t15 26q3 6 13 24t12 22q2 3 12 23t10 21h133q-88 -157 -218 -321l208 -309l51 -70z"/>
<glyph glyph-name="L" horiz-adv-x="560" unicode="L" d="M96 0v598l-6 102l144 5v-614l215 2q23 -1 47 1t36 4l11 2l-5 -100h-442z"/>
<glyph glyph-name="M" horiz-adv-x="922" unicode="M" d="M96 0v587l-6 114l119 5l211 -321q11 -16 20 -33t12 -26l4 -8h3q12 28 33 60l210 323l124 5v-613l5 -93h-139v425l4 109l-4 1q-9 -28 -40 -75l-188 -290h-43l-171 257l-54 89l-3 -1q7 -43 7 -110v-322l5 -83h-109z"/>
<glyph glyph-name="N" horiz-adv-x="755" unicode="N" d="M565 -10l-335 459l-33 61h-3q7 -45 7 -71v-346l5 -93h-110v598l-6 103l101 5l334 -459q10 -14 18 -28t11 -21l3 -6l3 1q-5 28 -5 68v337l-6 103l111 5v-706z"/>
<glyph glyph-name="O" horiz-adv-x="759" unicode="O" d="M368 -10q-98 0 -170 50t-107 128q-34 77 -34 169q-1 171 85 272t249 101q99 0 171 -50t106 -128q34 -77 34 -169q0 -171 -86 -272t-248 -101zM388 80q88 0 130 68t42 190q0 58 -9 106t-30 89t-59 64t-91 23q-87 0 -129 -68t-43 -190q0 -58 9 -106t30 -89t59 -64t91 -23z "/>
<glyph glyph-name="P" horiz-adv-x="605" unicode="P" d="M234 340h50q73 0 109 38t36 108q0 54 -35 88t-102 34h-58v-268zM96 0v598l-6 102h216q123 0 193 -62t70 -147q1 -103 -73 -173t-196 -71h-66v-154l5 -93h-143z"/>
<glyph glyph-name="Q" horiz-adv-x="740" unicode="Q" d="M379 79q162 0 162 259q0 283 -179 283q-162 0 -162 -259q0 -283 179 -283zM359 -10q-98 0 -168 50q-69 50 -101 128q-32 77 -32 169q0 173 81 273t243 100q98 0 168 -50t102 -128q32 -77 31 -169q0 -223 -127 -316l105 -154l58 -76l-147 -5l-122 188q-40 -10 -91 -10z "/>
<glyph glyph-name="R" horiz-adv-x="647" unicode="R" d="M234 338h38q84 0 126 39t41 106q0 59 -38 92t-109 33h-58v-270zM463 -5l-146 252h-83v-154l5 -93h-143v598l-6 102h216q129 0 201 -60t72 -162q0 -64 -41 -113t-103 -70l130 -219l52 -76z"/>
<glyph glyph-name="S" horiz-adv-x="549" unicode="S" d="M231 -10q-49 0 -91 6t-60 12l-18 7v97q73 -23 169 -23q67 0 99 27t31 64q0 42 -22 70t-96 54q-92 34 -137 82t-45 125q0 92 62 147t163 55q49 1 113 -9t79 -11l-16 -100q-30 2 -80 11t-76 9q-108 0 -108 -89q0 -36 24 -64t88 -52q104 -40 146 -88t42 -130q0 -94 -70 -147 t-197 -53z"/>
<glyph glyph-name="T" horiz-adv-x="589" unicode="T" d="M227 0v605l-117 2q-18 1 -40 -1t-34 -4l-13 -2l5 100h540l-4 -99q-32 3 -80 4h-119v-512l5 -93h-143z"/>
<glyph glyph-name="U" horiz-adv-x="752" unicode="U" d="M374 -14q-130 0 -208 76t-77 218v318l-6 103l144 5v-425q0 -104 40 -152t122 -48q75 0 121 50t46 150v317l-6 103l114 5v-425q0 -139 -74 -217t-216 -78z"/>
<glyph glyph-name="V" horiz-adv-x="644" unicode="V" d="M267 -5l-216 583q-12 32 -24 62t-19 43l-6 13l149 6l183 -502l11 -42h4q-1 18 7 41l117 348q30 89 39 153h107q-9 -67 -49 -179l-188 -520z"/>
<glyph glyph-name="W" horiz-adv-x="971" unicode="W" d="M228 -4l-171 583l-39 118l143 6l123 -435q8 -28 14 -56t8 -44l3 -15h4q5 53 21 118l104 429l119 5l115 -433q8 -30 14 -60t7 -46l2 -17h4q6 57 24 119l74 258q26 90 35 174h111q-15 -108 -53 -221l-152 -477l-120 -6l-105 398l-24 121h-5q-9 -71 -19 -115l-95 -398z"/>
<glyph glyph-name="X" horiz-adv-x="654" unicode="X" d="M483 -5l-171 275l-73 -120l-90 -150h-125q39 82 116 183l117 160l-162 251l-73 106l162 5l155 -263l84 122q18 28 37 62t28 55l10 21h122q-24 -73 -93 -166l-129 -173l175 -267l66 -96z"/>
<glyph glyph-name="Y" horiz-adv-x="602" unicode="Y" d="M234 0v284l-186 324q-12 20 -26 43t-23 36l-9 13l158 5l178 -324l99 200q17 33 29 63t16 43l4 13h117q-36 -80 -76 -158l-143 -259v-190l5 -93h-143z"/>
<glyph glyph-name="Z" horiz-adv-x="578" unicode="Z" d="M42 0v50l322 566l-218 -9l-90 -6l5 99h470v-50l-327 -572l204 9l119 9l-5 -96h-480z"/>
<glyph glyph-name="bracketleft" horiz-adv-x="305" unicode="[" d="M82 -199v984h178v-61h-60v-862h60v-61h-178z"/>
<glyph glyph-name="backslash" horiz-adv-x="514" unicode="\" d="M444 -174l-430 874h122l431 -874h-123z"/>
<glyph glyph-name="bracketright" horiz-adv-x="305" unicode="]" d="M45 -199v61h60v862h-60v61h178v-984h-178z"/>
<glyph glyph-name="asciicircum" horiz-adv-x="427" unicode="^" d="M20 533l191 227h5l191 -227h-124l-70 86l-70 -86h-123z"/>
<glyph glyph-name="underscore" horiz-adv-x="489" unicode="_" d="M15 -193v92h459v-92h-459z"/>
<glyph glyph-name="grave" horiz-adv-x="550" unicode="`" d="M230 592l-187 154l96 101l160 -181z"/>
<glyph glyph-name="a" horiz-adv-x="546" unicode="a" d="M232 84q46 0 92 36q0 23 2 107q-48 -2 -85 -13q-66 -19 -66 -78q1 -24 15 -38t42 -14zM191 -10q-74 0 -112 38t-38 94q0 134 171 162q55 9 116 9v31q0 46 -28 70t-76 24q-37 0 -73 -6t-53 -10l-18 -6v87q67 27 172 27q113 0 162 -49q47 -47 47 -125v-6q0 -21 -1 -72 q-1 -52 -2 -94t-1 -64q0 -18 11 -18q8 0 18 5t14 10l6 5v-83q-32 -29 -78 -29q-63 0 -79 62q-68 -62 -158 -62z"/>
<glyph glyph-name="b" horiz-adv-x="611" unicode="b" d="M297 80q127 0 127 176q0 74 -28 114t-82 40q-53 0 -107 -33q2 -38 2 -96v-176q48 -25 88 -25zM282 -10q-113 0 -206 40v617l-6 103l139 5l-2 -296q58 51 137 51q106 0 162 -67t55 -166q0 -135 -72 -211t-207 -76z"/>
<glyph glyph-name="c" horiz-adv-x="484" unicode="c" d="M297 -10q-115 0 -181 68t-67 176q0 124 67 200t179 76q30 0 75 -10t67 -10l-10 -102q-24 2 -69 12t-68 11q-46 0 -76 -39t-30 -114q0 -76 38 -122t107 -46q27 0 54 7t41 13l14 7v-94q-52 -33 -141 -33z"/>
<glyph glyph-name="d" horiz-adv-x="612" unicode="d" d="M308 85q60 0 93 39v256q-30 41 -92 41q-59 0 -91 -44t-31 -123q0 -77 29 -123t92 -46zM273 -10q-101 0 -162 68t-61 173q0 131 68 205t171 74q71 0 112 -33v170q1 25 -1 51t-4 39l-2 13l139 5v-651l6 -103l-130 -5l-3 46q-44 -52 -133 -52z"/>
<glyph glyph-name="e" horiz-adv-x="560" unicode="e" d="M190 321l185 4q-1 51 -21 74t-59 23q-42 0 -71 -28t-34 -73zM321 -10q-125 0 -199 67t-74 185q0 124 70 196t181 72q119 0 172 -78q42 -61 42 -147q0 -23 -3 -48h-327q3 -67 46 -107t112 -40q37 0 74 7t56 13l19 7v-93q-60 -34 -169 -34z"/>
<glyph glyph-name="f" horiz-adv-x="404" unicode="f" d="M100 0v411l-56 1v88h57v77q0 81 50 132t141 51q36 0 84 -10t68 -10l-19 -102q-35 3 -71 13t-56 10q-65 0 -65 -90v-71h151l-5 -93l-146 2v-316l5 -93h-138z"/>
<glyph glyph-name="g" horiz-adv-x="562" unicode="g" d="M263 225q35 1 55 29t20 71q0 47 -20 73t-54 27q-35 0 -55 -28t-20 -69q1 -46 21 -74t53 -29zM296 -180q52 0 84 24t32 60q0 32 -22 46t-70 17l-81 5q-51 4 -78 14q-12 -24 -12 -57q0 -49 40 -79t107 -30zM275 -262h-11q-98 0 -162 36q-68 38 -67 117q0 84 80 123 q-21 23 -21 66q0 22 13 46t38 41q-43 19 -67 59t-24 92q0 86 58 139t163 53q51 0 104 -20l159 12l-3 -72l-96 1v-4q34 -34 34 -104q0 -73 -57 -127t-164 -55q-23 0 -53 4q-5 -8 -5 -18q0 -31 49 -34l97 -6q171 -10 171 -161q0 -77 -61 -132t-175 -56z"/>
<glyph glyph-name="h" horiz-adv-x="606" unicode="h" d="M79 0v647l-6 103l139 5l-2 -305q73 60 164 60q75 0 116 -47t41 -128v-252l5 -83h-138v297q0 61 -18 87t-63 26q-22 0 -42 -6q-19 -6 -29 -10t-36 -18q2 -20 2 -95v-198l5 -83h-138z"/>
<glyph glyph-name="i" horiz-adv-x="291" unicode="i" d="M139 596q-31 0 -53 20t-22 53t23 51t59 19q34 0 54 -18t20 -50q0 -35 -22 -55t-59 -20zM79 0v397l-6 103l139 5v-412l5 -93h-138z"/>
<glyph glyph-name="j" horiz-adv-x="291" unicode="j" d="M143 596q-31 0 -53 20t-22 53t23 51t59 19q34 0 54 -18t20 -50q0 -35 -22 -55t-59 -20zM50 -257l-63 50q49 63 76 121q16 31 16 112v371l-6 103l139 5v-479q0 -76 -19 -111q-30 -58 -143 -172z"/>
<glyph glyph-name="k" horiz-adv-x="551" unicode="k" d="M385 -5l-145 214h-28v-116l5 -93h-138v648l-6 103l139 5v-458h32l61 87q27 37 45 65t24 40l5 10h131q-36 -63 -107 -146l-67 -75l145 -203l60 -76z"/>
<glyph glyph-name="l" horiz-adv-x="291" unicode="l" d="M79 0v648l-6 103l139 5v-663l5 -93h-138z"/>
<glyph glyph-name="m" horiz-adv-x="898" unicode="m" d="M79 0v397l-6 103l132 5l3 -55q38 32 70 46t78 14q44 0 80 -18t53 -51q80 69 168 69q77 0 121 -46t45 -122v-259l5 -83h-138v297q0 113 -80 113q-22 0 -40 -5t-30 -11q-11 -6 -30 -18q5 -28 5 -54v-239l5 -83h-138v297q0 57 -18 85t-55 28q-36 0 -99 -34q2 -20 2 -95v-198 l5 -83h-138z"/>
<glyph glyph-name="n" horiz-adv-x="605" unicode="n" d="M79 0v397l-6 103l132 5l3 -56q38 31 76 46t95 15q74 0 113 -48t39 -138v-241l5 -83h-138v309q0 101 -78 101q-46 0 -110 -34q2 -27 2 -75v-218l5 -83h-138z"/>
<glyph glyph-name="o" horiz-adv-x="584" unicode="o" d="M279 -10q-107 0 -168 66t-61 177q0 129 68 203t187 74q107 0 168 -66t61 -177q0 -129 -68 -203t-187 -74zM294 80q51 0 78 40t27 117q-1 91 -25 137t-84 47q-52 -1 -78 -43t-27 -120q0 -82 27 -130t82 -48z"/>
<glyph glyph-name="p" horiz-adv-x="614" unicode="p" d="M301 80q60 0 93 47t33 120q-1 85 -31 124t-79 39q-53 0 -107 -33q2 -16 2 -76v-191q34 -30 89 -30zM79 -250v647l-6 103l132 5l3 -48q30 29 62 41t85 12q97 0 153 -68t56 -165q0 -131 -68 -209t-173 -78q-32 0 -60 7t-39 15l-12 7v-186l5 -83h-138z"/>
<glyph glyph-name="q" horiz-adv-x="622" unicode="q" d="M314 90q25 0 49 10t35 18l12 10v259q-52 34 -95 34q-53 0 -91 -46t-38 -124q0 -69 34 -115t94 -46zM410 -250v297q-6 -5 -16 -15t-46 -26q-35 -16 -74 -16q-110 0 -168 70t-57 182q-1 120 73 194t197 74q71 0 132 -36l60 26h32v-667l5 -83h-138z"/>
<glyph glyph-name="r" horiz-adv-x="444" unicode="r" d="M79 0v397l-6 103l134 5l2 -76q30 41 54 61t52 20q19 0 37 -6t42 -18t42 -18l-49 -107q-15 6 -39 17q-24 10 -39 16t-28 6q-28 0 -71 -39q2 -24 2 -71v-207l5 -83h-138z"/>
<glyph glyph-name="s" horiz-adv-x="455" unicode="s" d="M217 -10q-35 0 -89 10t-73 11l10 102q19 -2 73 -13t86 -11q75 0 75 40q0 19 -22 34t-74 35q-83 30 -117 64t-34 100q0 70 50 109t123 39q39 0 91 -10t74 -10l-10 -101q-29 2 -79 12t-81 10q-58 0 -58 -36q0 -19 17 -35t73 -35q80 -27 118 -65t39 -99q1 -75 -51 -113 t-141 -38z"/>
<glyph glyph-name="t" horiz-adv-x="432" unicode="t" d="M290 -10q-98 0 -146 40t-48 125v176l5 81l-60 1v76l57 11l71 116h59v-116h165l-3 -92l-162 2v-231q0 -95 81 -95q19 0 40 4t33 8l11 4v-89q-46 -21 -103 -21z"/>
<glyph glyph-name="u" horiz-adv-x="606" unicode="u" d="M527 500v-397l6 -103l-132 -5l-3 56q-38 -31 -76 -46t-95 -15q-74 0 -113 48t-39 138v241l-5 83h138v-309q0 -101 78 -101q46 0 110 34q-2 27 -2 75v218l-5 83h138z"/>
<glyph glyph-name="v" horiz-adv-x="516" unicode="v" d="M200 -5l-147 402l-42 103l145 5l100 -295q8 -24 14 -46t8 -30l1 -10h4q5 33 20 79l52 156q20 64 32 141h105q-7 -81 -41 -169l-130 -331z"/>
<glyph glyph-name="w" horiz-adv-x="794" unicode="w" d="M177 -5l-123 402l-35 103l132 5l84 -282q7 -24 12 -48t7 -37l1 -12h4q4 41 21 103l46 170q8 32 13 57t6 34l1 10l106 7l86 -276q8 -25 15 -52t9 -41l3 -14h4q7 49 24 109l33 113q23 90 28 154h104q-3 -76 -45 -202l-102 -298l-121 -5l-77 257q-7 21 -13 44t-7 35l-2 12 h-4q-7 -45 -21 -101l-61 -242z"/>
<glyph glyph-name="x" horiz-adv-x="554" unicode="x" d="M385 -5l-125 175l-23 -34q-25 -39 -47 -73t-30 -49l-8 -14h-128q53 78 108 146l76 95l-122 176q-14 21 -30 41t-24 32l-9 10l156 5l113 -173l31 48l75 120h116q-46 -76 -113 -164l-58 -77l139 -183l59 -76z"/>
<glyph glyph-name="y" horiz-adv-x="524" unicode="y" d="M235 -254l-129 6q29 80 87 185l16 29l-155 431l-42 103l147 5l96 -293q9 -26 15 -51t8 -37l3 -11h4q9 47 26 101l46 143q31 96 36 143h108q-7 -86 -56 -202l-126 -307q-23 -55 -44 -116t-31 -95z"/>
<glyph glyph-name="z" horiz-adv-x="485" unicode="z" d="M45 0v40l227 370l-114 -5l-106 -8l7 103h377v-40l-228 -372l129 3l103 8l-8 -99h-387z"/>
<glyph glyph-name="braceleft" horiz-adv-x="349" unicode="{" d="M250 -199q-64 0 -94 37t-30 111v161q0 117 -26 144q-35 -13 -71 -16l-14 77q111 15 111 107v215q0 74 30 111t94 37h54v-71q-36 0 -48 -18t-12 -79v-153q0 -127 -87 -174q87 -45 87 -191v-154q0 -47 12 -65t48 -18v-61h-54z"/>
<glyph glyph-name="bar" horiz-adv-x="282" unicode="|" d="M82 -259v1024h118v-1024h-118z"/>
<glyph glyph-name="braceright" horiz-adv-x="349" unicode="}" d="M99 785q65 0 95 -37t29 -111v-161q0 -117 26 -144q35 13 71 16l14 -77q-111 -15 -111 -107v-215q1 -74 -29 -111t-95 -37h-54v71q37 0 49 18t11 79v153q0 127 87 174q-87 45 -87 191v154q0 47 -12 65t-48 18v61h54z"/>
<glyph glyph-name="asciitilde" horiz-adv-x="553" unicode="~" d="M368 194q-46 0 -100 22t-92 23q-22 -1 -40 -9t-24 -17l-6 -9l-57 67q1 4 4 10q3 5 15 21t27 28t41 22t57 10q53 0 102 -22t82 -23q25 1 43 9t24 17l5 9l55 -67q-1 -4 -4 -10q-2 -5 -14 -21t-26 -28t-38 -22t-54 -10z"/>
<glyph glyph-name="uni00A0" horiz-adv-x="235" unicode=" "/>
<glyph glyph-name="exclamdown" horiz-adv-x="301" unicode="¡" d="M153 509q33 0 55 -22t22 -56q0 -37 -24 -59t-61 -22q-35 0 -55 20t-21 55q0 40 23 62t61 22zM205 274l23 -481l-154 -5l22 486h109z"/>
<glyph glyph-name="cent" horiz-adv-x="496" unicode="¢" d="M230 -114v110q-87 18 -136 82t-49 156q-1 106 49 178t136 92v106h98v-102q12 -2 32 -6t38 -8q18 -3 35 -4l-10 -102q-24 2 -69 12t-68 11q-46 0 -76 -39t-30 -114q0 -72 37 -120t98 -48q29 0 59 7t45 13l15 7v-94q-40 -23 -106 -30v-107h-98z"/>
<glyph glyph-name="sterling" horiz-adv-x="575" unicode="£" d="M61 282v94h70l-7 84q-1 15 -1 30q0 94 55 154q64 70 181 71q30 0 75 -9t67 -11l-10 -102q-27 3 -71 13t-66 10q-48 0 -71 -20t-23 -52q0 -6 -1 -13q0 -25 2 -53l8 -102h159v-94h-152q1 -12 1 -23q-1 -55 -13 -95q-14 -48 -59 -74l228 6l96 6l-5 -102h-462v84q4 1 10 3 t21 14q15 11 26 29t18 53q4 22 4 49q0 15 -1 31l-2 19h-77z"/>
<glyph glyph-name="yen" horiz-adv-x="680" unicode="¥" d="M149 260v94h90l-146 254l-58 92l158 5l178 -324l99 200q16 33 28 63t17 43l4 13h117q-24 -63 -76 -158l-104 -188h104v-94h-143v-77h143v-94h-143l5 -89h-143v89h-130v94h130v77h-130z"/>
<glyph glyph-name="brokenbar" horiz-adv-x="268" unicode="¦" d="M75 373v392h118v-392h-118zM75 -259v402h118v-402h-118z"/>
<glyph glyph-name="section" horiz-adv-x="510" unicode="§" d="M329 320q-1 21 -7 37t-23 29t-27 19q-10 7 -39 19q-28 12 -36 16q-15 -26 -15 -55q0 -21 6 -37t24 -29q16 -13 26 -19t38 -19q28 -12 37 -16q16 28 16 55zM454 331q0 -72 -72 -116q28 -35 28 -86q0 -65 -52 -102t-136 -37q-35 0 -83 10t-71 10l8 91q30 -2 77 -12t78 -10 q26 0 40 14t14 35q0 24 -23 42t-57 32q-33 14 -67 32t-58 54t-23 86q0 73 72 115q-28 35 -28 87q0 65 52 102t136 37q35 1 83 -9t71 -11l-8 -91q-30 2 -77 12t-78 10q-26 0 -40 -14t-14 -35q0 -23 23 -41t57 -32t68 -34q34 -18 56 -54q24 -36 24 -85z"/>
<glyph glyph-name="dieresis" horiz-adv-x="502" unicode="¨" d="M370 627q-34 0 -56 22t-21 59q-1 38 23 60t61 22q36 0 56 -20t20 -58q-1 -41 -23 -63t-60 -22zM162 627q-34 0 -56 22t-21 59q-1 38 23 60t61 22q36 0 56 -20t20 -58q-1 -41 -23 -63t-60 -22z"/>
<glyph glyph-name="copyright" horiz-adv-x="815" unicode="©" d="M408 -8q-152 0 -255 104t-103 258q0 152 103 258t255 105q151 1 254 -105t103 -258q0 -150 -104 -256t-253 -106zM408 88q102 0 166 74t64 192q0 119 -64 193t-166 74q-98 -1 -164 -75t-66 -192q0 -122 62 -194t168 -72zM436 159q-93 1 -148 53t-55 136q1 99 53 156 t147 57q23 1 59 -7t53 -9l-15 -89q-18 2 -47 10t-47 8q-31 0 -51 -30t-20 -78q0 -118 89 -118q22 0 44 5t34 10l12 5v-84q-42 -25 -108 -25z"/>
<glyph glyph-name="guillemotleft" horiz-adv-x="558" unicode="«" d="M418 26q-23 45 -49 75t-84 84l-50 46v29l50 46q56 51 83 83t51 78l91 -48q-36 -93 -112 -164l-12 -10l12 -11q36 -32 60 -68t47 -93zM218 9q-49 90 -143 176l-50 46v29l50 46q94 86 143 176l92 -48q-21 -48 -56 -98t-66 -81l-12 -10l12 -11q62 -53 118 -177z"/>
<glyph glyph-name="logicalnot" horiz-adv-x="592" unicode="¬" d="M403 137v91h-325v114h432v-205h-107z"/>
<glyph glyph-name="registered" horiz-adv-x="561" unicode="®" d="M281 318q-116 0 -173 60t-57 148t57 148t173 61q116 -1 173 -61t57 -148t-57 -148t-173 -60zM281 381q64 -1 99 31t35 114q0 88 -34 118t-100 30q-67 0 -101 -30t-34 -118q0 -82 36 -114t99 -31zM272 538h14q16 0 16 21q0 22 -18 22h-12v-43zM294 438l-14 54h-8v-20 l2 -34h-83v143l-4 47h100q99 0 99 -66q0 -16 -10 -30t-27 -20l8 -22l23 -52h-86z"/>
<glyph glyph-name="macron" horiz-adv-x="364" unicode="¯" d="M45 539v104h274v-104h-274z"/>
<glyph glyph-name="degree" horiz-adv-x="432" unicode="°" d="M44 597q0 75 44 119t128 44t128 -44t44 -119t-44 -119t-128 -44t-128 44t-44 119zM164 597q0 -70 52 -70t52 70t-52 70t-52 -70z"/>
<glyph glyph-name="plusminus" horiz-adv-x="573" unicode="±" d="M71 40v112h431v-112h-431zM226 170v118h-155v114h155v119h120v-119h156v-114h-156v-118h-120z"/>
<glyph glyph-name="acute" horiz-adv-x="294" unicode="´" d="M113 592l-70 73l160 181l97 -100z"/>
<glyph glyph-name="mu" horiz-adv-x="593" unicode="µ" d="M79 -202v619l-5 83h148v-277q0 -81 22 -110t61 -29q9 0 21 1t21 3t17 4t12 4l4 1q-10 18 -10 86v234l-5 83h148v-418l10 -83l-121 -3l-8 55q-49 -61 -130 -61q-39 0 -71 22t-49 58l-4 -2q73 -113 73 -231v-39h-134z"/>
<glyph glyph-name="paragraph" horiz-adv-x="748" unicode="¶" d="M454 101h86v306h-86v-306zM342 0q-133 0 -209 66t-76 181q0 113 73 183t212 70h310v-500h-310zM331 101h10v305h-10q-68 0 -104 -42t-36 -108q1 -71 41 -113t99 -42z"/>
<glyph glyph-name="periodcentered" horiz-adv-x="263" unicode="·" d="M131 208q-29 0 -49 20t-20 49t22 49t49 20q29 0 49 -20t19 -49t-21 -49t-49 -20z"/>
<glyph glyph-name="cedilla" horiz-adv-x="240" unicode="¸" d="M116 -200q-64 0 -116 20l24 61q39 -10 76 -10q33 0 33 22q-1 13 -17 17q-4 1 -8 1q-14 0 -33 -9l-13 15l37 103l58 4v-56q41 -4 65 -23t23 -53q1 -40 -35 -66t-94 -26z"/>
<glyph glyph-name="guillemotright" horiz-adv-x="558" unicode="»" d="M340 9l-88 48q56 124 118 177l13 11l-13 10q-31 31 -66 81t-56 98l92 48q49 -90 143 -176l50 -46v-29l-50 -46q-94 -86 -143 -176zM140 26l-87 47q23 57 47 93t60 68l13 11l-13 10q-76 71 -112 164l91 48q24 -46 51 -78t83 -83l50 -46v-29l-50 -46q-58 -54 -84 -84 t-49 -75z"/>
<glyph glyph-name="onequarter" horiz-adv-x="800" unicode="¼" d="M125 -18l-75 69l581 659l76 -66zM147 324v281l-91 -3l-9 64l186 42l34 -2v-382h-120zM498 145l80 1v63l7 83h-4q-17 -41 -35 -70zM579 -10v75h-157l-16 57l180 282l106 -9v-251h63l-4 -79h-59v-23l2 -52h-115z"/>
<glyph glyph-name="onehalf" horiz-adv-x="803" unicode="½" d="M146 324v281l-91 -3l-9 64l186 42l34 -2v-382h-120zM459 0v60l45 40q60 56 84 88t24 65q0 48 -63 48q-17 0 -35 -3t-28 -6l-10 -3v72q51 25 137 25q61 0 92 -30t31 -80q0 -51 -34 -99t-117 -107l88 12q19 4 39 8t30 8l10 3l-3 -101h-290zM124 -18l-75 69l581 659l76 -66z "/>
<glyph glyph-name="threequarters" horiz-adv-x="842" unicode="¾" d="M540 145l80 1v63l7 83h-4q-17 -41 -35 -70zM621 -10v75h-157l-16 57l180 282l106 -9v-251h63l-4 -79h-59v-23l2 -52h-115zM167 -18l-75 69l581 659l76 -66zM167 319q-37 -1 -65 3t-38 8l-11 4l15 73q31 -10 72 -10q70 0 70 48q0 47 -84 47h-20l7 67h18q65 0 65 34 q0 38 -56 38q-16 0 -34 -4t-28 -8l-9 -4v76q40 19 110 19q64 0 102 -25t38 -76q1 -28 -19 -50t-55 -29q42 -6 66 -30t24 -62q0 -48 -41 -84t-127 -35z"/>
<glyph glyph-name="questiondown" horiz-adv-x="418" unicode="¿" d="M222 503q32 0 54 -22t23 -56q-1 -37 -25 -59t-60 -22t-56 20t-20 55q0 40 23 62t61 22zM209 292q46 0 75 -24t29 -64q1 -37 -19 -72t-43 -59q-23 -23 -43 -59t-19 -75q0 -68 84 -68q19 -1 45 5t41 12l15 5v-93q-49 -26 -152 -26q-71 0 -122 40t-51 104q1 49 23 93t48 70 t50 57q22 31 22 57q0 16 -12 19t-22 -8l-38 48q33 38 89 38z"/>
<glyph glyph-name="Agrave" d="M310 751l-187 154l96 101l160 -181zM280 480l-81 -240h203l-87 240l-16 61h-4q-5 -31 -15 -61zM491 -4l-56 153h-267q-29 -91 -38 -149h-107q9 64 49 177l188 520l109 6l216 -583q12 -32 24 -62t19 -43l6 -13z" unicode="À"/>
<glyph glyph-name="Aacute" d="M294 750l-70 73l160 181l97 -100zM280 480l-81 -240h203l-87 240l-16 61h-4q-5 -31 -15 -61zM491 -4l-56 153h-267q-29 -91 -38 -149h-107q9 64 49 177l188 520l109 6l216 -583q12 -32 24 -62t19 -43l6 -13z" unicode="Á"/>
<glyph glyph-name="Acircumflex" d="M200 761l-61 69l151 124h38l148 -118l-59 -73l-108 74zM280 480l-81 -240h203l-87 240l-16 61h-4q-5 -31 -15 -61zM491 -4l-56 153h-267q-29 -91 -38 -149h-107q9 64 49 177l188 520l109 6l216 -583q12 -32 24 -62t19 -43l6 -13z" unicode="Â"/>
<glyph glyph-name="Atilde" d="M371 767q-37 0 -73 18t-50 18q-16 0 -28 -12t-16 -27l-82 20q8 48 41 84t83 35q38 0 74 -18t48 -18q15 1 25 13t13 26l80 -20q-10 -57 -42 -88t-73 -31zM280 480l-81 -240h203l-87 240l-16 61h-4q-5 -31 -15 -61zM491 -4l-56 153h-267q-29 -91 -38 -149h-107q9 64 49 177 l188 520l109 6l216 -583q12 -32 24 -62t19 -43l6 -13z" unicode="Ã"/>
<glyph glyph-name="Adieresis" d="M405 775q-33 0 -55 22t-22 59q0 38 24 60t60 22t56 -20t20 -58q0 -41 -22 -63t-61 -22zM197 775q-33 0 -55 22t-22 59q0 38 24 60t60 22t56 -20t20 -58q0 -41 -22 -63t-61 -22zM280 480l-81 -240h203l-87 240l-16 61h-4q-5 -31 -15 -61zM491 -4l-56 153h-267 q-29 -91 -38 -149h-107q9 64 49 177l188 520l109 6l216 -583q12 -32 24 -62t19 -43l6 -13z" unicode="Ä"/>
<glyph glyph-name="Aring" d="M310 754q-54 0 -90 30t-35 81q-1 51 35 81t90 30t89 -30t35 -81t-35 -81t-89 -30zM310 827q22 0 22 38q0 36 -22 36q-11 0 -18 -10t-7 -26q-1 -16 7 -27t18 -11zM280 480l-81 -240h203l-87 240l-16 61h-4q-5 -31 -15 -61zM491 -4l-56 153h-267q-29 -91 -38 -149h-107 q9 64 49 177l188 520l109 6l216 -583q12 -32 24 -62t19 -43l6 -13z" unicode="Å"/>
<glyph glyph-name="AE" horiz-adv-x="925" unicode="Æ" d="M423 250v356h-3q-22 -54 -48 -101l-140 -255h191zM-5 0q19 61 85 177l302 523h488l-5 -99l-304 9v-210l259 5l-5 -106l-254 8v-216l309 9l-5 -100h-442v159h-241l-4 -8q-45 -82 -68 -151h-115z"/>
<glyph glyph-name="Ccedilla" horiz-adv-x="597" unicode="Ç" d="M360 -200q-64 0 -116 20l24 61q39 -10 76 -10q33 0 33 22q-1 13 -17 17q-4 1 -8 1q-14 0 -33 -9l-13 15l28 79q-130 20 -203 110t-73 223q0 174 87 279t242 105q28 1 57 -3t61 -10t49 -7l-14 -98q-26 1 -74 11t-81 9q-85 0 -135 -68t-50 -183q0 -122 51 -198t161 -76 q36 0 68 5t47 9l15 5l17 -90q-52 -29 -153 -29h-5v-22q41 -4 65 -23t23 -53q1 -40 -35 -66t-94 -26z"/>
<glyph glyph-name="Egrave" horiz-adv-x="598" unicode="È" d="M352 751l-187 154l96 101l160 -181zM96 0v598l-6 102h453l-5 -99q-39 5 -85 6l-219 3v-210l259 5l-5 -106l-254 8v-216l204 3l105 6l-5 -100h-442z"/>
<glyph glyph-name="Eacute" horiz-adv-x="598" unicode="É" d="M96 0v598l-6 102h453l-5 -99q-39 5 -85 6l-219 3v-210l259 5l-5 -106l-254 8v-216l204 3l105 6l-5 -100h-442zM334 750l-70 73l160 181l97 -100z"/>
<glyph glyph-name="Ecircumflex" horiz-adv-x="598" unicode="Ê" d="M96 0v598l-6 102h453l-5 -99q-39 5 -85 6l-219 3v-210l259 5l-5 -106l-254 8v-216l204 3l105 6l-5 -100h-442zM218 762l-61 69l151 124h38l148 -118l-59 -73l-108 74z"/>
<glyph glyph-name="Edieresis" horiz-adv-x="598" unicode="Ë" d="M96 0v598l-6 102h453l-5 -99q-39 5 -85 6l-219 3v-210l259 5l-5 -106l-254 8v-216l204 3l105 6l-5 -100h-442zM410 772q-34 0 -56 22t-21 59q-1 39 23 61t61 21q36 -1 56 -21t20 -57q-1 -41 -23 -63t-60 -22zM202 772q-34 0 -56 22t-21 59q-1 39 23 61t61 21 q36 -1 56 -21t20 -57q-1 -41 -23 -63t-60 -22z"/>
<glyph glyph-name="Igrave" horiz-adv-x="330" unicode="Ì" d="M174 750l-187 154l96 101l160 -181zM96 0v598l-6 103l144 5v-613l5 -93h-143z"/>
<glyph glyph-name="Iacute" horiz-adv-x="330" unicode="Í" d="M154 750l-70 73l160 181l97 -100zM96 0v598l-6 103l144 5v-613l5 -93h-143z"/>
<glyph glyph-name="Icircumflex" horiz-adv-x="330" unicode="Î" d="M68 760l-61 69l151 124h38l148 -118l-59 -73l-108 74zM96 0v598l-6 103l144 5v-613l5 -93h-143z"/>
<glyph glyph-name="Idieresis" horiz-adv-x="330" unicode="Ï" d="M265 772q-33 0 -55 22t-22 59q0 39 24 61t60 21t56 -21t20 -57q0 -41 -22 -63t-61 -22zM57 772q-33 0 -55 22t-22 59q0 39 24 61t60 21t56 -21t20 -57q0 -41 -22 -63t-61 -22zM96 0v598l-6 103l144 5v-613l5 -93h-143z"/>
<glyph glyph-name="Eth" horiz-adv-x="752" unicode="Ð" d="M243 92h47q264 0 264 254q0 126 -64 194t-195 68h-52v-219h106v-84h-106v-213zM15 305v84h90v209l-6 102h217q184 0 284 -86t99 -251q-1 -92 -31 -163t-84 -114q-54 -42 -122 -64t-147 -22h-210v305h-90z"/>
<glyph glyph-name="Ntilde" horiz-adv-x="755" unicode="Ñ" d="M462 770q-36 0 -72 18t-51 18q-16 0 -28 -12t-16 -27l-82 20q8 47 41 83t83 36q37 0 73 -18t49 -18q15 0 25 12t13 27l80 -20q-9 -57 -41 -88t-74 -31zM565 -10l-335 459l-33 61h-3q7 -45 7 -71v-346l5 -93h-110v598l-6 103l101 5l334 -459q10 -14 18 -28t11 -21l3 -6 l3 1q-5 28 -5 68v337l-6 103l111 5v-706z"/>
<glyph glyph-name="Ograve" horiz-adv-x="759" unicode="Ò" d="M414 749l-187 154l96 101l160 -181zM368 -10q-98 0 -170 50t-107 128q-34 77 -34 169q-1 171 85 272t249 101q99 0 171 -50t106 -128q34 -77 34 -169q0 -171 -86 -272t-248 -101zM388 80q88 0 130 68t42 190q0 58 -9 106t-30 89t-59 64t-91 23q-87 0 -129 -68t-43 -190 q0 -58 9 -106t30 -89t59 -64t91 -23z"/>
<glyph glyph-name="Oacute" horiz-adv-x="759" unicode="Ó" d="M368 -10q-98 0 -170 50t-107 128q-34 77 -34 169q-1 171 85 272t249 101q99 0 171 -50t106 -128q34 -77 34 -169q0 -171 -86 -272t-248 -101zM388 80q88 0 130 68t42 190q0 58 -9 106t-30 89t-59 64t-91 23q-87 0 -129 -68t-43 -190q0 -58 9 -106t30 -89t59 -64t91 -23z M370 750l-70 73l160 181l97 -100z"/>
<glyph glyph-name="Ocircumflex" horiz-adv-x="759" unicode="Ô" d="M368 -10q-98 0 -170 50t-107 128q-34 77 -34 169q-1 171 85 272t249 101q99 0 171 -50t106 -128q34 -77 34 -169q0 -171 -86 -272t-248 -101zM388 80q88 0 130 68t42 190q0 58 -9 106t-30 89t-59 64t-91 23q-87 0 -129 -68t-43 -190q0 -58 9 -106t30 -89t59 -64t91 -23z M267 757l-61 69l151 124h38l148 -118l-59 -73l-108 74z"/>
<glyph glyph-name="Otilde" horiz-adv-x="759" unicode="Õ" d="M456 761q-36 0 -72 18t-51 18q-16 0 -28 -12t-16 -27l-82 20q8 48 41 84t83 35q37 0 73 -18t49 -18q15 1 25 13t13 26l80 -20q-9 -57 -41 -88t-74 -31zM368 -10q-98 0 -170 50t-107 128q-34 77 -34 169q-1 171 85 272t249 101q99 0 171 -50t106 -128q34 -77 34 -169 q0 -171 -86 -272t-248 -101zM388 80q88 0 130 68t42 190q0 58 -9 106t-30 89t-59 64t-91 23q-87 0 -129 -68t-43 -190q0 -58 9 -106t30 -89t59 -64t91 -23z"/>
<glyph glyph-name="Odieresis" horiz-adv-x="759" unicode="Ö" d="M368 -10q-98 0 -170 50t-107 128q-34 77 -34 169q-1 171 85 272t249 101q99 0 171 -50t106 -128q34 -77 34 -169q0 -171 -86 -272t-248 -101zM388 80q88 0 130 68t42 190q0 58 -9 106t-30 89t-59 64t-91 23q-87 0 -129 -68t-43 -190q0 -58 9 -106t30 -89t59 -64t91 -23z M470 775q-34 0 -56 22t-21 59q-1 38 23 60t61 22q36 0 56 -20t20 -58q-1 -41 -23 -63t-60 -22zM262 775q-34 0 -56 22t-21 59q-1 38 23 60t61 22q36 0 56 -20t20 -58q-1 -41 -23 -63t-60 -22z"/>
<glyph glyph-name="multiply" horiz-adv-x="547" unicode="×" d="M146 74l-86 84l129 130l-127 127l84 84l127 -128l127 128l87 -85l-129 -128l128 -128l-83 -83l-128 127z"/>
<glyph glyph-name="Oslash" horiz-adv-x="759" unicode="Ø" d="M388 80q88 0 130 68t42 190q0 86 -20 150l-260 -373q43 -35 108 -35zM199 362q0 -98 25 -165l263 380q-45 43 -116 43q-87 0 -129 -68t-43 -190zM154 -70l-87 55l75 103q-85 99 -85 249q-1 171 85 272t249 101q87 0 155 -41l53 75l85 -55l-61 -86q79 -97 79 -240 q0 -171 -86 -272t-248 -101q-84 0 -148 36z"/>
<glyph glyph-name="Ugrave" horiz-adv-x="753" unicode="Ù" d="M390 749l-187 154l96 101l160 -181zM374 -14q-130 0 -208 76t-77 218v318l-6 103l144 5v-425q0 -104 40 -152t122 -48q75 0 121 50t46 150v317l-6 103l114 5v-425q0 -139 -74 -217t-216 -78z"/>
<glyph glyph-name="Uacute" horiz-adv-x="753" unicode="Ú" d="M374 -14q-130 0 -208 76t-77 218v318l-6 103l144 5v-425q0 -104 40 -152t122 -48q75 0 121 50t46 150v317l-6 103l114 5v-425q0 -139 -74 -217t-216 -78zM378 750l-70 73l160 181l97 -100z"/>
<glyph glyph-name="Ucircumflex" horiz-adv-x="753" unicode="Û" d="M374 -14q-130 0 -208 76t-77 218v318l-6 103l144 5v-425q0 -104 40 -152t122 -48q75 0 121 50t46 150v317l-6 103l114 5v-425q0 -139 -74 -217t-216 -78zM276 756l-61 69l151 124h38l148 -118l-59 -73l-108 74z"/>
<glyph glyph-name="Udieresis" horiz-adv-x="753" unicode="Ü" d="M374 -14q-130 0 -208 76t-77 218v318l-6 103l144 5v-425q0 -104 40 -152t122 -48q75 0 121 50t46 150v317l-6 103l114 5v-425q0 -139 -74 -217t-216 -78zM481 775q-33 0 -55 22t-22 59q0 38 24 60t60 22t56 -20t20 -58q0 -41 -22 -63t-61 -22zM273 775q-33 0 -55 22 t-22 59q0 38 24 60t60 22t56 -20t20 -58q0 -41 -22 -63t-61 -22z"/>
<glyph glyph-name="Yacute" horiz-adv-x="602" unicode="Ý" d="M319 750l-70 73l160 181l97 -100zM234 0v284l-186 324q-12 20 -26 43t-23 36l-9 13l158 5l178 -324l99 200q17 33 29 63t16 43l4 13h117q-36 -80 -76 -158l-143 -259v-190l5 -93h-143z"/>
<glyph glyph-name="Thorn" horiz-adv-x="605" unicode="Þ" d="M292 501h-58v-282h54q70 0 106 39t35 100q0 143 -137 143zM96 0v598l-6 102h144v-104h72q127 0 195 -64t68 -173q1 -97 -71 -167t-182 -69h-82v-30l5 -93h-143z"/>
<glyph glyph-name="germandbls" horiz-adv-x="652" unicode="ß" d="M468 -10q-34 0 -88 10t-74 11l8 92q17 -2 56 -8t67 -6q22 1 35 13t13 32q-1 29 -17 50t-40 36l-48 32t-40 45t-17 69q1 44 21 83t41 72t21 62q0 85 -84 85q-32 0 -58 -22t-25 -54v-499l6 -93h-139v410h-66v90h67v47q0 101 64 157t183 56q74 0 132 -44t58 -117 q0 -43 -14 -75t-29 -46q-15 -16 -29 -42t-14 -57q0 -22 16 -44q16 -23 41 -43q24 -20 48 -44q25 -24 41 -58q16 -36 16 -78q0 -54 -44 -88t-108 -34z"/>
<glyph glyph-name="agrave" horiz-adv-x="546" unicode="à" d="M290 571l-187 154l96 101l160 -181zM232 84q46 0 92 36q0 23 2 107q-48 -2 -85 -13q-66 -19 -66 -78q1 -24 15 -38t42 -14zM191 -10q-74 0 -112 38t-38 94q0 134 171 162q55 9 116 9v31q0 46 -28 70t-76 24q-37 0 -73 -6t-53 -10l-18 -6v87q67 27 172 27q113 0 162 -49 q47 -47 47 -125v-6q0 -21 -1 -72q-1 -52 -2 -94t-1 -64q0 -18 11 -18q8 0 18 5t14 10l6 5v-83q-32 -29 -78 -29q-63 0 -79 62q-68 -62 -158 -62z"/>
<glyph glyph-name="aacute" horiz-adv-x="546" unicode="á" d="M271 570l-70 73l160 181l97 -100zM232 84q46 0 92 36q0 23 2 107q-48 -2 -85 -13q-66 -19 -66 -78q1 -24 15 -38t42 -14zM191 -10q-74 0 -112 38t-38 94q0 134 171 162q55 9 116 9v31q0 46 -28 70t-76 24q-37 0 -73 -6t-53 -10l-18 -6v87q67 27 172 27q113 0 162 -49 q47 -47 47 -125v-6q0 -21 -1 -72q-1 -52 -2 -94t-1 -64q0 -18 11 -18q8 0 18 5t14 10l6 5v-83q-32 -29 -78 -29q-63 0 -79 62q-68 -62 -158 -62z"/>
<glyph glyph-name="acircumflex" horiz-adv-x="546" unicode="â" d="M157 582l-61 69l151 124h38l148 -118l-59 -73l-108 74zM232 84q46 0 92 36q0 23 2 107q-48 -2 -85 -13q-66 -19 -66 -78q1 -24 15 -38t42 -14zM191 -10q-74 0 -112 38t-38 94q0 134 171 162q55 9 116 9v31q0 46 -28 70t-76 24q-37 0 -73 -6t-53 -10l-18 -6v87 q67 27 172 27q113 0 162 -49q47 -47 47 -125v-6q0 -21 -1 -72q-1 -52 -2 -94t-1 -64q0 -18 11 -18q8 0 18 5t14 10l6 5v-83q-32 -29 -78 -29q-63 0 -79 62q-68 -62 -158 -62z"/>
<glyph glyph-name="atilde" horiz-adv-x="546" unicode="ã" d="M342 594q-36 0 -72 18t-51 18q-16 0 -28 -12t-16 -27l-82 20q8 47 41 83t83 36q37 0 73 -18t49 -18q15 0 25 12t13 27l80 -20q-9 -57 -41 -88t-74 -31zM232 84q46 0 92 36q0 23 2 107q-48 -2 -85 -13q-66 -19 -66 -78q1 -24 15 -38t42 -14zM191 -10q-74 0 -112 38t-38 94 q0 134 171 162q55 9 116 9v31q0 46 -28 70t-76 24q-37 0 -73 -6t-53 -10l-18 -6v87q67 27 172 27q113 0 162 -49q47 -47 47 -125v-6q0 -21 -1 -72q-1 -52 -2 -94t-1 -64q0 -18 11 -18q8 0 18 5t14 10l6 5v-83q-32 -29 -78 -29q-63 0 -79 62q-68 -62 -158 -62z"/>
<glyph glyph-name="adieresis" horiz-adv-x="546" unicode="ä" d="M360 597q-34 0 -56 22t-21 59q-1 38 23 60t61 22q36 0 56 -20t20 -58q-1 -41 -23 -63t-60 -22zM152 597q-34 0 -56 22t-21 59q-1 38 23 60t61 22q36 0 56 -20t20 -58q-1 -41 -23 -63t-60 -22zM232 84q46 0 92 36q0 23 2 107q-48 -2 -85 -13q-66 -19 -66 -78q1 -24 15 -38 t42 -14zM191 -10q-74 0 -112 38t-38 94q0 134 171 162q55 9 116 9v31q0 46 -28 70t-76 24q-37 0 -73 -6t-53 -10l-18 -6v87q67 27 172 27q113 0 162 -49q47 -47 47 -125v-6q0 -21 -1 -72q-1 -52 -2 -94t-1 -64q0 -18 11 -18q8 0 18 5t14 10l6 5v-83q-32 -29 -78 -29 q-63 0 -79 62q-68 -62 -158 -62z"/>
<glyph glyph-name="aring" horiz-adv-x="546" unicode="å" d="M267 583q-53 0 -89 30t-36 81t36 81t89 30q54 0 89 -30t35 -81t-35 -81t-89 -30zM267 656q22 0 22 38q0 36 -22 36q-11 0 -18 -10t-7 -26t8 -27t17 -11zM232 84q46 0 92 36q0 23 2 107q-48 -2 -85 -13q-66 -19 -66 -78q1 -24 15 -38t42 -14zM191 -10q-74 0 -112 38 t-38 94q0 134 171 162q55 9 116 9v31q0 46 -28 70t-76 24q-37 0 -73 -6t-53 -10l-18 -6v87q67 27 172 27q113 0 162 -49q47 -47 47 -125v-6q0 -21 -1 -72q-1 -52 -2 -94t-1 -64q0 -18 11 -18q8 0 18 5t14 10l6 5v-83q-32 -29 -78 -29q-63 0 -79 62q-68 -62 -158 -62z"/>
<glyph glyph-name="ae" horiz-adv-x="836" unicode="æ" d="M466 321l185 4q-1 51 -21 74t-59 23q-85 0 -105 -101zM175 144q-1 -15 9 -28q10 -14 26 -20t38 -7h4q20 -1 43 9q26 10 50 32q-18 40 -21 94q-149 -2 -149 -80zM213 -10q-86 0 -129 40t-43 102q1 60 47 101t124 53q55 9 116 9v21q0 52 -25 73t-75 21q-39 0 -76 -7 t-54 -13l-18 -7v95q67 32 190 32q101 0 142 -57q64 57 163 57q119 0 172 -78q42 -61 42 -147q0 -23 -3 -48h-327q3 -67 46 -107t112 -40q37 0 74 7t56 13l19 7v-93q-60 -34 -179 -34q-124 0 -198 72q-64 -72 -176 -72z"/>
<glyph glyph-name="ccedilla" horiz-adv-x="485" unicode="ç" d="M276 -212q-64 0 -116 20l24 61q39 -10 76 -10q33 0 33 22q-1 13 -17 17q-4 1 -8 1q-14 0 -33 -9l-13 15l31 88q-95 13 -149 79t-54 162q0 124 67 200t179 76q30 0 75 -10t67 -10l-10 -102q-24 2 -69 12t-68 11q-47 0 -77 -39t-29 -114q0 -76 38 -122t107 -46q27 0 54 7 t41 13l14 7v-94q-45 -28 -122 -32v-35q41 -4 65 -23t23 -53q1 -40 -35 -66t-94 -26z"/>
<glyph glyph-name="egrave" horiz-adv-x="560" unicode="è" d="M346 571l-187 154l96 101l160 -181zM190 321l185 4q-1 51 -21 74t-59 23q-42 0 -71 -28t-34 -73zM321 -10q-125 0 -199 67t-74 185q0 124 70 196t181 72q119 0 172 -78q42 -61 42 -147q0 -23 -3 -48h-327q3 -67 46 -107t112 -40q37 0 74 7t56 13l19 7v-93 q-60 -34 -169 -34z"/>
<glyph glyph-name="eacute" horiz-adv-x="560" unicode="é" d="M190 321l185 4q-1 51 -21 74t-59 23q-42 0 -71 -28t-34 -73zM321 -10q-125 0 -199 67t-74 185q0 124 70 196t181 72q119 0 172 -78q42 -61 42 -147q0 -23 -3 -48h-327q3 -67 46 -107t112 -40q37 0 74 7t56 13l19 7v-93q-60 -34 -169 -34zM297 571l-70 73l160 181l97 -100 z"/>
<glyph glyph-name="ecircumflex" horiz-adv-x="560" unicode="ê" d="M190 321l185 4q-1 51 -21 74t-59 23q-42 0 -71 -28t-34 -73zM321 -10q-125 0 -199 67t-74 185q0 124 70 196t181 72q119 0 172 -78q42 -61 42 -147q0 -23 -3 -48h-327q3 -67 46 -107t112 -40q37 0 74 7t56 13l19 7v-93q-60 -34 -169 -34zM193 582l-61 69l151 124h38 l148 -118l-59 -73l-108 74z"/>
<glyph glyph-name="edieresis" horiz-adv-x="560" unicode="ë" d="M190 321l185 4q-1 51 -21 74t-59 23q-42 0 -71 -28t-34 -73zM321 -10q-125 0 -199 67t-74 185q0 124 70 196t181 72q119 0 172 -78q42 -61 42 -147q0 -23 -3 -48h-327q3 -67 46 -107t112 -40q37 0 74 7t56 13l19 7v-93q-60 -34 -169 -34zM384 596q-34 0 -56 22t-21 59 q-1 39 23 61t61 21q36 -1 56 -21t20 -57q-1 -41 -23 -63t-60 -22zM176 596q-34 0 -56 22t-21 59q-1 39 23 61t61 21q36 -1 56 -21t20 -57q-1 -41 -23 -63t-60 -22z"/>
<glyph glyph-name="igrave" horiz-adv-x="291" unicode="ì" d="M177 571l-187 154l96 101l160 -181zM79 0v397l-6 103l139 5v-412l5 -93h-138z"/>
<glyph glyph-name="iacute" horiz-adv-x="291" unicode="í" d="M79 0v397l-6 103l139 5v-412l5 -93h-138zM145 572l-70 73l160 181l97 -100z"/>
<glyph glyph-name="icircumflex" horiz-adv-x="291" unicode="î" d="M79 0v397l-6 103l139 5v-412l5 -93h-138zM39 581l-61 69l151 124h38l148 -118l-59 -73l-108 74z"/>
<glyph glyph-name="idieresis" horiz-adv-x="291" unicode="ï" d="M79 0v397l-6 103l139 5v-412l5 -93h-138zM244 594q-34 0 -56 22t-21 59q-1 39 23 61t61 21q36 -1 56 -21t20 -57q-1 -41 -23 -63t-60 -22zM36 594q-34 0 -56 22t-21 59q-1 39 23 61t61 21q36 -1 56 -21t20 -57q-1 -41 -23 -63t-60 -22z"/>
<glyph glyph-name="eth" horiz-adv-x="582" unicode="ð" d="M384 303v17t-1 18q-41 29 -87 29q-50 0 -79 -38t-29 -101q0 -60 23 -102t73 -43q52 1 76 63t24 157zM208 505l-76 48l56 86q-43 19 -109 36l28 101q81 -18 141 -43l63 98l75 -50l-58 -90q195 -124 195 -384q1 -137 -63 -227t-181 -90q-106 0 -167 67t-61 162 q-1 108 59 176t164 68q46 0 91 -18q-28 92 -100 149z"/>
<glyph glyph-name="ntilde" horiz-adv-x="605" unicode="ñ" d="M388 593q-36 0 -72 18t-51 18q-16 0 -28 -12t-16 -27l-82 20q8 48 41 84t83 35q37 0 73 -18t49 -18q15 1 25 13t13 26l80 -20q-9 -57 -41 -88t-74 -31zM79 0v397l-6 103l132 5l3 -56q38 31 76 46t95 15q74 0 113 -48t39 -138v-241l5 -83h-138v309q0 101 -78 101 q-46 0 -110 -34q2 -27 2 -75v-218l5 -83h-138z"/>
<glyph glyph-name="ograve" horiz-adv-x="584" unicode="ò" d="M319 572l-187 154l96 101l160 -181zM279 -10q-107 0 -168 66t-61 177q0 129 68 203t187 74q107 0 168 -66t61 -177q0 -129 -68 -203t-187 -74zM294 80q51 0 78 40t27 117q-1 91 -25 137t-84 47q-52 -1 -78 -43t-27 -120q0 -82 27 -130t82 -48z"/>
<glyph glyph-name="oacute" horiz-adv-x="584" unicode="ó" d="M279 -10q-107 0 -168 66t-61 177q0 129 68 203t187 74q107 0 168 -66t61 -177q0 -129 -68 -203t-187 -74zM294 80q51 0 78 40t27 117q-1 91 -25 137t-84 47q-52 -1 -78 -43t-27 -120q0 -82 27 -130t82 -48zM287 572l-70 73l160 181l97 -100z"/>
<glyph glyph-name="ocircumflex" horiz-adv-x="584" unicode="ô" d="M279 -10q-107 0 -168 66t-61 177q0 129 68 203t187 74q107 0 168 -66t61 -177q0 -129 -68 -203t-187 -74zM294 80q51 0 78 40t27 117q-1 91 -25 137t-84 47q-52 -1 -78 -43t-27 -120q0 -82 27 -130t82 -48zM178 583l-61 69l151 124h38l148 -118l-59 -73l-108 74z"/>
<glyph glyph-name="otilde" horiz-adv-x="584" unicode="õ" d="M367 600q-37 0 -73 18t-50 18q-16 0 -28 -12t-16 -27l-82 20q8 47 41 83t83 36q38 0 74 -18t48 -18q15 0 25 12t13 27l80 -20q-10 -57 -42 -88t-73 -31zM279 -10q-107 0 -168 66t-61 177q0 129 68 203t187 74q107 0 168 -66t61 -177q0 -129 -68 -203t-187 -74zM294 80 q51 0 78 40t27 117q-1 91 -25 137t-84 47q-52 -1 -78 -43t-27 -120q0 -82 27 -130t82 -48z"/>
<glyph glyph-name="odieresis" horiz-adv-x="584" unicode="ö" d="M279 -10q-107 0 -168 66t-61 177q0 129 68 203t187 74q107 0 168 -66t61 -177q0 -129 -68 -203t-187 -74zM294 80q51 0 78 40t27 117q-1 91 -25 137t-84 47q-52 -1 -78 -43t-27 -120q0 -82 27 -130t82 -48zM392 597q-34 0 -56 22t-21 59q-1 38 23 60t61 22q36 0 56 -20 t20 -58q-1 -41 -23 -63t-60 -22zM184 597q-34 0 -56 22t-21 59q-1 38 23 60t61 22q36 0 56 -20t20 -58q-1 -41 -23 -63t-60 -22z"/>
<glyph glyph-name="divide" horiz-adv-x="527" unicode="÷" d="M270 541q32 0 54 -22t23 -56q-1 -37 -25 -59t-60 -22t-56 20t-20 55q0 40 23 62t61 22zM270 195q32 0 54 -22t23 -56q-1 -37 -25 -59t-60 -22t-56 20t-20 55q0 40 23 62t61 22zM53 228v114h421v-114h-421z"/>
<glyph glyph-name="oslash" horiz-adv-x="583" unicode="ø" d="M300 80q99 0 99 149q0 50 -4 82l-150 -220q24 -11 55 -11zM185 272q0 -66 9 -105l160 234q-26 20 -70 20q-99 0 -99 -149zM149 -54l-77 49l40 59q-62 65 -62 174q0 132 68 207t187 75q59 0 106 -21l43 64l77 -50l-48 -70q51 -63 51 -160q0 -131 -68 -207t-187 -76 q-48 0 -90 14z"/>
<glyph glyph-name="ugrave" horiz-adv-x="606" unicode="ù" d="M327 571l-187 154l96 101l160 -181zM527 500v-397l6 -103l-132 -5l-3 56q-38 -31 -76 -46t-95 -15q-74 0 -113 48t-39 138v241l-5 83h138v-309q0 -101 78 -101q46 0 110 34q-2 27 -2 75v218l-5 83h138z"/>
<glyph glyph-name="uacute" horiz-adv-x="606" unicode="ú" d="M527 500v-397l6 -103l-132 -5l-3 56q-38 -31 -76 -46t-95 -15q-74 0 -113 48t-39 138v241l-5 83h138v-309q0 -101 78 -101q46 0 110 34q-2 27 -2 75v218l-5 83h138zM305 571l-70 73l160 181l97 -100z"/>
<glyph glyph-name="ucircumflex" horiz-adv-x="606" unicode="û" d="M527 500v-397l6 -103l-132 -5l-3 56q-38 -31 -76 -46t-95 -15q-74 0 -113 48t-39 138v241l-5 83h138v-309q0 -101 78 -101q46 0 110 34q-2 27 -2 75v218l-5 83h138zM206 580l-61 69l151 124h38l148 -118l-59 -73l-108 74z"/>
<glyph glyph-name="udieresis" horiz-adv-x="606" unicode="ü" d="M527 500v-397l6 -103l-132 -5l-3 56q-38 -31 -76 -46t-95 -15q-74 0 -113 48t-39 138v241l-5 83h138v-309q0 -101 78 -101q46 0 110 34q-2 27 -2 75v218l-5 83h138zM397 591q-33 0 -55 22t-22 59q0 38 24 60t60 22t56 -20t20 -58q0 -41 -22 -63t-61 -22zM189 591 q-33 0 -55 22t-22 59q0 38 24 60t60 22t56 -20t20 -58q0 -41 -22 -63t-61 -22z"/>
<glyph glyph-name="yacute" horiz-adv-x="524" unicode="ý" d="M276 571l-70 73l160 181l97 -100zM235 -254l-129 6q29 80 87 185l16 29l-155 431l-42 103l147 5l96 -293q9 -26 15 -51t8 -37l3 -11h4q9 47 26 101l46 143q31 96 36 143h108q-7 -86 -56 -202l-126 -307q-23 -55 -44 -116t-31 -95z"/>
<glyph glyph-name="thorn" horiz-adv-x="614" unicode="þ" d="M293 80q66 0 100 47t34 120q-1 85 -31 124t-79 39q-53 0 -107 -33q2 -16 2 -76v-182q35 -39 81 -39zM79 -250v896l-6 103l137 5l-2 -297q53 53 147 53q97 0 153 -68t56 -165q0 -131 -68 -209t-173 -78q-63 0 -111 29v-186l5 -83h-138z"/>
<glyph glyph-name="OE" horiz-adv-x="1004" unicode="Œ" d="M406 82q53 0 96 9v513q-48 16 -94 16q-104 0 -156 -69t-52 -189q0 -126 57 -203t149 -77zM388 -10q-84 0 -148 29t-104 79q-38 50 -58 110t-20 129q0 173 82 273t248 100q49 0 124 -10h437l-5 -99l-304 9v-210l259 5l-5 -106l-254 8v-216l309 9l-5 -100h-428 q-50 -10 -128 -10z"/>
<glyph glyph-name="oe" horiz-adv-x="941" unicode="œ" d="M571 321l185 4q-1 51 -21 74t-59 23q-85 0 -105 -101zM300 80q50 0 80 44t30 100q-1 11 -1 22l1 18q0 66 -29 112t-83 45q-54 0 -84 -45t-29 -128q0 -74 27 -121t88 -47zM269 -10q-97 0 -158 68t-61 182q0 122 67 196t178 74q143 0 195 -116q53 116 190 116 q119 0 172 -78q42 -61 42 -147q0 -23 -3 -48h-327q3 -67 46 -107t112 -40q37 0 74 7t56 13l19 7v-93q-60 -34 -179 -34q-164 0 -212 128q-46 -128 -211 -128z"/>
<glyph glyph-name="Scaron" horiz-adv-x="549" unicode="Š" d="M231 -10q-49 0 -91 6t-60 12l-18 7v97q73 -23 169 -23q67 0 99 27t31 64q0 42 -22 70t-96 54q-92 34 -137 82t-45 125q0 92 62 147t163 55q49 1 113 -9t79 -11l-16 -100q-30 2 -80 11t-76 9q-108 0 -108 -89q0 -36 24 -64t88 -52q104 -40 146 -88t42 -130q0 -94 -70 -147 t-197 -53zM398 956l61 -69l-151 -124h-38l-148 118l59 73l108 -74z"/>
<glyph glyph-name="scaron" horiz-adv-x="455" unicode="š" d="M217 -10q-35 0 -89 10t-73 11l10 102q19 -2 73 -13t86 -11q75 0 75 40q0 19 -22 34t-74 35q-83 30 -117 64t-34 100q0 70 50 109t123 39q39 0 91 -10t74 -10l-10 -101q-29 2 -79 12t-81 10q-58 0 -58 -36q0 -19 17 -35t73 -35q80 -27 118 -65t39 -99q1 -75 -51 -113 t-141 -38zM331 776l61 -69l-151 -124h-38l-148 118l59 73l108 -74z"/>
<glyph glyph-name="Ydieresis" horiz-adv-x="602" unicode="Ÿ" d="M415 770q-33 0 -55 22t-22 59q0 39 24 61t60 21t56 -21t20 -57q0 -41 -22 -63t-61 -22zM207 770q-33 0 -55 22t-22 59q0 39 24 61t60 21t56 -21t20 -57q0 -41 -22 -63t-61 -22zM234 0v284l-186 324q-12 20 -26 43t-23 36l-9 13l158 5l178 -324l99 200q17 33 29 63t16 43 l4 13h117q-36 -80 -76 -158l-143 -259v-190l5 -93h-143z"/>
<glyph glyph-name="circumflex" horiz-adv-x="384" unicode="ˆ" d="M91 526l-61 69l151 124h38l148 -118l-59 -73l-108 74z"/>
<glyph glyph-name="tilde" horiz-adv-x="424" unicode="˜" d="M287 536q-37 0 -73 18t-50 18q-16 0 -28 -12t-16 -27l-82 20q8 47 41 83t83 36q38 0 74 -18t48 -18q15 0 25 12t13 27l80 -20q-10 -57 -42 -88t-73 -31z"/>
<glyph glyph-name="afii10023" horiz-adv-x="598" unicode="Ё" d="M96 0v598l-6 102h453l-5 -99q-39 5 -85 6l-219 3v-210l259 5l-5 -106l-254 8v-216l204 3l105 6l-5 -100h-442zM421 768q-33 0 -55 22t-22 59q0 39 24 61t60 21t56 -21t20 -57q0 -41 -22 -63t-61 -22zM213 768q-33 0 -55 22t-22 59q0 39 24 61t60 21t56 -21t20 -57 q0 -41 -22 -63t-61 -22z"/>
<glyph glyph-name="afii10051" horiz-adv-x="735" unicode="Ђ" d="M515 -57l-60 95q52 29 81 81t29 118q0 113 -116 113q-23 0 -45 -2t-32 -6l-10 -2v-247l5 -93h-143v609l-109 2q-23 1 -47 -1t-36 -4l-12 -2l9 96h536l-4 -95l-98 6l-101 -2v-181q45 22 118 22q109 0 163 -56t54 -148q-1 -100 -41 -174t-141 -129z"/>
<glyph glyph-name="afii10052" horiz-adv-x="533" unicode="Ѓ" d="M96 0v598l-6 102h423l-5 -109q-41 8 -107 8h-167v-506l5 -93h-143zM291 750l-70 73l160 181l97 -100z"/>
<glyph glyph-name="afii10053" horiz-adv-x="599" unicode="Є" d="M394 -10q-150 0 -244 94t-94 245q0 174 87 279t242 105q28 1 57 -3t61 -10t49 -7l-14 -96q-26 1 -74 11t-81 9q-83 0 -133 -62t-54 -154l280 4v-103l-276 4q4 -86 54 -152t137 -66q47 0 86 6t55 10l15 6v-95q-46 -25 -153 -25z"/>
<glyph glyph-name="afii10054" horiz-adv-x="549" unicode="Ѕ" d="M231 -10q-49 0 -91 6t-60 12l-18 7v97q73 -23 169 -23q67 0 99 27t31 64q0 42 -22 70t-96 54q-92 34 -137 82t-45 125q0 92 62 147t163 55q49 1 113 -9t79 -11l-16 -100q-30 2 -80 11t-76 9q-108 0 -108 -89q0 -36 24 -64t88 -52q104 -40 146 -88t42 -130q0 -94 -70 -147 t-197 -53z"/>
<glyph glyph-name="afii10055" horiz-adv-x="330" unicode="І" d="M96 0v598l-6 103l144 5v-613l5 -93h-143z"/>
<glyph glyph-name="afii10056" horiz-adv-x="330" unicode="Ї" d="M260 752q-34 0 -56 22t-21 59q-1 39 23 61t61 21q36 -1 56 -21t20 -57q-1 -41 -23 -63t-60 -22zM62 752q-34 0 -56 22t-21 59q-1 39 23 61t61 21q36 -1 56 -21t20 -57q-1 -41 -23 -63t-60 -22zM96 0v598l-6 103l144 5v-613l5 -93h-143z"/>
<glyph glyph-name="afii10057" horiz-adv-x="329" unicode="Ј" d="M64 -209l-76 61q14 20 34 44t27 33t16 22t13 21t8 21q10 29 10 97v508l-6 103l144 5v-615q0 -69 -18 -114q-10 -26 -31 -54t-41 -49t-80 -83z"/>
<glyph glyph-name="afii10058" horiz-adv-x="988" unicode="Љ" d="M611 95h31q92 0 132 41t41 99q0 55 -37 89t-112 34h-55v-263zM66 -12l-55 117q93 37 121 141t44 365q4 58 6 89h429v-247h91q99 -1 176 -59t77 -151q-1 -113 -69 -178t-194 -65h-219v606h-172q-17 -253 -34 -340q-33 -168 -126 -237q-32 -25 -75 -41z"/>
<glyph glyph-name="afii10059" horiz-adv-x="1083" unicode="Њ" d="M706 95h31q93 0 133 41t40 99q0 55 -37 89t-112 34h-55v-263zM96 0v598l-6 103l144 5v-299h334v191l-6 101l144 5v-251h91q99 -1 176 -59t77 -151q0 -113 -68 -178t-195 -65h-219v313h-334v-220l5 -93h-143z"/>
<glyph glyph-name="afii10060" horiz-adv-x="767" unicode="Ћ" d="M225 0v609l-103 2q-20 1 -46 -1t-40 -4l-15 -2l5 96h540l-4 -95l-84 4h-115v-189q52 30 160 30q95 0 143 -52t48 -162v-236h-138v216q0 74 -26 104t-103 30q-21 0 -42 -2t-31 -4l-11 -1v-250l5 -93h-143z"/>
<glyph glyph-name="afii10061" horiz-adv-x="652" unicode="Ќ" d="M495 -5l-215 317h-46v-219l5 -93h-143v598l-6 103l144 5v-301h58q16 23 32 45t28 38t24 36t19 31t17 29t15 26q3 6 13 24t12 22q2 3 12 23t10 21h133q-88 -157 -218 -321l208 -309l51 -70zM348 750l-70 73l160 181l97 -100z"/>
<glyph glyph-name="afii10062" horiz-adv-x="608" unicode="Ў" d="M316 0h-127q23 58 82 153l-215 444l-53 103l147 3l146 -309q12 -24 22 -54t16 -46l4 -17h3q14 58 39 119l60 145q18 43 30 83t16 58l4 18h107q-21 -85 -82 -225l-123 -279q-30 -69 -49 -118t-23 -64zM327 761q-101 0 -200 86l86 88q9 -7 33 -33t41 -38q17 -10 40 -10 q15 0 29 4t28 14t22 16q8 7 25 22q16 15 22 21l58 -90q-86 -80 -184 -80z"/>
<glyph glyph-name="afii10145" horiz-adv-x="762" unicode="Џ" d="M326 -216l-8 216h-222v598l-6 103l144 5v-612h294v504l-6 103l144 5v-613l5 -93h-230v-120l5 -90z"/>
<glyph glyph-name="afii10017" d="M280 480l-81 -240h203l-87 240l-16 61h-4q-5 -31 -15 -61zM491 -4l-56 153h-267q-29 -91 -38 -149h-107q9 64 49 177l188 520l109 6l216 -583q12 -32 24 -62t19 -43l6 -13z" unicode="А"/>
<glyph glyph-name="afii10018" horiz-adv-x="623" unicode="Б" d="M234 92h64q70 0 106 32t35 88q-1 54 -35 86t-106 32h-64v-238zM96 0v598l-6 102h433l-3 -104q-47 8 -107 9l-179 4v-186h72q137 1 205 -53t68 -155q1 -95 -73 -155t-200 -60h-210z"/>
<glyph glyph-name="afii10019" horiz-adv-x="641" unicode="В" d="M233 412h145q5 4 13 12t21 32q13 25 13 53q0 45 -28 73t-88 28h-76v-198zM233 90h96q58 0 90 30t32 83q1 53 -29 86t-92 33h-97v-232zM96 0v598l-6 102h230q111 0 175 -48t64 -128q0 -119 -118 -153v-4q70 -14 109 -56t39 -106q-1 -97 -75 -151t-185 -54h-233z"/>
<glyph glyph-name="afii10020" horiz-adv-x="533" unicode="Г" d="M96 0v598l-6 102h423l-5 -109q-41 8 -107 8h-167v-506l5 -93h-143z"/>
<glyph glyph-name="afii10021" horiz-adv-x="737" unicode="Д" d="M196 92h282v516h-176q-16 -346 -106 -516zM19 -206l-10 298h62q59 93 84 240t36 368h425v-608h73v-202l5 -90l-115 -6l-8 206h-442v-110l5 -90z"/>
<glyph glyph-name="afii10022" horiz-adv-x="598" unicode="Е" d="M96 0v598l-6 102h453l-5 -99q-39 5 -85 6l-219 3v-210l259 5l-5 -106l-254 8v-216l204 3l105 6l-5 -100h-442z"/>
<glyph glyph-name="afii10024" horiz-adv-x="986" unicode="Ж" d="M826 -5l-226 312h-41v-214l5 -93h-143v307h-40l-226 -307h-153q31 38 51 65l224 303q-181 223 -242 331l131 6q47 -94 203 -302h52v195l-6 103l144 5v-303h55q108 147 140 195t62 102h124q-54 -105 -234 -327l221 -303l57 -70z"/>
<glyph glyph-name="afii10025" horiz-adv-x="523" unicode="З" d="M201 -10q-43 0 -83 6t-59 12l-19 7v98q72 -23 158 -23q58 0 94 32t36 91q0 47 -30 75t-81 28h-70v93h55q54 1 84 29t30 78q0 48 -29 76t-75 27q-32 1 -88 -9t-66 -11l-14 94q16 1 49 7t63 10t62 3q108 0 172 -48t64 -140q0 -57 -36 -101t-95 -59v-3q59 -4 101 -48 t42 -110q0 -94 -72 -154t-193 -60z"/>
<glyph glyph-name="afii10026" horiz-adv-x="782" unicode="И" d="M96 0v598l-6 103l141 5v-425l-6 -99l5 -1q18 45 43 81l300 439l113 5v-613l5 -93h-140v416l4 105l-4 1q-21 -50 -47 -89l-295 -433h-113z"/>
<glyph glyph-name="afii10027" horiz-adv-x="782" unicode="Й" d="M96 0v598l-6 103l141 5v-425l-6 -99l5 -1q18 45 43 81l300 439l113 5v-613l5 -93h-140v416l4 105l-4 1q-21 -50 -47 -89l-295 -433h-113zM395 767q-106 0 -200 81l86 92q11 -10 33 -36t39 -38q18 -12 42 -12t42 12q17 12 39 38t33 36l86 -92q-94 -81 -200 -81z"/>
<glyph glyph-name="afii10028" horiz-adv-x="652" unicode="К" d="M495 -5l-215 317h-46v-219l5 -93h-143v598l-6 103l144 5v-301h58q16 23 32 45t28 38t24 36t19 31t17 29t15 26q3 6 13 24t12 22q2 3 12 23t10 21h133q-88 -157 -218 -321l208 -309l51 -70z"/>
<glyph glyph-name="afii10029" horiz-adv-x="703" unicode="Л" d="M62 -12l-55 117q25 11 45 25t35 37q16 23 27 46q10 23 20 62t16 75t10 98q6 60 10 114t8 138h429v-607l5 -93h-143v606h-174q-5 -91 -9 -153q-4 -63 -14 -125q-8 -62 -19 -104t-27 -82t-40 -66q-24 -27 -54 -49t-70 -39z"/>
<glyph glyph-name="afii10030" horiz-adv-x="922" unicode="М" d="M96 0v587l-6 114l119 5l211 -321q11 -16 20 -33t12 -26l4 -8h3q12 28 33 60l210 323l124 5v-613l5 -93h-139v425l4 109l-4 1q-9 -28 -40 -75l-188 -290h-43l-171 257l-54 89l-3 -1q7 -43 7 -110v-322l5 -83h-109z"/>
<glyph glyph-name="afii10031" horiz-adv-x="782" unicode="Н" d="M96 0v598l-6 103l144 5v-297h314v189l-6 103l144 5v-613l5 -93h-143v315h-314v-222l5 -93h-143z"/>
<glyph glyph-name="afii10032" horiz-adv-x="759" unicode="О" d="M368 -10q-98 0 -170 50t-107 128q-34 77 -34 169q-1 171 85 272t249 101q99 0 171 -50t106 -128q34 -77 34 -169q0 -171 -86 -272t-248 -101zM388 80q88 0 130 68t42 190q0 58 -9 106t-30 89t-59 64t-91 23q-87 0 -129 -68t-43 -190q0 -58 9 -106t30 -89t59 -64t91 -23z "/>
<glyph glyph-name="afii10033" horiz-adv-x="752" unicode="П" d="M96 0v597l-6 103h566v-607l5 -93h-143v606h-284v-513l5 -93h-143z"/>
<glyph glyph-name="afii10034" horiz-adv-x="605" unicode="Р" d="M234 340h50q73 0 109 38t36 108q0 54 -35 88t-102 34h-58v-268zM96 0v598l-6 102h216q123 0 193 -62t70 -147q1 -103 -73 -173t-196 -71h-66v-154l5 -93h-143z"/>
<glyph glyph-name="afii10035" horiz-adv-x="594" unicode="С" d="M404 -10q-162 0 -255 94t-93 245q0 174 87 279t242 105q28 1 57 -3t61 -10t49 -7l-14 -98q-26 1 -74 11t-81 9q-85 0 -135 -68t-50 -183q0 -122 51 -198t161 -76q36 0 68 5t47 9l15 5l17 -90q-52 -29 -153 -29z"/>
<glyph glyph-name="afii10036" horiz-adv-x="589" unicode="Т" d="M227 0v605l-117 2q-18 1 -40 -1t-34 -4l-13 -2l5 100h540l-4 -99q-32 3 -80 4h-119v-512l5 -93h-143z"/>
<glyph glyph-name="afii10037" horiz-adv-x="608" unicode="У" d="M316 0h-127q23 58 82 153l-215 444l-53 103l147 3l146 -309q12 -24 22 -54t16 -46l4 -17h3q14 58 39 119l60 145q18 43 30 83t16 58l4 18h107q-21 -85 -82 -225l-123 -279q-30 -69 -49 -118t-23 -64z"/>
<glyph glyph-name="afii10038" horiz-adv-x="846" unicode="Ф" d="M360 169v393q-69 0 -126 -50t-57 -146q0 -100 52 -148t131 -49zM492 169q76 1 130 49t53 148q1 96 -55 146t-128 50v-393zM359 -20l1 101q-158 1 -238 85t-80 200q0 122 78 202t240 81l-5 101l137 5v-106q160 -1 239 -81t79 -202q0 -55 -18 -104q-18 -48 -56 -90 q-36 -42 -99 -66t-145 -25l5 -101h-138z"/>
<glyph glyph-name="afii10039" horiz-adv-x="654" unicode="Х" d="M483 -5l-171 275l-73 -120l-90 -150h-125q39 82 116 183l117 160l-162 251l-73 106l162 5l155 -263l84 122q18 28 37 62t28 55l10 21h122q-24 -73 -93 -166l-129 -173l175 -267l66 -96z"/>
<glyph glyph-name="afii10040" horiz-adv-x="787" unicode="Ц" d="M629 -206l-8 206h-525v598l-6 103l144 5v-612h294v504l-6 103l144 5v-612h73v-204l5 -90z"/>
<glyph glyph-name="afii10041" horiz-adv-x="700" unicode="Ч" d="M466 0v278q-52 -23 -154 -23q-132 -1 -196 69t-65 191v83l-6 103l144 5v-178q1 -96 41 -138t121 -41q30 -1 59 3t42 8l14 3v235l-6 103l144 5v-613l5 -93h-143z"/>
<glyph glyph-name="afii10042" horiz-adv-x="1042" unicode="Ш" d="M96 0v598l-6 103l144 5v-612h218v504l-6 103l144 5v-612h218v504l-6 103l144 5v-613l5 -93h-855z"/>
<glyph glyph-name="afii10043" horiz-adv-x="1067" unicode="Щ" d="M909 -206l-8 206h-805v598l-6 103l144 5v-612h218v504l-6 103l144 5v-612h218v504l-6 103l144 5v-612h73v-204l5 -90z"/>
<glyph glyph-name="afii10044" horiz-adv-x="706" unicode="Ъ" d="M327 95h47q86 -1 122 37t36 94q0 132 -157 132h-48v-263zM189 0v606h-70q-23 0 -47 -2t-38 -4l-13 -1l7 101h299v-247h82q115 -1 189 -55t74 -150q0 -110 -70 -179t-193 -69h-220z"/>
<glyph glyph-name="afii10045" horiz-adv-x="890" unicode="Ы" d="M234 95h47q86 -1 122 37t36 94q0 132 -157 132h-48v-263zM656 0v598l-6 103l144 5v-613l5 -93h-143zM96 0v598l-6 102l144 5v-252h82q116 -1 190 -55t73 -150q1 -110 -69 -179t-194 -69h-220z"/>
<glyph glyph-name="afii10046" horiz-adv-x="613" unicode="Ь" d="M234 95h47q86 -1 122 37t36 94q0 132 -157 132h-48v-263zM96 0v598l-6 102l144 5v-252h82q116 -1 190 -55t73 -150q1 -110 -69 -179t-194 -69h-220z"/>
<glyph glyph-name="afii10047" horiz-adv-x="585" unicode="Э" d="M115 297v108l269 -5q-8 98 -58 156t-147 57q-29 -1 -59 -5t-46 -9l-17 -5v90q53 29 159 29q142 -1 227 -95t85 -244q0 -102 -35 -188t-109 -141t-175 -55q-28 0 -57 4t-61 8q-32 6 -49 8l14 98q26 0 74 -10t81 -10q75 0 119 58t53 159z"/>
<glyph glyph-name="afii10048" horiz-adv-x="1035" unicode="Ю" d="M664 80q82 0 127 70t45 188q0 58 -9 106t-30 89t-59 64t-91 23q-83 0 -127 -70t-45 -188q0 -58 9 -106t30 -89t59 -64t91 -23zM644 -10q-140 0 -222 94t-89 231h-99v-222l5 -93h-143v598l-6 103l144 5v-297h103q17 141 101 221t229 80q99 0 171 -50t106 -128 q34 -77 34 -169q0 -171 -86 -272t-248 -101z"/>
<glyph glyph-name="afii10049" horiz-adv-x="644" unicode="Я" d="M351 342h59v263h-56q-139 0 -139 -131q1 -66 37 -99t99 -33zM28 0l174 281q-57 21 -92 73t-35 120q0 102 72 164t190 62h211v-598l6 -102l-144 -5v252h-95l-141 -247h-146z"/>
<glyph glyph-name="afii10065" horiz-adv-x="545" unicode="а" d="M229 84q46 0 92 36q0 23 2 107q-48 -2 -85 -13q-66 -19 -66 -78q0 -24 14 -38t43 -14zM188 -10q-74 0 -112 38t-38 94q0 134 171 162q55 9 116 9v31q1 46 -27 70t-77 24q-37 0 -73 -6t-54 -10l-17 -6v87q67 27 172 27q113 0 162 -49q47 -47 47 -125v-6q0 -21 -1 -72 q-1 -52 -2 -94t-1 -64q0 -18 11 -18q7 0 17 5t16 10l5 5v-83q-32 -29 -78 -29q-63 0 -79 62q-68 -62 -158 -62z"/>
<glyph glyph-name="afii10066" horiz-adv-x="592" unicode="б" d="M297 76q57 0 87 46t29 129q-1 63 -29 99t-78 37q-55 0 -85 -41t-30 -117q1 -67 29 -110t77 -43zM306 -10q-116 0 -180 74t-64 223q0 106 14 182q14 75 51 135q35 60 99 94t158 43q46 5 78 10t40 7l8 3l23 -110q-32 -14 -135 -24q-123 -13 -178 -65t-71 -172l5 -1 q17 45 64 72t107 27q99 0 159 -62t60 -168q0 -124 -66 -196t-172 -72z"/>
<glyph glyph-name="afii10067" horiz-adv-x="548" unicode="в" d="M203 299h84q29 -1 47 15t19 43q0 56 -73 56h-77v-114zM203 87h91q35 -1 57 17t22 47q-1 25 -21 43t-65 18h-84v-125zM76 0v397q0 29 -2 55t-2 37l-2 11h230q88 0 133 -33t45 -90q0 -44 -24 -75t-63 -40v-3q49 -5 81 -33t31 -78q0 -148 -203 -148h-224z"/>
<glyph glyph-name="afii10068" horiz-adv-x="430" unicode="г" d="M76 0v397l-6 103h343l-4 -102q-24 5 -60 5l-140 2v-322l5 -83h-138z"/>
<glyph glyph-name="afii10069" horiz-adv-x="612" unicode="д" d="M185 92h192v315h-123q-6 -123 -21 -192t-48 -123zM25 -167l-10 259h48q41 50 58 136t27 272h362v-408h63v-171l5 -83l-115 -5l-7 167h-321v-79l5 -83z"/>
<glyph glyph-name="afii10070" horiz-adv-x="554" unicode="е" d="M187 321l185 4q-1 51 -21 74t-59 23q-42 0 -71 -28t-34 -73zM318 -10q-126 0 -200 67t-73 185q0 124 70 196t181 72q119 0 172 -78q42 -61 42 -147q0 -23 -3 -48h-327q3 -67 46 -107t112 -40q37 0 74 7t56 13l19 7v-93q-60 -34 -169 -34z"/>
<glyph glyph-name="afii10072" horiz-adv-x="803" unicode="ж" d="M650 -5l-150 216h-32v-118l5 -93h-138v211h-31l-151 -211h-148q29 28 65 75l146 188l-91 108q-28 33 -50 65t-31 48l-8 16l127 1q10 -33 69 -116l60 -89h43v101l-6 103l139 5v-209h47l58 89q23 36 39 65t20 40l4 10h120q-23 -58 -80 -129l-85 -106l142 -190 q17 -21 33 -39t24 -28l8 -8z"/>
<glyph glyph-name="afii10073" horiz-adv-x="464" unicode="з" d="M184 -10q-43 0 -80 8t-52 16l-16 9v89q56 -27 140 -27q44 1 74 17t30 49q0 60 -77 60h-72v93h62q75 0 75 55q0 23 -18 39t-52 16q-22 0 -46 -4t-55 -10q-32 -6 -41 -7l-16 96q12 2 46 8q34 5 62 9t57 4q85 0 143 -33t58 -102q0 -89 -95 -115v-3q107 -17 107 -109 q0 -70 -59 -114t-175 -44z"/>
<glyph glyph-name="afii10074" horiz-adv-x="632" unicode="и" d="M76 0v397l-6 103l137 5v-281l-4 -84h4q16 37 37 70l179 290l133 5v-412l5 -93h-136v257q-1 25 1 49t4 35l2 11h-5q-14 -40 -44 -86l-174 -266h-133z"/>
<glyph glyph-name="afii10075" horiz-adv-x="632" unicode="й" d="M76 0v397l-6 103l137 5v-281l-4 -84h4q16 37 37 70l179 290l133 5v-412l5 -93h-136v257q-1 25 1 49t4 35l2 11h-5q-14 -40 -44 -86l-174 -266h-133zM321 598q-106 0 -200 81l86 88q9 -8 32 -34q23 -27 41 -37t41 -10q21 0 39 8t28 16t30 27q19 18 29 26l69 -84 q-87 -81 -195 -81z"/>
<glyph glyph-name="afii10076" horiz-adv-x="549" unicode="к" d="M384 -2l-130 212h-45v-117l5 -93h-138v397l-6 103l139 5v-208h41l71 106q19 29 33 53t20 34l6 10h129q-14 -32 -83 -119l-80 -100l137 -205q11 -17 25 -36t24 -30l9 -10z"/>
<glyph glyph-name="afii10077" horiz-adv-x="574" unicode="л" d="M62 -17l-54 104q41 23 64 47q22 24 38 74q16 48 22 112t10 180h356v-417l5 -83h-138v407h-111q-8 -191 -47 -289t-145 -135z"/>
<glyph glyph-name="afii10078" horiz-adv-x="742" unicode="м" d="M74 0l3 397l-4 103l116 5l134 -209q14 -22 24 -40t13 -24l3 -6h5l39 62l140 212l115 5l6 -412l7 -93h-129l-6 238q0 26 2 54t2 42l2 15l-4 1q-12 -34 -45 -83l-126 -187h-41l-119 180q-13 16 -23 36t-14 31l-5 11l-5 -2q5 -40 5 -82l-1 -161q0 -19 2 -43t2 -37l2 -13 h-100z"/>
<glyph glyph-name="afii10079" horiz-adv-x="607" unicode="н" d="M76 0v397l-6 103l139 5v-204h189v96l-6 103l139 5v-412l5 -93h-138v207h-189v-114l5 -93h-138z"/>
<glyph glyph-name="afii10080" horiz-adv-x="578" unicode="о" d="M276 -10q-107 0 -168 66t-61 177q0 129 68 203t187 74q107 0 168 -66t61 -177q-1 -129 -69 -203t-186 -74zM291 80q51 0 78 40t27 117q0 91 -24 137t-85 47q-53 -1 -79 -43t-26 -120q0 -82 27 -130t82 -48z"/>
<glyph glyph-name="afii10081" horiz-adv-x="599" unicode="п" d="M76 0v397l-6 103h453v-417l5 -83h-138v407h-181v-324l5 -83h-138z"/>
<glyph glyph-name="afii10082" horiz-adv-x="608" unicode="р" d="M298 80q60 0 93 47t33 120q0 85 -30 124t-80 39q-53 0 -107 -33q2 -16 2 -76v-191q34 -30 89 -30zM76 -250v647l-6 103l132 5l3 -48q31 29 63 41t84 12q96 0 152 -68t57 -165q1 -131 -67 -209t-174 -78q-32 0 -60 7t-40 15l-11 7v-186l5 -83h-138z"/>
<glyph glyph-name="afii10083" horiz-adv-x="478" unicode="с" d="M294 -10q-116 0 -182 68t-66 176q0 124 67 200t179 76q30 0 75 -10t67 -10l-10 -102q-24 2 -69 12t-68 11q-47 0 -77 -39t-29 -114q0 -76 38 -122t107 -46q27 0 54 7t41 13l14 7v-94q-52 -33 -141 -33z"/>
<glyph glyph-name="afii10084" horiz-adv-x="461" unicode="т" d="M166 0v408l-63 -2l-85 -4l5 98h420l-4 -98q-30 5 -66 6l-74 2v-327l5 -83h-138z"/>
<glyph glyph-name="afii10085" horiz-adv-x="516" unicode="у" d="M231 -254l-129 6q29 80 87 185l16 29l-155 431l-42 103l147 5l96 -293q9 -26 15 -51t8 -37l3 -11h4q9 47 26 101l46 143q31 96 36 143h108q-7 -86 -56 -202l-126 -307q-23 -55 -44 -116t-31 -95z"/>
<glyph glyph-name="afii10086" horiz-adv-x="832" unicode="ф" d="M540 76q48 0 78 48t30 134q0 78 -27 120t-77 43q-16 1 -32 -3t-22 -7l-8 -3v-317q15 -15 58 -15zM288 79q15 -1 31 3t24 7l8 3v317q-15 15 -49 15q-55 0 -86 -48t-31 -136q0 -76 27 -118t76 -43zM351 -250v267q-36 -27 -99 -27q-104 0 -154 68t-50 172q0 128 66 204 t168 76q18 0 36 -4t26 -10l7 -4v155l-6 103l137 5v-272q40 27 99 27q103 0 153 -68t51 -172q0 -128 -65 -204t-161 -76q-22 0 -41 4t-28 10l-8 4v-175l5 -83h-136z"/>
<glyph glyph-name="afii10087" horiz-adv-x="548" unicode="х" d="M382 -5l-125 175l-23 -34q-26 -39 -48 -73t-29 -49l-8 -14h-128q53 78 108 146l76 95l-122 176q-14 21 -30 41t-25 32l-8 10l156 5l113 -173l31 48l75 120h116q-46 -76 -113 -164l-58 -77l139 -183l59 -76z"/>
<glyph glyph-name="afii10088" horiz-adv-x="637" unicode="ц" d="M491 -167l-7 167h-408v397l-6 103l139 5v-413h191v305l-6 103l139 5v-413h68v-171l5 -83z"/>
<glyph glyph-name="afii10089" horiz-adv-x="551" unicode="ч" d="M342 0v192q-41 -31 -118 -31q-78 0 -130 44t-52 133v59l-6 103l139 5v-148q0 -100 95 -100q21 0 39 4t25 8l8 4v124l-6 103l139 5v-412l5 -93h-138z"/>
<glyph glyph-name="afii10090" horiz-adv-x="869" unicode="ш" d="M76 0v397l-6 103l139 5v-412h159v304l-6 103l139 5v-412h159v304l-6 103l139 5v-422l5 -83h-722z"/>
<glyph glyph-name="afii10091" horiz-adv-x="897" unicode="щ" d="M751 -167l-7 167h-668v397l-6 103l139 5v-413h159v305l-6 103l139 5v-413h159v305l-6 103l139 5v-413h68v-171l5 -83z"/>
<glyph glyph-name="afii10092" horiz-adv-x="597" unicode="ъ" d="M280 88h57q37 0 63 22t25 58q0 35 -25 57t-63 22h-57v-159zM145 0v409h-43l-82 -5l4 96h256v-165h85q109 1 155 -45t46 -116q0 -34 -9 -62t-31 -54t-62 -42q-41 -16 -99 -16h-220z"/>
<glyph glyph-name="afii10093" horiz-adv-x="761" unicode="ы" d="M209 88h57q36 0 62 22t26 58q0 35 -25 57t-63 22h-57v-159zM552 0v397l-6 103l139 5v-412l5 -93h-138zM76 0v397l-6 103l139 5v-170h77q93 0 151 -40t58 -121q1 -82 -59 -128t-150 -46h-210z"/>
<glyph glyph-name="afii10094" horiz-adv-x="525" unicode="ь" d="M209 88h57q36 0 62 22t26 58q0 35 -25 57t-63 22h-57v-159zM76 0v397l-6 103l139 5v-170h77q93 0 151 -40t58 -121q1 -82 -59 -128t-150 -46h-210z"/>
<glyph glyph-name="afii10095" horiz-adv-x="477" unicode="э" d="M170 -10q-34 0 -67 7t-49 14l-16 7v95q49 -23 128 -23q114 0 128 117l-180 -9v103l180 -7q-3 50 -31 84t-78 33q-29 0 -75 -10t-58 -12l-20 100q14 2 44 8q30 5 56 9t55 4q105 0 175 -64t70 -183q0 -125 -72 -199t-190 -74z"/>
<glyph glyph-name="afii10096" horiz-adv-x="829" unicode="ю" d="M543 80q54 0 79 48t25 115q0 178 -116 178q-56 -1 -82 -47t-26 -121q1 -77 29 -125t91 -48zM522 -6q-104 0 -166 57t-68 156h-79v-114l5 -93h-138v397l-6 103l139 5v-204h85q18 98 85 151t169 53q108 0 171 -63t63 -169q0 -131 -70 -205t-190 -74z"/>
<glyph glyph-name="afii10097" horiz-adv-x="541" unicode="я" d="M276 246h58v161h-59q-41 -1 -61 -25t-20 -55q0 -35 22 -58t60 -23zM32 0l116 190q-42 14 -67 50t-25 88q0 82 58 127t151 45h200v-407l5 -93h-138v157h-75l-86 -157h-139z"/>
<glyph glyph-name="afii10071" horiz-adv-x="554" unicode="ё" d="M187 321l185 4q-1 51 -21 74t-59 23q-42 0 -71 -28t-34 -73zM318 -10q-126 0 -200 67t-73 185q0 124 70 196t181 72q119 0 172 -78q42 -61 42 -147q0 -23 -3 -48h-327q3 -67 46 -107t112 -40q37 0 74 7t56 13l19 7v-93q-60 -34 -169 -34zM399 596q-33 0 -55 22t-22 59 q0 39 24 61t60 21t56 -21t20 -57q0 -41 -22 -63t-61 -22zM191 596q-33 0 -55 22t-22 59q0 39 24 61t60 21t56 -21t20 -57q0 -41 -22 -63t-61 -22z"/>
<glyph glyph-name="afii10099" horiz-adv-x="603" unicode="ђ" d="M381 -219l-66 61q55 58 75 113t20 133v129q0 71 -26 102t-91 31q-24 0 -45 -3t-30 -5l-10 -3q1 -28 1 -58v-198l5 -83h-138v540h-75v93h75v14l-6 103l139 5l-1 -122h174v-93h-175v-114q70 24 135 24q88 0 142 -50t54 -155v-157q0 -86 -37 -160t-120 -147z"/>
<glyph glyph-name="afii10100" horiz-adv-x="430" unicode="ѓ" d="M76 0v397l-6 103h343l-4 -102q-24 5 -60 5l-140 2v-322l5 -83h-138zM236 572l-70 73l160 181l97 -100z"/>
<glyph glyph-name="afii10101" horiz-adv-x="468" unicode="є" d="M298 -10q-119 0 -186 68t-67 182t67 192t174 78q36 0 80 -10t64 -10l-17 -103q-25 1 -63 14t-69 13q-37 0 -67 -31t-32 -89l178 7v-103l-175 7q5 -51 39 -83t86 -32q32 0 62 7t43 13l14 7v-94q-50 -33 -131 -33z"/>
<glyph glyph-name="afii10102" horiz-adv-x="449" unicode="ѕ" d="M214 -10q-34 0 -88 10t-74 11l10 102q19 -2 73 -13t86 -11q75 0 75 40q0 19 -22 34t-74 35q-83 30 -117 64t-34 100q0 70 50 109t123 39q40 0 92 -10t73 -10l-10 -101q-29 2 -79 12t-81 10q-58 0 -58 -36q0 -19 17 -35t73 -35q81 -27 119 -65t38 -99q0 -75 -52 -113 t-140 -38z"/>
<glyph glyph-name="afii10103" horiz-adv-x="285" unicode="і" d="M136 596q-32 0 -54 20t-21 53q0 33 23 51t59 19q34 0 54 -18t20 -50q0 -35 -22 -55t-59 -20zM76 0v397l-6 103l139 5v-412l5 -93h-138z"/>
<glyph glyph-name="afii10104" horiz-adv-x="285" unicode="ї" d="M253 576q-31 0 -51 20t-19 52q0 35 21 54t54 19q67 0 67 -69q1 -36 -19 -56t-53 -20zM41 576q-31 0 -51 20t-19 52q0 35 21 54t54 19q32 0 50 -18t17 -51q1 -36 -19 -56t-53 -20zM76 0v397l-6 103l139 5v-412l5 -93h-138z"/>
<glyph glyph-name="afii10105" horiz-adv-x="285" unicode="ј" d="M140 596q-32 0 -54 20t-21 53q0 33 23 51t59 19q34 0 54 -18t20 -50q0 -35 -22 -55t-59 -20zM47 -257l-63 50q49 63 76 121q16 31 16 112v371l-6 103l139 5v-479q0 -76 -19 -111q-30 -58 -143 -172z"/>
<glyph glyph-name="afii10106" horiz-adv-x="823" unicode="љ" d="M498 86h58q42 0 68 21t26 56q0 84 -85 84h-67v-161zM62 -17l-54 103q50 28 74 62t40 114q16 82 20 238h356v-167h87q93 -1 151 -43t58 -123q0 -75 -55 -121t-147 -46h-227v407h-111q-8 -198 -47 -293t-145 -131z"/>
<glyph glyph-name="afii10107" horiz-adv-x="842" unicode="њ" d="M516 86h58q42 0 68 21t26 56q0 84 -85 84h-67v-161zM76 0v397l-6 103l139 5v-204h174v96l-6 103l139 5v-172h87q93 0 151 -40t58 -126q0 -79 -54 -123t-148 -44h-227v207h-174v-114l5 -93h-138z"/>
<glyph glyph-name="afii10108" horiz-adv-x="612" unicode="ћ" d="M76 0v540h-75v93h75v14l-6 103l139 5l-1 -122h174v-93h-175v-114q70 24 135 24q88 0 147 -50t59 -155v-162l5 -83h-143v217q0 133 -126 133q-19 0 -39 -3t-31 -5l-10 -3q5 -22 5 -58v-198l5 -83h-138z"/>
<glyph glyph-name="afii10109" horiz-adv-x="549" unicode="ќ" d="M384 -2l-130 212h-45v-117l5 -93h-138v397l-6 103l139 5v-208h41l71 106q19 29 33 53t20 34l6 10h129q-14 -32 -83 -119l-80 -100l137 -205q11 -17 25 -36t24 -30l9 -10zM300 571l-70 73l160 181l97 -100z"/>
<glyph glyph-name="afii10110" horiz-adv-x="516" unicode="ў" d="M231 -254l-129 6q29 80 87 185l16 29l-155 431l-42 103l147 5l96 -293q9 -26 15 -51t8 -37l3 -11h4q9 47 26 101l46 143q31 96 36 143h108q-7 -86 -56 -202l-126 -307q-23 -55 -44 -116t-31 -95zM272 598q-106 0 -200 81l86 88q9 -8 32 -34q22 -27 40 -37t42 -10 q20 0 38 8t30 16q10 8 29 27q19 18 29 26l69 -84q-87 -81 -195 -81z"/>
<glyph glyph-name="afii10193" horiz-adv-x="609" unicode="џ" d="M246 -167l-7 167h-163v397l-6 103l139 5v-412h191v304l-6 103l139 5v-422l5 -83h-179v-79l5 -83z"/>
<glyph glyph-name="afii10050" horiz-adv-x="534" unicode="Ґ" d="M96 0v598l-6 102h319l15 163h89l-5 -265l-274 9v-514l5 -93h-143z"/>
<glyph glyph-name="afii10098" horiz-adv-x="430" unicode="ґ" d="M76 0v397l-6 103h240l2 40l2 94h105l-10 -237l-200 5v-319l5 -83h-138z"/>
<glyph glyph-name="thinspace" horiz-adv-x="40" unicode=" "/>
<glyph glyph-name="endash" horiz-adv-x="656" unicode="–" d="M72 239v114h511v-114h-511z"/>
<glyph glyph-name="emdash" horiz-adv-x="830" unicode="—" d="M69 242v114h691v-114h-691z"/>
<glyph glyph-name="quoteleft" horiz-adv-x="267" unicode="‘" d="M162 734l64 -53q-57 -53 -78 -117q28 -5 45 -26t17 -51q0 -38 -24 -60t-59 -22q-36 1 -58 23t-22 68q-1 62 33 129t82 109z"/>
<glyph glyph-name="quotesinglbase" horiz-adv-x="275" unicode="‚" d="M103 -184l-64 53q57 53 78 117q-28 5 -45 26t-17 51q0 38 24 60t59 22q36 -1 58 -23t22 -68q0 -62 -34 -129t-81 -109z"/>
<glyph glyph-name="quotedblleft" horiz-adv-x="471" unicode="“" d="M366 734l64 -53q-57 -53 -78 -117q28 -5 45 -26t17 -51q0 -38 -24 -60t-59 -22q-36 1 -58 23t-22 68q-1 62 33 129t82 109zM162 734l64 -53q-57 -53 -78 -117q28 -5 45 -26t17 -51q0 -38 -24 -60t-59 -22q-36 1 -58 23t-22 68q-1 62 33 129t82 109z"/>
<glyph glyph-name="quotedblright" horiz-adv-x="463" unicode="”" d="M105 420l-64 53q57 53 78 117q-28 5 -45 26t-17 51q0 38 24 60t59 22q36 -1 58 -23t22 -68q0 -62 -34 -129t-81 -109zM309 420l-64 53q57 53 78 117q-28 5 -45 26t-17 51q0 38 24 60t59 22q36 -1 58 -23t22 -68q0 -62 -34 -129t-81 -109z"/>
<glyph glyph-name="dagger" horiz-adv-x="558" unicode="†" d="M280 -250l-70 47l5 577l-175 -8v134l175 -8l-5 223h138l-5 -223l175 8v-134l-175 8l5 -577z"/>
<glyph glyph-name="daggerdbl" horiz-adv-x="604" unicode="‡" d="M230 -250l9 194l-176 -9v154l176 -9l-14 155l22 146l-184 -15v154l184 -15l-17 210h144l-17 -210l184 15v-154l-184 15l22 -146l-14 -155l176 9v-154l-176 9l9 -194h-144z"/>
<glyph glyph-name="ellipsis" horiz-adv-x="783" unicode="…" d="M650 144q32 0 54 -22t23 -56q-1 -38 -25 -60t-60 -21q-36 0 -56 20t-20 55q0 40 23 62t61 22zM398 144q32 0 54 -22t23 -56q-1 -38 -25 -60t-60 -21q-36 0 -56 20t-20 55q0 40 23 62t61 22zM141 144q33 0 55 -22t22 -56q0 -38 -24 -60t-61 -21q-35 0 -55 20t-21 55 q0 40 23 62t61 22z"/>
<glyph glyph-name="perthousand" horiz-adv-x="1407" unicode="‰" d="M1159 -10q-86 0 -137 52t-51 137q1 83 53 137t139 55q97 0 149 -48t53 -132q0 -89 -58 -145t-148 -56zM1169 77q45 0 45 98q0 53 -10 81t-38 28q-45 0 -45 -97q1 -50 13 -80t35 -30zM742 -10q-86 0 -137 52t-51 137q0 83 52 137t140 55q98 0 150 -48t52 -132 q0 -89 -58 -145t-148 -56zM752 77q45 0 45 98q0 53 -10 81t-38 28q-45 0 -45 -97q0 -50 12 -80t36 -30zM174 0l478 700h157l-477 -700h-158zM232 337q-86 0 -137 52t-51 137q0 84 52 138t140 54q98 0 150 -48t52 -132q0 -88 -58 -144t-148 -57zM242 424q45 0 45 98 q0 52 -10 80t-38 29q-45 0 -45 -97q0 -50 12 -80t36 -30z"/>
<glyph glyph-name="guilsinglleft" horiz-adv-x="363" unicode="‹" d="M213 0l-188 240v29l188 240l106 -66l-140 -185l142 -187z"/>
<glyph glyph-name="guilsinglright" horiz-adv-x="363" unicode="›" d="M338 240l-188 -240l-108 71l142 187l-140 185l106 66l188 -240v-29z"/>
<glyph glyph-name="fraction" horiz-adv-x="510" unicode="⁄" d="M-4 0l396 701h122l-395 -701h-123z"/>
<glyph glyph-name="Euro" horiz-adv-x="703" unicode="€" d="M52 376v94h110q28 115 104 179t200 64q28 1 59 -3t67 -10t51 -7l-14 -98q-25 1 -78 11t-87 9q-130 0 -164 -145h295l-13 -94h-293v-12q0 -30 1 -44h275l-12 -94h-247q40 -136 183 -136q43 0 78 5t49 9l13 5l29 -86q-55 -33 -173 -33q-133 0 -217 63t-110 173h-106v94h95 v9q0 31 1 47h-96z"/>
<glyph glyph-name="trademark" horiz-adv-x="835" unicode="™" d="M128 382v243l-85 -6l3 82h282l-3 -82l-81 6v-170l3 -73h-119zM356 383v230l-6 88l100 4l74 -108q14 -19 22 -37t10 -26l3 -8h2q13 38 36 77l64 106l95 -4v-250l4 -72h-119v73q0 29 2 53t4 34l2 10l-3 1q-12 -29 -25 -49l-58 -87h-40l-57 78q-8 12 -18 28t-15 28l-5 10 l-2 -1q14 -35 14 -88v-26l4 -64h-88z"/>
<glyph glyph-name="arrowright" horiz-adv-x="785" unicode="→" d="M541 9l-64 34q15 33 49 81t73 82h-529v74h535l-4 3q-39 35 -74 83t-50 82l64 34q49 -90 143 -176l50 -46v-29l-50 -46q-94 -86 -143 -176z"/>
<glyph glyph-name="minus" horiz-adv-x="527" unicode="−" d="M78 234v102h371v-102h-371z"/>
<glyph glyph-name="radical" horiz-adv-x="692" unicode="√" d="M262 -5l-149 414h-86v91h195l96 -292q8 -24 14 -49t10 -38l3 -13h4q6 48 29 117l175 525h143l-284 -750z"/>
<glyph glyph-name="infinity" horiz-adv-x="758" unicode="∞" d="M548 343q-22 -1 -46 -9t-36 -16l-12 -9q59 -61 101 -61q20 0 33 14t13 37q-1 20 -15 32t-38 12zM210 235q22 1 46 9t36 16l12 9q-59 61 -101 61q-20 0 -33 -13t-13 -33q1 -22 15 -36t38 -13zM399 352q73 82 154 82q58 0 101 -39t43 -95q0 -72 -47 -114t-105 -41 q-95 0 -186 81q-73 -82 -154 -82q-58 0 -101 39t-43 95q0 72 47 114t105 41q95 0 186 -81z"/>
<glyph glyph-name="approxequal" horiz-adv-x="589" unicode="≈" d="M386 106q-46 0 -100 22t-92 23q-22 -1 -40 -9t-24 -17l-6 -9l-57 67q1 4 4 10q3 5 15 21t27 28t41 22t57 10q53 0 102 -22t82 -23q25 1 43 9t24 17l5 9l55 -67q-1 -4 -4 -10q-2 -5 -14 -21t-26 -28t-38 -22t-54 -10zM386 298q-46 0 -100 22t-92 23q-22 -1 -40 -9t-24 -17 l-6 -9l-57 67q1 4 4 10q3 5 15 21t27 28t41 22t57 10q53 0 102 -22t82 -23q25 1 43 9t24 17l5 9l55 -67q-1 -4 -4 -10q-2 -5 -14 -21t-26 -28t-38 -22t-54 -10z"/>
<glyph glyph-name="notequal" horiz-adv-x="549" unicode="≠" d="M70 332v104h240l95 144l96 -70l-49 -74h29v-104h-98l-70 -106h168v-104h-236l-97 -147l-96 69l51 78h-33v104h102l70 106h-172z"/>
<glyph glyph-name="lessequal" horiz-adv-x="503" unicode="≤" d="M66 42v112h314l-314 131v59l348 165v-127l-147 -64l147 -52v-224h-348z"/>
<glyph glyph-name="greaterequal" horiz-adv-x="503" unicode="≥" d="M89 42v224l147 52l-147 64v127l348 -165v-59l-315 -131h315v-112h-348z"/>
<glyph glyph-name="lozenge" horiz-adv-x="622" unicode="◊" d="M317 121l145 215l-158 225l-146 -209zM265 -15l-245 333v51l245 331h92l245 -333v-51l-245 -331h-92z"/>
</font>
</defs>
</svg>
