<?xml version="1.0" encoding="UTF-8" standalone="no"?>
<!DOCTYPE svg  PUBLIC '-//W3C//DTD SVG 1.1//EN'  'http://www.w3.org/Graphics/SVG/1.1/DTD/svg11.dtd'>
<svg xmlns="http://www.w3.org/2000/svg">
<defs>
<font id="PermianSansTypeface-Regular" horiz-adv-x="598">
<font-face underline-position="-50" font-weight="400" descent="-200" panose-1="2 0 0 0 0 0 0 0 0 0" units-per-em="1000" unicode-range="U+0020-25CA" bbox="-48 -259 1312 993" x-height="500" underline-thickness="50" font-family="PermianSansTypeface" ascent="800" cap-height="700"/>
<missing-glyph horiz-adv-x="1000"/>
<glyph glyph-name=".notdef" horiz-adv-x="1000"/>
<glyph glyph-name=".null" horiz-adv-x="0"/>
<glyph glyph-name="nonmarkingreturn" horiz-adv-x="1000"/>
<glyph glyph-name="space" horiz-adv-x="235" unicode=" "/>
<glyph glyph-name="exclam" horiz-adv-x="291" unicode="!" d="M104 230l-11 471l104 5l-10 -476h-83zM143 -15q-29 -1 -47 17t-18 46q0 30 20 46t51 16q30 0 47 -16t17 -44q0 -30 -19 -48t-51 -17z"/>
<glyph glyph-name="quotedbl" horiz-adv-x="387" unicode='&quot;' d="M237 463l-16 238l104 5l-15 -243h-73zM77 463l-16 238l104 5l-15 -243h-73z"/>
<glyph glyph-name="numbersign" horiz-adv-x="741" unicode="#" d="M322 383l-63 -166h158l64 166h-159zM95 383v74h173l52 135h82l-52 -135h159l52 135h82l-52 -135h92v-74h-120l-63 -166h143v-74h-172l-54 -143h-83l55 143h-159l-54 -143h-83l55 143h-93v74h121l64 166h-145z"/>
<glyph glyph-name="dollar" horiz-adv-x="517" unicode="$" d="M242 62q63 0 101 27t38 74q-1 33 -19 57t-47 36q-29 14 -65 25t-72 25t-64 34q-30 20 -48 56t-18 83q0 69 48 119t139 63l-7 144q18 7 38 7t40 -7l-8 -142q39 -1 76 -11t55 -19l18 -9l-29 -68q-73 30 -147 30q-59 0 -95 -26t-37 -71q1 -43 35 -70t83 -43t97 -36t84 -61 q34 -41 34 -104q0 -73 -50 -122t-136 -62l9 -144q-18 -7 -38 -7t-40 7l6 139q-42 1 -85 11t-65 19l-22 10l28 70q82 -34 163 -34z"/>
<glyph glyph-name="percent" horiz-adv-x="944" unicode="%" d="M704 -10q-82 0 -130 53t-48 123q0 91 50 144t146 53q82 0 130 -53t48 -123q0 -91 -50 -144t-146 -53zM716 53q42 1 66 33t25 78q0 56 -25 96t-74 40q-42 0 -66 -32t-24 -79q0 -59 24 -97t74 -39zM222 341q-82 0 -130 53t-48 123q0 91 50 144t146 53q82 0 130 -53t48 -123 q0 -91 -50 -144t-146 -53zM234 404q42 0 66 32t25 79q0 57 -25 97t-74 39q-42 0 -66 -32t-24 -79q0 -60 24 -98t74 -38zM282 0h-98l478 700h97z"/>
<glyph glyph-name="ampersand" horiz-adv-x="695" unicode="&amp;" d="M188 544q1 -28 15 -56q15 -28 27 -45q12 -16 39 -45q49 44 73 80t24 80q0 46 -24 69t-68 23q-41 0 -65 -30q-21 -27 -21 -66v-10zM282 62q65 0 124 51q-25 25 -129 146l-50 55q-74 -59 -74 -142q-1 -48 33 -79t96 -31zM654 60h18v-60h-40q-90 0 -177 70q-88 -80 -194 -80 q-89 0 -146 45t-57 115q0 68 34 112t100 92q-90 103 -93 177v15q1 74 47 118q52 50 133 50q87 0 132 -39t45 -105q0 -32 -9 -58t-35 -54t-44 -45q-19 -17 -64 -54l53 -61q81 -92 108 -120q57 80 83 177l60 -17q-26 -112 -97 -205q80 -73 143 -73z"/>
<glyph glyph-name="quotesingle" horiz-adv-x="227" unicode="&apos;" d="M77 463l-16 238l104 5l-15 -243h-73z"/>
<glyph glyph-name="parenleft" horiz-adv-x="340" unicode="(" d="M361 -154l-29 -56q-91 34 -157 112q-65 78 -97 178q-32 99 -32 209q0 170 74 310t216 203l25 -63q-107 -55 -167 -175t-60 -265q0 -149 62 -277t165 -176z"/>
<glyph glyph-name="parenright" horiz-adv-x="342" unicode=")" d="M-19 746l29 56q91 -34 157 -112q65 -78 97 -178q32 -99 32 -209q0 -170 -74 -310t-216 -203l-25 63q107 55 167 175t60 265q0 149 -62 277t-165 176z"/>
<glyph glyph-name="asterisk" horiz-adv-x="543" unicode="*" d="M318 823l-22 -143l11 -9l130 66q10 5 19 5q8 0 18 -5q18 -10 24 -30q3 -8 3 -16q0 -11 -5 -21q-8 -18 -29 -21l-145 -25l-4 -13l102 -102q12 -15 12 -30v-7q-4 -18 -22 -31q-12 -10 -27 -10q-3 1 -7 1q-20 2 -30 21l-68 129h-14l-67 -129q-10 -19 -30 -21q-3 0 -7 -1 q-16 0 -27 10q-17 13 -21 31q-1 4 -1 7q0 15 12 30l102 103l-4 12l-145 25q-21 3 -29 21q-5 10 -5 21q0 8 3 16q5 20 23 30q9 5 19 5q9 0 19 -5l130 -66l11 7l-22 146q-1 4 -1 7q0 15 12 27q14 14 35 14t36 -14q12 -11 12 -26q0 -4 -1 -9z"/>
<glyph glyph-name="plus" horiz-adv-x="519" unicode="+" d="M54 248v74h165v169h80v-169h166v-74h-166v-168h-80v168h-165z"/>
<glyph glyph-name="comma" horiz-adv-x="262" unicode="," d="M101 -188l-40 33q64 58 69 142h-3q-27 0 -45 15q-20 16 -19 46t19 46t47 16q69 0 69 -79q0 -63 -25 -121t-72 -98z"/>
<glyph glyph-name="hyphen" horiz-adv-x="443" unicode="-" d="M76 252v69l291 10v-69z"/>
<glyph glyph-name="period" horiz-adv-x="257" unicode="." d="M126 -15q-28 0 -45 17t-17 46q0 30 18 46t50 16q30 0 46 -16t15 -44q1 -31 -17 -48t-50 -17z"/>
<glyph glyph-name="slash" horiz-adv-x="485" unicode="/" d="M35 -174h-83l431 874h82z"/>
<glyph glyph-name="zero" horiz-adv-x="627" unicode="0" d="M302 -10q-74 0 -129 50t-81 126t-26 163q0 177 66 279t193 102q74 0 129 -50t81 -126t26 -163q0 -177 -66 -279t-193 -102zM318 65q64 0 102 74t39 181q0 86 -15 154q-14 68 -50 115q-36 46 -88 46q-66 1 -102 -73t-36 -182q0 -64 8 -118t24 -100q16 -45 47 -71 q30 -26 71 -26z"/>
<glyph glyph-name="one" horiz-adv-x="389" unicode="1" d="M30 591l-5 59l245 56h16v-706h-98v605z"/>
<glyph glyph-name="two" horiz-adv-x="502" unicode="2" d="M322 506q0 122 -117 122q-35 0 -73 -9t-58 -17l-21 -9v82q66 35 168 35q91 0 145 -48t54 -149q0 -85 -52 -173t-151 -192l-72 -75l231 3l74 5l-8 -81h-413v50l134 147q83 92 121 164t38 145z"/>
<glyph glyph-name="three" horiz-adv-x="529" unicode="3" d="M156 333l5 74h23q75 -1 116 35t41 94q1 42 -29 67t-84 25q-38 0 -77 -9t-59 -17l-19 -9v82q68 35 164 35q94 0 147 -42t53 -119q-1 -59 -37 -105t-107 -66q80 -14 127 -62t47 -120q-1 -90 -65 -148t-181 -58q-43 0 -87 7t-67 15l-23 7l20 80q72 -27 156 -27q69 0 108 33 t39 91q0 57 -46 97t-138 40h-27z"/>
<glyph glyph-name="four" horiz-adv-x="587" unicode="4" d="M298 462l-174 -243l220 4v236q0 21 2 45t4 36l1 13h-3q-18 -46 -50 -91zM344 -10v159h-298l-28 46l368 519h52v-490l114 1l-8 -76h-106v-66l5 -93h-99z"/>
<glyph glyph-name="five" horiz-adv-x="528" unicode="5" d="M451 700l-5 -89l-267 7l-10 -168q300 -40 300 -245q-1 -95 -63 -155t-179 -60q-94 0 -181 29l20 79q95 -26 157 -26q74 0 110 36t36 97q0 70 -72 112t-207 54l18 329h343z"/>
<glyph glyph-name="six" horiz-adv-x="565" unicode="6" d="M280 352q-69 0 -122 -44v-16q0 -92 32 -158q34 -70 109 -70q59 0 87 40t29 109q0 139 -135 139zM466 645q-134 -19 -210 -79t-94 -177q58 42 140 42q102 0 156 -54t54 -153q0 -102 -58 -168t-169 -66q-102 0 -160 77q-65 86 -65 240q0 366 396 414z"/>
<glyph glyph-name="seven" horiz-adv-x="470" unicode="7" d="M35 611l8 89h412v-17q-132 -283 -262 -696l-100 29q89 241 266 607l-227 -5z"/>
<glyph glyph-name="eight" horiz-adv-x="573" unicode="8" d="M179 546q-1 -44 31 -74t95 -64q44 30 66 60q23 31 23 76q0 40 -26 64q-28 26 -79 26q-50 0 -80 -24t-30 -64zM415 177q1 22 -9 42q-10 19 -22 33t-36 32q-26 18 -40 26t-47 26q-41 -26 -71 -66t-30 -90t32 -82t93 -33q56 -1 93 29t37 83zM65 174q-1 67 41 117t100 75 q-58 35 -90 74t-32 95q0 79 60 127t149 48q87 0 142 -44q54 -43 54 -113q0 -59 -40 -104q-39 -43 -90 -69q71 -40 111 -83t39 -111q1 -86 -65 -142t-156 -55q-101 1 -162 49t-61 136z"/>
<glyph glyph-name="nine" horiz-adv-x="565" unicode="9" d="M284 348q68 0 121 44v18q0 54 -10 100q-11 54 -45 90t-85 36q-59 0 -87 -40t-29 -109q1 -63 35 -101t100 -38zM98 55q134 18 210 79t94 177q-66 -42 -156 -42q-82 0 -138 56t-56 151q0 102 58 168t169 66q102 0 160 -77q65 -86 65 -240q0 -366 -396 -414z"/>
<glyph glyph-name="colon" horiz-adv-x="281" unicode=":" d="M138 336q-28 0 -45 17t-17 46t18 45t50 17q30 0 46 -16t15 -44q1 -31 -17 -48t-50 -17zM138 -15q-28 0 -45 17t-17 46q0 30 18 46t50 16q30 0 46 -16t15 -44q1 -31 -17 -48t-50 -17z"/>
<glyph glyph-name="semicolon" horiz-adv-x="289" unicode=";" d="M116 -188l-40 33q64 58 69 142h-3q-26 0 -44 15q-20 16 -20 46t18 46t48 16q69 0 69 -79q0 -63 -25 -121t-72 -98zM140 337q-28 0 -45 17t-17 46q0 30 18 46t50 16q30 0 46 -16t15 -44q1 -31 -17 -48t-50 -17z"/>
<glyph glyph-name="less" horiz-adv-x="471" unicode="&lt;" d="M42 299l348 210v-97l-224 -127l224 -129v-96l-348 210v29z"/>
<glyph glyph-name="equal" horiz-adv-x="577" unicode="=" d="M83 152v74h411v-74h-411zM83 342v74h411v-74h-411z"/>
<glyph glyph-name="greater" horiz-adv-x="471" unicode="&gt;" d="M81 509l348 -210v-29l-348 -210v96l224 129l-224 127v97z"/>
<glyph glyph-name="question" horiz-adv-x="448" unicode="?" d="M200 -15q-29 -1 -47 17t-18 46q-1 30 19 46t52 16q30 0 47 -16t17 -44q0 -30 -19 -48t-51 -17zM193 635q-39 0 -75 -12t-53 -24l-17 -12v79q6 5 18 13q12 7 52 21q42 14 90 14q101 0 148 -44t47 -107q0 -34 -14 -65q-13 -30 -35 -52t-46 -43t-46 -37t-36 -32 q-14 -18 -14 -33q0 -9 6 -17t16 -9q12 0 26 12l42 -53q-44 -38 -89 -38q-39 0 -67 26t-27 65q0 36 19 66q19 31 46 53l54 44t46 49q19 28 19 60q0 35 -29 55t-81 21z"/>
<glyph glyph-name="at" horiz-adv-x="926" unicode="@" d="M558 100l-1 237q-38 22 -92 22q-61 1 -91 -39t-30 -106q0 -70 29 -110t87 -41q28 -1 52 9t35 19zM675 -10q-75 0 -106 63l-17 -17t-46 -28t-73 -18q-83 0 -135 59t-51 150q0 103 58 167t147 64q34 0 62 -9t40 -19l13 -9l72 42h11v-328q0 -43 33 -43q27 0 45 28t26 69 q8 40 8 84q0 141 -80 224t-222 83q-78 0 -139 -28t-98 -74t-56 -104t-19 -125q0 -76 24 -140q24 -63 68 -109t114 -67q46 -14 98 -14q27 0 57 4l8 -66q-48 -7 -91 -7q-146 0 -247 80q-130 104 -130 297q1 186 113 304t326 118q159 0 266 -94t107 -264q0 -105 -54 -189 t-132 -84z"/>
<glyph glyph-name="A" horiz-adv-x="622" unicode="A" d="M300 600h-4q-11 -54 -27 -101l-85 -252h238l-91 251zM160 176l-8 -25q-30 -91 -39 -151h-87q9 64 49 177l188 520l89 6l216 -583q12 -32 24 -62t19 -43l6 -13l-103 -6l-66 180h-288z"/>
<glyph glyph-name="B" horiz-adv-x="615" unicode="B" d="M296 629h-97v-226h166q3 1 7 4t14 13t20 22q8 12 14 32t7 41q0 114 -131 114zM317 331h-118v-260h117q64 0 102 35t39 97q1 58 -37 93t-103 35zM103 0v598l-6 102h210q109 0 164 -48t55 -128q0 -52 -28 -94t-70 -61v-2q60 -16 94 -61t34 -101q0 -97 -66 -151t-182 -54 h-205z"/>
<glyph glyph-name="C" horiz-adv-x="594" unicode="C" d="M365 635q-89 1 -145 -77t-56 -194q0 -59 12 -110q12 -52 39 -94q26 -42 72 -66t108 -24q39 0 75 5t51 9l15 5l17 -70q-52 -29 -165 -29q-150 0 -238 94t-88 245q0 176 82 280t237 104q28 1 57 -3t61 -10t49 -7l-14 -78q-1 0 -66 10t-103 10z"/>
<glyph glyph-name="D" horiz-adv-x="723" unicode="D" d="M273 628h-72v-556h115q114 0 180 74t66 200q0 134 -76 208t-213 74zM103 0v598l-6 102h197q179 0 276 -90t97 -247q1 -177 -105 -270t-269 -93h-190z"/>
<glyph glyph-name="E" horiz-adv-x="590" unicode="E" d="M103 0v598l-6 102h433l-5 -79q-49 5 -97 6l-227 3v-240l279 5l-5 -86l-274 8v-246l250 3l79 6l-5 -80h-422z"/>
<glyph glyph-name="F" horiz-adv-x="556" unicode="F" d="M103 0v598l-6 102h423l-5 -80q-43 5 -96 6l-218 3v-259l269 5l-5 -86l-264 8v-204l5 -93h-103z"/>
<glyph glyph-name="G" horiz-adv-x="669" unicode="G" d="M405 635q-113 -1 -177 -73t-65 -198q1 -60 13 -111t38 -94t74 -67q47 -24 110 -25q24 0 50 2t40 4l14 2v134l-6 103l99 5v-302q-76 -25 -197 -25q-163 0 -250 92t-87 247q-1 177 89 281t263 103q32 1 64 -3q31 -4 67 -10t51 -7l-14 -78q-15 1 -49 7t-66 10t-61 3z"/>
<glyph glyph-name="H" horiz-adv-x="756" unicode="H" d="M555 0v325h-354v-232l5 -93h-103v598l-6 103l104 5v-307h354v199l-6 103l104 5v-613l5 -93h-103z"/>
<glyph glyph-name="I" horiz-adv-x="304" unicode="I" d="M103 0v598l-6 103l104 5v-613l5 -93h-103z"/>
<glyph glyph-name="J" horiz-adv-x="303" unicode="J" d="M103 90v508l-6 103l104 5v-615q0 -62 -18 -114q-12 -33 -32 -63t-56 -71q-36 -42 -44 -52l-60 49q11 16 38 48t41 55t23 50q10 37 10 97z"/>
<glyph glyph-name="K" horiz-adv-x="628" unicode="K" d="M103 0v598l-6 103l104 5v-311h70q102 132 142 190t72 115h102q-37 -66 -86 -134t-157 -201l220 -295q10 -14 26 -32t26 -28l9 -10l-119 -5l-243 327h-62v-229l5 -93h-103z"/>
<glyph glyph-name="L" horiz-adv-x="544" unicode="L" d="M530 80l-5 -80h-422v598l-6 102l104 5v-634l245 4z"/>
<glyph glyph-name="M" horiz-adv-x="906" unicode="M" d="M451 170h-14l-208 313q-11 17 -22 35t-16 28l-5 11l-3 -1q4 -41 4 -90v-383l5 -83h-89v587l-6 114l90 5l222 -335l40 -67h3q21 40 40 69l215 328l96 5v-613l5 -93h-101v488l5 86l-4 1q-20 -43 -45 -80z"/>
<glyph glyph-name="N" horiz-adv-x="749" unicode="N" d="M565 -10l-338 499l-44 77h-3q8 -61 8 -87v-386l5 -93h-90v598l-6 103l88 5l337 -499q10 -14 21 -34t17 -33l7 -12l3 1q-8 52 -8 92v377l-6 103l91 5v-706z"/>
<glyph glyph-name="O" horiz-adv-x="751" unicode="O" d="M364 -10q-98 0 -168 50t-102 128q-32 77 -31 169q0 173 81 273t243 100q98 0 168 -50q69 -50 101 -128q32 -77 32 -169q0 -173 -81 -273t-243 -100zM384 60q102 0 152 78t50 200q0 46 -6 88t-23 81q-17 40 -41 69q-24 28 -62 46t-87 18q-101 0 -151 -78t-51 -200 q1 -46 7 -88t22 -81q16 -40 40 -69q24 -28 64 -46q38 -18 86 -18z"/>
<glyph glyph-name="P" d="M279 628h-78v-308h102q71 0 112 42t41 110t-44 112t-133 44zM103 0v598l-6 102h196q127 0 195 -60t68 -167q0 -96 -71 -161t-182 -65h-102v-154l5 -93h-103z" unicode="P"/>
<glyph glyph-name="Q" horiz-adv-x="768" unicode="Q" d="M392 61q102 0 157 78t55 199q0 45 -8 87q-8 41 -24 81q-18 40 -44 69t-66 47t-87 17q-102 0 -157 -78t-55 -199q-1 -45 7 -87q8 -41 26 -81t43 -69t65 -47t88 -17zM372 -10q-98 0 -170 50t-107 128q-34 77 -34 169q-1 171 85 272t249 101q99 0 171 -50t106 -128 q34 -77 34 -169q0 -238 -154 -329l86 -141l52 -76l-113 -5l-109 188q-50 -10 -96 -10z"/>
<glyph glyph-name="R" horiz-adv-x="635" unicode="R" d="M279 628h-78v-280h102q73 0 113 38t40 102q0 140 -177 140zM103 0v598l-6 102h196q127 0 195 -56t68 -151q0 -74 -38 -122t-100 -66l134 -229l52 -76l-113 -5l-160 283h-130v-185l5 -93h-103z"/>
<glyph glyph-name="S" horiz-adv-x="555" unicode="S" d="M289 633q-61 -1 -95 -27t-33 -72q-1 -52 33 -82t107 -58q40 -16 64 -26q23 -10 53 -28t46 -37t26 -48q11 -29 11 -65q0 -94 -70 -147t-197 -53q-50 0 -92 6t-60 12l-17 7v77q73 -23 169 -23q78 0 124 28t46 83q0 52 -40 82t-126 60q-82 28 -128 74t-46 125q0 86 64 139 t173 53q41 0 101 -9t79 -11l-14 -80q-24 2 -81 11t-97 9z"/>
<glyph glyph-name="T" horiz-adv-x="585" unicode="T" d="M245 0v629l-145 -4l-79 -5l3 80h542l-4 -81q-40 5 -80 6l-139 4v-536l5 -93h-103z"/>
<glyph glyph-name="U" horiz-adv-x="735" unicode="U" d="M640 706v-455q0 -117 -72 -191t-208 -74q-126 0 -196 72t-69 194v346l-6 103l104 5v-455q0 -86 46 -138t136 -52q85 1 131 53t46 137v347l-6 103z"/>
<glyph glyph-name="V" horiz-adv-x="624" unicode="V" d="M354 199l117 348q30 89 39 153h87q-9 -67 -49 -179l-188 -520l-89 -6l-216 583q-12 32 -24 62t-19 43l-6 13l103 6l183 -502q9 -26 17 -53t11 -41l3 -14h4q8 51 27 107z"/>
<glyph glyph-name="W" horiz-adv-x="946" unicode="W" d="M427 700l94 5l116 -446q9 -36 17 -74t12 -59l3 -20h4q13 70 37 153l79 267q22 73 33 174h95q-15 -108 -53 -221l-152 -477l-99 -6l-116 445q-9 29 -15 62t-9 51l-3 19h-3q-9 -64 -25 -131l-107 -440l-107 -6l-171 583l-39 118l105 6l126 -447l35 -151h4q15 86 31 152z "/>
<glyph glyph-name="X" horiz-adv-x="632" unicode="X" d="M492 -5l-187 295l-89 -138q-25 -40 -47 -78t-31 -56l-10 -18h-105q41 80 116 183l125 170l-160 241l-73 106l122 5l177 -287l92 146q24 37 42 71t26 49l7 16h102q-30 -69 -101 -168l-127 -177l171 -259l66 -96z"/>
<glyph glyph-name="Y" horiz-adv-x="579" unicode="Y" d="M240 0v278l-186 330l-58 92l112 5l194 -354l119 230q17 33 31 63t18 43l4 13h97q-22 -64 -80 -158l-153 -263v-186l5 -93h-103z"/>
<glyph glyph-name="Z" horiz-adv-x="573" unicode="Z" d="M53 621l5 79h470v-10l-349 -618l248 3l97 5l-5 -80h-480v10l348 618l-228 -3z"/>
<glyph glyph-name="bracketleft" horiz-adv-x="306" unicode="[" d="M90 -199v984h178v-51h-100v-882h100v-51h-178z"/>
<glyph glyph-name="backslash" horiz-adv-x="485" unicode="\" d="M533 -174h-83l-430 874h82z"/>
<glyph glyph-name="bracketright" horiz-adv-x="306" unicode="]" d="M216 785v-984h-178v51h100v882h-100v51h178z"/>
<glyph glyph-name="asciicircum" horiz-adv-x="467" unicode="^" d="M233 679l-130 -146h-103l219 227h29l219 -227h-104z"/>
<glyph glyph-name="underscore" horiz-adv-x="503" unicode="_" d="M21 -173v74h461v-74h-461z"/>
<glyph glyph-name="grave" horiz-adv-x="550" unicode="`" d="M270 632l-40 -42l-187 154l67 69z"/>
<glyph glyph-name="a" horiz-adv-x="538" unicode="a" d="M217 66q61 0 124 40q0 43 2 127q-76 -6 -112 -15q-49 -12 -69 -33t-20 -52q0 -29 20 -48t55 -19zM503 88v-69q-30 -29 -76 -29q-65 0 -81 62q-70 -62 -158 -62q-68 0 -104 38t-36 94q0 58 41 100t120 54q55 9 136 9v31q-1 62 -27 88t-85 26q-39 0 -77 -8t-56 -16l-17 -8 v75q65 37 178 37q177 0 177 -174v-6q0 -19 -2 -71t-2 -96v-71q0 -24 21 -24q9 0 21 5t20 10z"/>
<glyph glyph-name="b" horiz-adv-x="596" unicode="b" d="M302 430q-73 0 -127 -33q2 -38 2 -96v-216q48 -25 108 -25q157 0 157 196q0 82 -35 128t-105 46zM84 30v617l-6 103l99 5l-2 -296q67 51 157 51q100 0 154 -67t53 -166q0 -135 -69 -211t-184 -76q-122 0 -202 40z"/>
<glyph glyph-name="c" horiz-adv-x="484" unicode="c" d="M287 431q-68 0 -102 -46t-34 -127q1 -84 41 -136t114 -52q33 0 65 7t47 13l15 7v-74q-52 -33 -141 -33q-114 0 -175 67t-61 177q0 120 67 198t167 78q30 0 75 -10t67 -10l-8 -82q-24 2 -69 12t-68 11z"/>
<glyph glyph-name="d" horiz-adv-x="597" unicode="d" d="M304 65q64 0 113 29v306q-43 41 -112 41q-72 0 -112 -53t-40 -134q-1 -83 39 -136t112 -53zM299 510q69 0 118 -33v170q1 25 -1 51t-4 39l-2 13l99 5v-651l6 -103l-90 -5l-3 46q-59 -52 -145 -52q-105 0 -163 69t-58 172q0 127 68 203t175 76z"/>
<glyph glyph-name="e" horiz-adv-x="553" unicode="e" d="M293 442q-57 0 -93 -36t-46 -95l249 4v7q1 50 -25 84q-28 36 -85 36zM297 510q113 0 165 -74q39 -56 40 -136q0 -25 -4 -53h-347q9 -177 178 -177q31 0 65 7t54 13l20 7v-73q-64 -34 -169 -34q-115 0 -179 66t-64 176q0 130 67 204t174 74z"/>
<glyph glyph-name="f" horiz-adv-x="393" unicode="f" d="M288 681q-50 1 -68 -29t-18 -81v-71h171l-5 -73l-166 2v-336l5 -93h-98v431l-66 1v68h67v47q0 101 47 157t134 56q30 0 75 -9t67 -11l-8 -82q-27 2 -71 12t-66 11z"/>
<glyph glyph-name="g" horiz-adv-x="569" unicode="g" d="M263 442q-53 0 -81 -32t-28 -82q0 -56 30 -88t90 -31q50 0 80 32t29 84q0 117 -120 117zM223 -18q-26 1 -54 10q-33 -38 -33 -76q0 -48 40 -76t117 -28q144 0 144 91q0 66 -93 72zM257 141q-33 0 -54 5q-16 -23 -16 -44q0 -31 45 -35l111 -6q173 -9 173 -146 q0 -77 -65 -123t-171 -48h-11q-97 0 -157 34q-64 36 -64 113q0 83 83 125q-20 22 -20 56q0 48 45 89q-46 21 -72 61t-25 92q0 88 57 142t156 54q58 0 102 -21l169 13l-3 -65h-108v-3q46 -34 46 -104q0 -76 -60 -132t-161 -57z"/>
<glyph glyph-name="h" horiz-adv-x="582" unicode="h" d="M499 342v-259l5 -83h-98v317q0 113 -101 113q-63 0 -127 -34q2 -20 2 -95v-218l5 -83h-98v647l-6 103l99 5l-2 -305q73 60 174 60q147 0 147 -168z"/>
<glyph glyph-name="i" horiz-adv-x="269" unicode="i" d="M88 0v397l-6 103l99 5v-412l5 -93h-98zM132 610q-26 0 -42 16t-17 41q0 26 18 41t46 15q27 -1 43 -15t15 -39q0 -27 -17 -43t-46 -16z"/>
<glyph glyph-name="j" horiz-adv-x="268" unicode="j" d="M132 610q-26 0 -42 16t-17 41q0 26 18 41t46 15q27 -1 43 -15t15 -39q0 -27 -17 -43t-46 -16zM181 505v-479q0 -69 -21 -119q-21 -49 -121 -164l-51 44q6 9 22 27t22 26t16 22t15 25q6 12 11 27q14 42 14 112v371l-6 103z"/>
<glyph glyph-name="k" horiz-adv-x="526" unicode="k" d="M87 0v648l-6 103l99 5v-468h52l78 97q28 35 48 65t28 44l6 12l92 -6q-32 -63 -103 -146l-80 -93l144 -187l65 -74l-109 -5l-175 224h-46v-126l5 -93h-98z"/>
<glyph glyph-name="l" horiz-adv-x="280" unicode="l" d="M93 0v648l-6 103l99 5v-663l5 -93h-98z"/>
<glyph glyph-name="m" horiz-adv-x="875" unicode="m" d="M484 342v-259l5 -83h-98v317q0 57 -21 85t-72 28q-56 0 -119 -34q2 -20 2 -95v-218l5 -83h-98v397l-6 103l92 5l3 -55q74 60 168 60q87 0 121 -69q80 69 180 69q74 0 110 -45t36 -123v-259l5 -83h-98v317q0 113 -100 113q-56 0 -120 -34q5 -28 5 -54z"/>
<glyph glyph-name="n" horiz-adv-x="583" unicode="n" d="M500 342v-259l5 -83h-98v309q0 61 -25 91t-81 30q-58 0 -122 -34q2 -20 2 -95v-218l5 -83h-98v397l-6 103l92 5l3 -56q76 61 165 61q158 0 158 -168z"/>
<glyph glyph-name="o" d="M286 -10q-107 0 -168 66t-61 172q0 132 68 207t187 75q107 0 168 -65t61 -172q0 -131 -68 -207t-187 -76zM291 441q-63 0 -101 -49t-38 -120q0 -104 40 -158t115 -54q61 0 100 50t39 119q0 105 -40 159t-115 53z" unicode="o"/>
<glyph glyph-name="p" horiz-adv-x="599" unicode="p" d="M181 301v-202q47 -39 115 -39q72 0 111 52t39 135q0 87 -35 135t-105 48q-73 0 -127 -33q2 -16 2 -96zM88 -250v647l-6 103l92 5l3 -48q59 53 153 53q104 0 158 -67t55 -166q0 -133 -69 -210t-184 -77q-61 0 -109 29v-186l5 -83h-98z"/>
<glyph glyph-name="q" horiz-adv-x="607" unicode="q" d="M293 70q81 0 134 38v299q-52 34 -115 34q-77 0 -118 -53t-41 -137q1 -81 37 -131t103 -50zM427 -250v297q-60 -57 -156 -57q-107 0 -161 68t-54 170q0 130 70 206t190 76q71 0 132 -36l40 26h32v-667l5 -83h-98z"/>
<glyph glyph-name="r" horiz-adv-x="439" unicode="r" d="M88 0v397l-6 103l94 5l2 -76q69 81 126 81q24 0 42 -6t46 -19q26 -14 33 -17l-35 -78q-15 6 -36 17q-20 11 -36 17t-34 5q-41 0 -105 -62q2 -12 2 -71v-213l5 -83h-98z"/>
<glyph glyph-name="s" horiz-adv-x="449" unicode="s" d="M217 -10q-35 0 -89 10t-73 11l8 82q19 -2 73 -13t86 -11q97 0 97 60q0 29 -27 47t-93 40q-137 45 -137 155q0 65 44 102t113 37q39 0 86 -10t69 -10l-8 -81q-30 2 -74 12t-76 10q-34 1 -54 -15t-20 -41q0 -31 24 -47t96 -43q69 -25 103 -59t34 -90q-1 -68 -49 -107 t-133 -39z"/>
<glyph glyph-name="t" horiz-adv-x="417" unicode="t" d="M109 432l-70 1v56l67 11l51 116h39v-116h185l-3 -72l-182 2v-271q0 -95 91 -95q23 0 47 4t35 8l12 4v-69q-46 -21 -115 -21q-162 0 -162 165v196z"/>
<glyph glyph-name="u" horiz-adv-x="583" unicode="u" d="M408 -4l-4 53q-74 -59 -166 -59q-155 0 -155 168v259l-5 83h98v-317q0 -113 101 -113q64 0 125 33v314l-5 83h98v-396l6 -103z"/>
<glyph glyph-name="v" horiz-adv-x="500" unicode="v" d="M428 331l-130 -331l-91 -5l-147 402l-42 103l105 5l106 -304q9 -27 17 -57t11 -46l3 -16h4q11 56 32 117l56 160q20 64 32 141h85q-7 -81 -41 -169z"/>
<glyph glyph-name="w" horiz-adv-x="772" unicode="w" d="M687 298l-102 -298l-92 -5l-91 305l-24 103h-4q-6 -55 -18 -102l-74 -301l-101 -5l-123 402l-35 103l95 5l88 -297q8 -28 16 -60t10 -48l3 -18h4q5 59 23 128l49 189l22 101l93 7l84 -291l33 -132h4q15 65 33 130l38 132q22 85 27 154h87q-3 -76 -45 -202z"/>
<glyph glyph-name="x" horiz-adv-x="536" unicode="x" d="M385 334l-62 -81l131 -177l59 -76l-116 -5l-140 198l-57 -78q-28 -39 -48 -67t-24 -38l-6 -10h-96q26 48 108 151l78 98l-114 168q-14 21 -30 41t-24 32l-9 10l116 5l129 -197l49 72q23 34 41 64t24 43l6 13h96q-44 -78 -111 -166z"/>
<glyph glyph-name="y" horiz-adv-x="496" unicode="y" d="M210 -254l-92 4q10 69 79 227l8 19l-145 401l-42 103l107 5l97 -294q9 -27 17 -59t12 -50l4 -18h4q13 65 38 136l34 99q41 118 48 181h88q-6 -68 -58 -202l-120 -307q-29 -73 -49 -135t-24 -86z"/>
<glyph glyph-name="z" horiz-adv-x="481" unicode="z" d="M53 421l7 79h372v-10l-255 -418l190 3l69 4l-8 -79h-387v10l254 418l-160 -3z"/>
<glyph glyph-name="braceleft" horiz-adv-x="339" unicode="{" d="M125 452v185q-1 74 29 111t95 37h54v-51h-23q-45 0 -61 -25t-16 -72v-207q0 -74 -52 -120q52 -39 52 -109v-252q0 -47 16 -72t61 -25h23v-51h-54q-65 0 -95 37t-29 111v227q0 73 -27 101q-35 -13 -71 -16l-9 44q58 17 82 47t25 100z"/>
<glyph glyph-name="bar" horiz-adv-x="258" unicode="|" d="M90 -259v1024h78v-1024h-78z"/>
<glyph glyph-name="braceright" horiz-adv-x="340" unicode="}" d="M215 134v-185q1 -74 -29 -111t-95 -37h-54v51h23q45 0 61 25t16 72v207q0 73 51 119q-51 39 -51 110v252q0 47 -16 72t-61 25h-23v51h54q65 0 95 -37t29 -111v-227q0 -74 27 -102q28 12 71 17l9 -44q-58 -17 -82 -47t-25 -100z"/>
<glyph glyph-name="asciitilde" horiz-adv-x="605" unicode="~" d="M201 291q-29 1 -51 -15t-31 -32l-8 -16l-53 53q1 4 4 10q3 5 15 21t27 28t41 22t57 10q52 0 109 -32t95 -33q30 -1 52 15t30 32l8 16l53 -53q-1 -4 -4 -10q-3 -5 -15 -21t-27 -28t-41 -22t-57 -10q-53 0 -110 32t-94 33z"/>
<glyph glyph-name="uni00A0" horiz-adv-x="235" unicode=" "/>
<glyph glyph-name="exclamdown" horiz-adv-x="284" unicode="¡" d="M141 514q31 0 51 -20t20 -47t-20 -47t-51 -20q-29 0 -51 20t-21 47q0 27 21 47t51 20zM183 269l11 -471h-104l10 471h83z"/>
<glyph glyph-name="cent" horiz-adv-x="489" unicode="¢" d="M278 431q-68 0 -102 -46t-34 -127q0 -84 40 -136t115 -52q33 0 65 7t47 13l15 7v-74q-38 -23 -102 -31v-106h-78v106q-96 10 -146 76t-51 166q-1 110 55 184t142 88v104h78v-103q9 -1 44 -9t57 -8l-8 -82q-24 2 -69 12t-68 11z"/>
<glyph glyph-name="sterling" horiz-adv-x="567" unicode="£" d="M237 478l9 -122h218v-74h-212v-18q0 -38 -6 -70q-8 -40 -21 -62t-29 -36q-16 -16 -25 -20t-15 -6l349 12l-5 -82h-442v64l12 6t26 18q18 16 32 36t22 57q7 28 7 60q0 11 -1 22l-2 19h-97v74h91l-8 104q-1 16 -1 32q0 95 47 154q55 69 169 69q30 0 75 -9t67 -11l-8 -82 q-27 3 -71 13t-66 10q-60 0 -91 -35q-25 -29 -25 -92q0 -15 1 -31z"/>
<glyph glyph-name="yen" horiz-adv-x="655" unicode="¥" d="M121 260v74h130l-154 274l-58 92l112 5l194 -354l119 230q16 33 30 63t18 43l5 13h97q-22 -64 -80 -158l-121 -208h119v-74h-151v-97h151v-74h-151l5 -89h-103v89h-162v74h162v97h-162z"/>
<glyph glyph-name="brokenbar" horiz-adv-x="240" unicode="¦" d="M81 143h78v-402h-78v402zM159 373h-78v392h78v-392z"/>
<glyph glyph-name="section" horiz-adv-x="515" unicode="§" d="M144 385q0 -30 20 -52q20 -23 44 -33t64 -25t62 -27q37 29 37 72q0 30 -20 52q-21 22 -45 32t-64 26t-62 26q-36 -28 -36 -71zM59 374q0 71 67 126q-23 31 -23 76q0 65 52 102t136 37q35 1 83 -9t71 -11l-8 -81q-30 2 -77 12t-78 10q-46 0 -70 -16t-24 -40q0 -30 28 -48 t66 -30q40 -12 80 -28t66 -52q28 -36 28 -91q0 -70 -68 -126q24 -32 24 -76q0 -65 -52 -102t-136 -37q-35 0 -83 10t-71 10l8 81q30 -2 77 -12t78 -10q45 -1 69 15t25 41q1 29 -27 47t-68 31q-40 12 -78 28q-40 16 -68 52t-27 91z"/>
<glyph glyph-name="dieresis" horiz-adv-x="502" unicode="¨" d="M349 627q-27 0 -43 16t-16 41q0 26 18 41t46 15q26 0 42 -14t16 -40q0 -27 -17 -43t-46 -16zM149 627q-27 0 -43 16t-16 41q0 26 18 41t46 15q26 0 42 -14t16 -40q0 -27 -17 -43t-46 -16z"/>
<glyph glyph-name="copyright" horiz-adv-x="816" unicode="©" d="M415 494q-55 0 -79 -32t-24 -96t30 -101t91 -37q25 0 49 5t36 10l13 5v-64q-42 -25 -117 -25q-86 1 -135 53t-49 136q0 93 55 153t135 60q23 1 59 -7t53 -9l-11 -69q-17 2 -52 10t-54 8zM409 68q113 0 191 84t79 202q1 121 -77 204t-193 83t-193 -83t-77 -204 q0 -122 77 -204t193 -82zM409 -8q-152 0 -255 104t-103 258q0 152 103 258t255 105q151 1 254 -105t103 -258q0 -150 -104 -256t-253 -106z"/>
<glyph glyph-name="guillemotleft" horiz-adv-x="543" unicode="«" d="M374 283l-42 -38l42 -37q67 -61 115 -147l-65 -35q-49 82 -133 159l-50 46v29l50 46q88 82 134 161l65 -34q-50 -90 -116 -150zM164 283l-42 -38l42 -37q39 -36 74 -84t50 -81l-64 -34q-49 90 -143 176l-50 46v29l50 46q94 86 143 176l64 -34q-15 -34 -50 -82t-74 -83z "/>
<glyph glyph-name="logicalnot" horiz-adv-x="580" unicode="¬" d="M83 248v74h412v-185h-67v111h-345z"/>
<glyph glyph-name="registered" horiz-adv-x="490" unicode="®" d="M241 593h-18v-57h20q36 0 36 29q0 28 -38 28zM175 438v157l-2 33h78q39 0 59 -16t20 -46q0 -35 -35 -51l26 -53l13 -24l-56 -2l-28 66h-27v-34l2 -30h-50zM245 389q55 0 92 40t37 97q0 58 -37 98t-92 40t-93 -40t-37 -98q-1 -58 37 -98t93 -39zM245 338q-80 0 -135 54 t-55 134q0 79 55 134t135 55t135 -55t55 -134q1 -80 -55 -134t-135 -54z"/>
<glyph glyph-name="macron" horiz-adv-x="364" unicode="¯" d="M45 539v74h274v-74h-274z"/>
<glyph glyph-name="degree" horiz-adv-x="409" unicode="°" d="M197 452q-67 0 -107 44t-40 101q0 75 41 119t121 44q68 0 108 -44t39 -101q0 -75 -41 -119t-121 -44zM208 512q38 0 60 24t22 61q0 43 -23 73t-67 31q-38 0 -60 -25t-22 -61q0 -43 22 -73t68 -30z"/>
<glyph glyph-name="plusminus" horiz-adv-x="547" unicode="±" d="M78 60v74h391v-74h-391zM78 308v74h155v139h80v-139h156v-74h-156v-138h-80v138h-155z"/>
<glyph glyph-name="acute" horiz-adv-x="294" unicode="´" d="M83 590l-40 42l160 181l67 -69z"/>
<glyph glyph-name="mu" horiz-adv-x="588" unicode="µ" d="M88 -202v619l-5 83h98v-317q0 -113 101 -113q64 0 125 33v314l-5 83h98v-396l6 -103l-93 -5l-4 53q-74 -59 -158 -59q-53 0 -92 28l-2 -2q25 -84 25 -179v-39h-94z"/>
<glyph glyph-name="paragraph" horiz-adv-x="738" unicode="¶" d="M450 434v-360h108v360h-108zM158 260q0 -90 48 -138t140 -48h26v359h-24q-94 0 -142 -47t-48 -126zM336 0q-132 0 -204 68t-71 181q0 119 79 185t235 66h261v-500h-300z"/>
<glyph glyph-name="periodcentered" horiz-adv-x="261" unicode="·" d="M130 218q-24 0 -42 17t-17 42q1 23 19 41t42 18t41 -17t17 -42q0 -23 -18 -41t-42 -18z"/>
<glyph glyph-name="cedilla" horiz-adv-x="240" unicode="¸" d="M125 -200q-68 0 -125 34l17 40q49 -21 88 -21q49 0 49 26q0 20 -30 27q-13 3 -24 3q-14 0 -26 -5l-21 25l41 93l32 -4l8 -62q46 -2 73 -22t27 -52q0 -34 -31 -58t-78 -24z"/>
<glyph glyph-name="guillemotright" horiz-adv-x="543" unicode="»" d="M54 61q48 86 115 147l41 37l-41 38q-66 60 -116 150l65 34q46 -79 134 -161l50 -46v-29l-50 -46q-84 -77 -133 -159zM255 43q15 33 50 81t74 84l41 37l-41 38q-39 35 -74 83t-50 82l64 34q49 -90 143 -176l50 -46v-29l-50 -46q-94 -86 -143 -176z"/>
<glyph glyph-name="onequarter" horiz-adv-x="722" unicode="¼" d="M520 274l-82 -131l104 3v129l4 49h-2q-6 -21 -24 -50zM48 634l-3 42l146 32l14 -2v-382h-72v319zM125 0l-53 35l480 677l53 -33zM543 -10v107h-157l-16 25l180 282l65 -9v-251h63l-4 -47h-59v-55l2 -52h-74z"/>
<glyph glyph-name="onehalf" horiz-adv-x="712" unicode="½" d="M48 634l-3 42l146 32l14 -2v-382h-72v319zM567 267q0 63 -64 63q-17 0 -35 -4t-28 -8l-9 -4v53q35 19 91 19q52 0 84 -28t32 -82q0 -93 -144 -226l169 11l-3 -61h-246v30q78 84 116 138t37 99zM125 0l-53 35l480 677l53 -33z"/>
<glyph glyph-name="threequarters" horiz-adv-x="777" unicode="¾" d="M574 274l-82 -131l104 3v129l4 49h-2q-6 -21 -24 -50zM105 502l7 47q99 0 99 60q0 42 -62 42q-19 0 -39 -4t-32 -8l-10 -4v56q46 19 98 19t85 -23t33 -64q0 -74 -76 -93q44 -6 68 -32t24 -67q0 -46 -38 -79t-104 -33q-28 -1 -54 3t-40 8l-12 4l16 56q33 -13 81 -13 q76 0 76 56q1 29 -33 49q-32 20 -82 20h-5zM187 0l-53 35l480 677l53 -33zM597 -10v107h-157l-16 25l180 282l65 -9v-251h63l-4 -47h-59v-55l2 -52h-74z"/>
<glyph glyph-name="questiondown" horiz-adv-x="443" unicode="¿" d="M244 509q30 1 50 -19t21 -48q-1 -28 -21 -48t-50 -19q-28 -1 -50 19t-22 48t21 48t51 19zM263 -147q39 0 75 12t53 24l17 12v-73q-6 -5 -18 -13q-12 -7 -52 -21q-42 -14 -90 -14q-100 0 -148 44t-47 104q0 39 21 75q20 36 50 62q30 27 60 49t51 44t21 41q0 14 -9 23 t-23 9q-12 1 -24 -5t-16 -12l-6 -5l-34 51q44 38 89 38q39 0 67 -26t27 -65q0 -37 -18 -68q-17 -31 -43 -53t-52 -43t-43 -49q-18 -28 -18 -59q-1 -36 29 -59t81 -23z"/>
<glyph glyph-name="Agrave" horiz-adv-x="622" unicode="À" d="M366 801l-40 -42l-187 154l67 69zM300 600h-4q-11 -54 -27 -101l-85 -252h238l-91 251zM160 176l-8 -25q-30 -91 -39 -151h-87q9 64 49 177l188 520l89 6l216 -583q12 -32 24 -62t19 -43l6 -13l-103 -6l-66 180h-288z"/>
<glyph glyph-name="Aacute" horiz-adv-x="622" unicode="Á" d="M285 760l-40 42l160 181l67 -69zM300 600h-4q-11 -54 -27 -101l-85 -252h238l-91 251zM160 176l-8 -25q-30 -91 -39 -151h-87q9 64 49 177l188 520l89 6l216 -583q12 -32 24 -62t19 -43l6 -13l-103 -6l-66 180h-288z"/>
<glyph glyph-name="Acircumflex" horiz-adv-x="622" unicode="Â" d="M191 762l-46 51l152 126h20l151 -124l-46 -53l-115 78zM300 600h-4q-11 -54 -27 -101l-85 -252h238l-91 251zM160 176l-8 -25q-30 -91 -39 -151h-87q9 64 49 177l188 520l89 6l216 -583q12 -32 24 -62t19 -43l6 -13l-103 -6l-66 180h-288z"/>
<glyph glyph-name="Atilde" horiz-adv-x="622" unicode="Ã" d="M376 774q-35 0 -73 28t-56 28q-39 0 -52 -49l-66 16q9 57 39 85t72 28q35 0 73 -28t59 -28q36 0 47 49l64 -16q-9 -57 -38 -85t-69 -28zM300 600h-4q-11 -54 -27 -101l-85 -252h238l-91 251zM160 176l-8 -25q-30 -91 -39 -151h-87q9 64 49 177l188 520l89 6l216 -583 q12 -32 24 -62t19 -43l6 -13l-103 -6l-66 180h-288z"/>
<glyph glyph-name="Adieresis" horiz-adv-x="622" unicode="Ä" d="M396 775q-26 0 -42 16t-17 41q0 26 18 41t46 15q27 0 43 -14t15 -40q0 -27 -17 -43t-46 -16zM196 775q-26 0 -42 16t-17 41q0 26 18 41t46 15q27 0 43 -14t15 -40q0 -27 -17 -43t-46 -16zM300 600h-4q-11 -54 -27 -101l-85 -252h238l-91 251zM160 176l-8 -25 q-30 -91 -39 -151h-87q9 64 49 177l188 520l89 6l216 -583q12 -32 24 -62t19 -43l6 -13l-103 -6l-66 180h-288z"/>
<glyph glyph-name="Aring" horiz-adv-x="622" unicode="Å" d="M304 807q24 0 38 15t14 39t-14 39t-38 15t-38 -15t-15 -39q1 -24 15 -39t38 -15zM304 750q-54 0 -90 30t-35 81q-1 51 35 81t90 30t89 -30t35 -81t-35 -81t-89 -30zM300 600h-4q-11 -54 -27 -101l-85 -252h238l-91 251zM160 176l-8 -25q-30 -91 -39 -151h-87q9 64 49 177 l188 520l89 6l216 -583q12 -32 24 -62t19 -43l6 -13l-103 -6l-66 180h-288z"/>
<glyph glyph-name="AE" horiz-adv-x="882" unicode="Æ" d="M361 505l-155 -275h189v340q-14 -30 -34 -65zM395 0v159h-229l-4 -8q-47 -82 -71 -151h-95q20 60 88 177l310 523h428l-5 -79l-324 9v-240l279 5l-5 -86l-274 8v-246l329 9l-5 -80h-422z"/>
<glyph glyph-name="Ccedilla" horiz-adv-x="595" unicode="Ç" d="M382 -200q-68 0 -125 34l17 40q49 -21 88 -21q49 0 49 26q0 20 -30 27q-13 3 -24 3q-14 0 -26 -5l-21 25l28 64q-127 15 -201 107t-74 229q1 176 83 280t236 104q28 1 57 -3t61 -10t49 -7l-14 -78q-1 0 -66 10t-103 10q-90 1 -146 -77t-55 -194q1 -59 13 -110 q12 -52 38 -94t72 -66t108 -24q40 0 75 5t51 9l15 5l17 -70q-52 -29 -165 -29h-3l5 -34q46 -2 73 -22t27 -52q0 -34 -31 -58t-78 -24z"/>
<glyph glyph-name="Egrave" horiz-adv-x="590" unicode="È" d="M409 803l-40 -42l-187 154l67 69zM103 0v598l-6 102h433l-5 -79q-49 5 -97 6l-227 3v-240l279 5l-5 -86l-274 8v-246l250 3l79 6l-5 -80h-422z"/>
<glyph glyph-name="Eacute" horiz-adv-x="590" unicode="É" d="M279 765l-40 42l160 181l67 -69zM103 0v598l-6 102h433l-5 -79q-49 5 -97 6l-227 3v-240l279 5l-5 -86l-274 8v-246l250 3l79 6l-5 -80h-422z"/>
<glyph glyph-name="Ecircumflex" horiz-adv-x="590" unicode="Ê" d="M203 768l-46 51l152 126h20l151 -124l-46 -53l-115 78zM103 0v598l-6 102h433l-5 -79q-49 5 -97 6l-227 3v-240l279 5l-5 -86l-274 8v-246l250 3l79 6l-5 -80h-422z"/>
<glyph glyph-name="Edieresis" horiz-adv-x="590" unicode="Ë" d="M424 776q-26 0 -42 16t-17 41q0 26 18 41t46 15q27 -1 43 -15t15 -39q0 -27 -17 -43t-46 -16zM224 776q-26 0 -42 16t-17 41q0 26 18 41t46 15q27 -1 43 -15t15 -39q0 -27 -17 -43t-46 -16zM103 0v598l-6 102h433l-5 -79q-49 5 -97 6l-227 3v-240l279 5l-5 -86l-274 8 v-246l250 3l79 6l-5 -80h-422z"/>
<glyph glyph-name="Igrave" horiz-adv-x="304" unicode="Ì" d="M221 800l-40 -42l-187 154l67 69zM103 0v598l-6 103l104 5v-613l5 -93h-103z"/>
<glyph glyph-name="Iacute" horiz-adv-x="304" unicode="Í" d="M133 757l-40 42l160 181l67 -69zM103 0v598l-6 103l104 5v-613l5 -93h-103z"/>
<glyph glyph-name="Icircumflex" horiz-adv-x="304" unicode="Î" d="M36 763l-46 51l152 126h20l151 -124l-46 -53l-115 78zM103 0v598l-6 103l104 5v-613l5 -93h-103z"/>
<glyph glyph-name="Idieresis" horiz-adv-x="304" unicode="Ï" d="M248 776q-26 0 -42 16t-17 41q0 26 18 41t46 15q27 -1 43 -15t15 -39q0 -27 -17 -43t-46 -16zM48 776q-26 0 -42 16t-17 41q0 26 18 41t46 15q27 -1 43 -15t15 -39q0 -27 -17 -43t-46 -16zM103 0v598l-6 103l104 5v-613l5 -93h-103z"/>
<glyph glyph-name="Eth" horiz-adv-x="730" unicode="Ð" d="M280 628h-72v-259h126v-74h-126v-223h115q114 0 180 74t66 200q-1 134 -77 208t-212 74zM10 295v74h100v229l-6 102h197q179 0 276 -90t97 -247q0 -177 -106 -270t-268 -93h-190v295h-100z"/>
<glyph glyph-name="Ntilde" horiz-adv-x="749" unicode="Ñ" d="M445 775q-35 0 -73 28t-56 28q-39 0 -52 -49l-66 16q10 56 40 84t71 29q35 0 73 -28t59 -28q36 0 47 49l64 -16q-9 -57 -38 -85t-69 -28zM565 -10l-338 499l-44 77h-3q8 -61 8 -87v-386l5 -93h-90v598l-6 103l88 5l337 -499q10 -14 21 -34t17 -33l7 -12l3 1q-8 52 -8 92 v377l-6 103l91 5v-706z"/>
<glyph glyph-name="Ograve" horiz-adv-x="751" unicode="Ò" d="M476 803l-40 -42l-187 154l67 69zM364 -10q-98 0 -168 50t-102 128q-32 77 -31 169q0 173 81 273t243 100q98 0 168 -50q69 -50 101 -128q32 -77 32 -169q0 -173 -81 -273t-243 -100zM384 60q102 0 152 78t50 200q0 46 -6 88t-23 81q-17 40 -41 69q-24 28 -62 46t-87 18 q-101 0 -151 -78t-51 -200q1 -46 7 -88t22 -81q16 -40 40 -69q24 -28 64 -46q38 -18 86 -18z"/>
<glyph glyph-name="Oacute" horiz-adv-x="751" unicode="Ó" d="M340 756l-40 42l160 181l67 -69zM364 -10q-98 0 -168 50t-102 128q-32 77 -31 169q0 173 81 273t243 100q98 0 168 -50q69 -50 101 -128q32 -77 32 -169q0 -173 -81 -273t-243 -100zM384 60q102 0 152 78t50 200q0 46 -6 88t-23 81q-17 40 -41 69q-24 28 -62 46t-87 18 q-101 0 -151 -78t-51 -200q1 -46 7 -88t22 -81q16 -40 40 -69q24 -28 64 -46q38 -18 86 -18z"/>
<glyph glyph-name="Ocircumflex" horiz-adv-x="751" unicode="Ô" d="M260 763l-46 51l152 126h20l151 -124l-46 -53l-115 78zM364 -10q-98 0 -168 50t-102 128q-32 77 -31 169q0 173 81 273t243 100q98 0 168 -50q69 -50 101 -128q32 -77 32 -169q0 -173 -81 -273t-243 -100zM384 60q102 0 152 78t50 200q0 46 -6 88t-23 81q-17 40 -41 69 q-24 28 -62 46t-87 18q-101 0 -151 -78t-51 -200q1 -46 7 -88t22 -81q16 -40 40 -69q24 -28 64 -46q38 -18 86 -18z"/>
<glyph glyph-name="Otilde" horiz-adv-x="751" unicode="Õ" d="M440 774q-35 0 -73 28t-56 28q-39 0 -52 -49l-66 16q9 57 39 85t72 28q35 0 73 -28t59 -28q36 0 47 49l64 -16q-9 -57 -38 -85t-69 -28zM364 -10q-98 0 -168 50t-102 128q-32 77 -31 169q0 173 81 273t243 100q98 0 168 -50q69 -50 101 -128q32 -77 32 -169 q0 -173 -81 -273t-243 -100zM384 60q102 0 152 78t50 200q0 46 -6 88t-23 81q-17 40 -41 69q-24 28 -62 46t-87 18q-101 0 -151 -78t-51 -200q1 -46 7 -88t22 -81q16 -40 40 -69q24 -28 64 -46q38 -18 86 -18z"/>
<glyph glyph-name="Odieresis" horiz-adv-x="751" unicode="Ö" d="M468 775q-26 0 -42 16t-17 41q0 26 18 41t46 15q27 0 43 -14t15 -40q0 -27 -17 -43t-46 -16zM268 775q-26 0 -42 16t-17 41q0 26 18 41t46 15q27 0 43 -14t15 -40q0 -27 -17 -43t-46 -16zM364 -10q-98 0 -168 50t-102 128q-32 77 -31 169q0 173 81 273t243 100 q98 0 168 -50q69 -50 101 -128q32 -77 32 -169q0 -173 -81 -273t-243 -100zM384 60q102 0 152 78t50 200q0 46 -6 88t-23 81q-17 40 -41 69q-24 28 -62 46t-87 18q-101 0 -151 -78t-51 -200q1 -46 7 -88t22 -81q16 -40 40 -69q24 -28 64 -46q38 -18 86 -18z"/>
<glyph glyph-name="multiply" horiz-adv-x="533" unicode="×" d="M124 88l-56 56l142 142l-142 142l57 57l141 -142l142 142l57 -57l-142 -142l142 -142l-56 -56l-143 142z"/>
<glyph glyph-name="Oslash" horiz-adv-x="751" unicode="Ø" d="M384 60q102 0 152 78t50 200q0 103 -32 175l-288 -417q47 -36 118 -36zM165 362q0 -136 53 -216l297 431q-56 63 -148 63q-101 0 -151 -78t-51 -200zM158 -62l-63 37l66 94q-98 98 -98 268q0 173 81 273t243 100q104 0 178 -58l54 78l63 -38l-65 -94q71 -95 71 -235 q0 -173 -81 -273t-243 -100q-81 0 -145 35z"/>
<glyph glyph-name="Ugrave" horiz-adv-x="735" unicode="Ù" d="M452 803l-40 -42l-187 154l67 69zM640 706v-455q0 -117 -72 -191t-208 -74q-126 0 -196 72t-69 194v346l-6 103l104 5v-455q0 -86 46 -138t136 -52q85 1 131 53t46 137v347l-6 103z"/>
<glyph glyph-name="Uacute" horiz-adv-x="735" unicode="Ú" d="M350 758l-40 42l160 181l67 -69zM640 706v-455q0 -117 -72 -191t-208 -74q-126 0 -196 72t-69 194v346l-6 103l104 5v-455q0 -86 46 -138t136 -52q85 1 131 53t46 137v347l-6 103z"/>
<glyph glyph-name="Ucircumflex" horiz-adv-x="735" unicode="Û" d="M257 762l-46 51l152 126h20l151 -124l-46 -53l-115 78zM640 706v-455q0 -117 -72 -191t-208 -74q-126 0 -196 72t-69 194v346l-6 103l104 5v-455q0 -86 46 -138t136 -52q85 1 131 53t46 137v347l-6 103z"/>
<glyph glyph-name="Udieresis" horiz-adv-x="735" unicode="Ü" d="M473 775q-27 0 -43 16t-16 41q0 26 18 41t46 15q26 0 42 -14t16 -40q0 -27 -17 -43t-46 -16zM273 775q-27 0 -43 16t-16 41q0 26 18 41t46 15q26 0 42 -14t16 -40q0 -27 -17 -43t-46 -16zM640 706v-455q0 -117 -72 -191t-208 -74q-126 0 -196 72t-69 194v346l-6 103 l104 5v-455q0 -86 46 -138t136 -52q85 1 131 53t46 137v347l-6 103z"/>
<glyph glyph-name="Yacute" horiz-adv-x="579" unicode="Ý" d="M274 770l-40 42l160 181l67 -69zM240 0v278l-186 330l-58 92l112 5l194 -354l119 230q17 33 31 63t18 43l4 13h97q-22 -64 -80 -158l-153 -263v-186l5 -93h-103z"/>
<glyph glyph-name="Thorn" horiz-adv-x="597" unicode="Þ" d="M279 527h-78v-336h102q69 0 111 48t42 119q0 73 -44 121t-133 48zM201 700v-104h92q127 0 195 -64t68 -173q0 -97 -72 -167t-181 -69h-102v-30l5 -93h-103v598l-6 102h104z"/>
<glyph glyph-name="germandbls" horiz-adv-x="660" unicode="ß" d="M471 -10q-35 0 -89 10t-73 11l8 82q21 -2 73 -13t78 -11q70 0 70 60q0 25 -23 43t-55 32t-66 30q-32 16 -55 49q-23 32 -23 77q0 31 14 57t32 44q20 17 40 35t34 41t13 50q1 44 -31 69t-91 25q-73 -1 -99 -33t-26 -98v-457l5 -93h-98v432h-66v68h67v47q0 101 55 157 t162 56q98 0 159 -47t61 -114q0 -40 -15 -72q-14 -33 -36 -53t-44 -38t-36 -36q-15 -18 -15 -37q0 -25 23 -43q24 -18 56 -33t64 -33t56 -47q23 -30 23 -71q0 -66 -42 -106t-110 -40z"/>
<glyph glyph-name="agrave" horiz-adv-x="538" unicode="à" d="M342 639l-40 -42l-187 154l67 69zM217 66q61 0 124 40q0 43 2 127q-76 -6 -112 -15q-49 -12 -69 -33t-20 -52q0 -29 20 -48t55 -19zM503 88v-69q-30 -29 -76 -29q-65 0 -81 62q-70 -62 -158 -62q-68 0 -104 38t-36 94q0 58 41 100t120 54q55 9 136 9v31q-1 62 -27 88 t-85 26q-39 0 -77 -8t-56 -16l-17 -8v75q65 37 178 37q177 0 177 -174v-6q0 -19 -2 -71t-2 -96v-71q0 -24 21 -24q9 0 21 5t20 10z"/>
<glyph glyph-name="aacute" horiz-adv-x="538" unicode="á" d="M215 590l-40 42l160 181l67 -69zM217 66q61 0 124 40q0 43 2 127q-76 -6 -112 -15q-49 -12 -69 -33t-20 -52q0 -29 20 -48t55 -19zM503 88v-69q-30 -29 -76 -29q-65 0 -81 62q-70 -62 -158 -62q-68 0 -104 38t-36 94q0 58 41 100t120 54q55 9 136 9v31q-1 62 -27 88 t-85 26q-39 0 -77 -8t-56 -16l-17 -8v75q65 37 178 37q177 0 177 -174v-6q0 -19 -2 -71t-2 -96v-71q0 -24 21 -24q9 0 21 5t20 10z"/>
<glyph glyph-name="acircumflex" horiz-adv-x="538" unicode="â" d="M142 609l-46 51l152 126h20l151 -124l-46 -53l-115 78zM217 66q61 0 124 40q0 43 2 127q-76 -6 -112 -15q-49 -12 -69 -33t-20 -52q0 -29 20 -48t55 -19zM503 88v-69q-30 -29 -76 -29q-65 0 -81 62q-70 -62 -158 -62q-68 0 -104 38t-36 94q0 58 41 100t120 54q55 9 136 9 v31q-1 62 -27 88t-85 26q-39 0 -77 -8t-56 -16l-17 -8v75q65 37 178 37q177 0 177 -174v-6q0 -19 -2 -71t-2 -96v-71q0 -24 21 -24q9 0 21 5t20 10z"/>
<glyph glyph-name="atilde" horiz-adv-x="538" unicode="ã" d="M337 611q-35 0 -73 28t-56 28q-39 0 -52 -49l-66 16q10 56 40 84t71 29q35 0 73 -28t59 -28q36 0 47 49l64 -16q-9 -57 -38 -85t-69 -28zM217 66q61 0 124 40q0 43 2 127q-76 -6 -112 -15q-49 -12 -69 -33t-20 -52q0 -29 20 -48t55 -19zM503 88v-69q-30 -29 -76 -29 q-65 0 -81 62q-70 -62 -158 -62q-68 0 -104 38t-36 94q0 58 41 100t120 54q55 9 136 9v31q-1 62 -27 88t-85 26q-39 0 -77 -8t-56 -16l-17 -8v75q65 37 178 37q177 0 177 -174v-6q0 -19 -2 -71t-2 -96v-71q0 -24 21 -24q9 0 21 5t20 10z"/>
<glyph glyph-name="adieresis" horiz-adv-x="538" unicode="ä" d="M356 610q-26 0 -42 16t-17 41q0 26 18 41t46 15q27 -1 43 -15t15 -39q0 -27 -17 -43t-46 -16zM156 610q-26 0 -42 16t-17 41q0 26 18 41t46 15q27 -1 43 -15t15 -39q0 -27 -17 -43t-46 -16zM217 66q61 0 124 40q0 43 2 127q-76 -6 -112 -15q-49 -12 -69 -33t-20 -52 q0 -29 20 -48t55 -19zM503 88v-69q-30 -29 -76 -29q-65 0 -81 62q-70 -62 -158 -62q-68 0 -104 38t-36 94q0 58 41 100t120 54q55 9 136 9v31q-1 62 -27 88t-85 26q-39 0 -77 -8t-56 -16l-17 -8v75q65 37 178 37q177 0 177 -174v-6q0 -19 -2 -71t-2 -96v-71q0 -24 21 -24 q9 0 21 5t20 10z"/>
<glyph glyph-name="aring" horiz-adv-x="538" unicode="å" d="M268 650q24 0 38 15t14 39t-14 39t-38 15t-38 -15t-15 -39q1 -24 15 -39t38 -15zM268 593q-54 0 -90 30t-35 81q-1 51 35 81t90 30t89 -30t35 -81t-35 -81t-89 -30zM217 66q61 0 124 40q0 43 2 127q-76 -6 -112 -15q-49 -12 -69 -33t-20 -52q0 -29 20 -48t55 -19zM503 88 v-69q-30 -29 -76 -29q-65 0 -81 62q-70 -62 -158 -62q-68 0 -104 38t-36 94q0 58 41 100t120 54q55 9 136 9v31q-1 62 -27 88t-85 26q-39 0 -77 -8t-56 -16l-17 -8v75q65 37 178 37q177 0 177 -174v-6q0 -19 -2 -71t-2 -96v-71q0 -24 21 -24q9 0 21 5t20 10z"/>
<glyph glyph-name="ae" horiz-adv-x="840" unicode="æ" d="M580 442q-56 0 -92 -36t-47 -95l249 4v7q0 50 -26 84q-28 36 -84 36zM217 70q76 0 147 50q-21 49 -21 112v1q-76 -6 -112 -15q-49 -12 -69 -33t-20 -52q0 -29 20 -46t55 -17zM584 510q114 0 166 -74q39 -56 39 -136q0 -25 -4 -53h-347q9 -177 178 -177q32 0 66 7t54 13 l19 7v-73q-64 -34 -169 -34q-134 0 -198 88q-96 -88 -200 -88q-68 0 -104 38t-36 94q0 58 41 100t120 54q55 9 136 9v31q-1 64 -29 89t-96 25q-35 0 -69 -7t-51 -13l-17 -7v75q65 32 160 32q127 0 170 -71q66 71 171 71z"/>
<glyph glyph-name="ccedilla" horiz-adv-x="486" unicode="ç" d="M285 -202q-68 0 -125 34l17 40q49 -21 88 -21q49 0 49 26q0 20 -30 27q-13 3 -24 3q-14 0 -26 -5l-21 25l29 67q-90 15 -138 79t-47 161q0 120 67 198t167 78q30 0 75 -10t67 -10l-8 -82q-24 2 -69 12t-68 11q-68 0 -102 -46t-34 -127q0 -84 40 -136t115 -52q33 0 65 7 t47 13l15 7v-74q-52 -33 -141 -33h-4l5 -36q46 -2 73 -22t27 -52q0 -34 -31 -58t-78 -24z"/>
<glyph glyph-name="egrave" horiz-adv-x="553" unicode="è" d="M378 627l-40 -42l-187 154l67 69zM293 442q-57 0 -93 -36t-46 -95l249 4v7q1 50 -25 84q-28 36 -85 36zM297 510q113 0 165 -74q39 -56 40 -136q0 -25 -4 -53h-347q9 -177 178 -177q31 0 65 7t54 13l20 7v-73q-64 -34 -169 -34q-115 0 -179 66t-64 176q0 130 67 204 t174 74z"/>
<glyph glyph-name="eacute" horiz-adv-x="553" unicode="é" d="M261 590l-40 42l160 181l67 -69zM293 442q-57 0 -93 -36t-46 -95l249 4v7q1 50 -25 84q-28 36 -85 36zM297 510q113 0 165 -74q39 -56 40 -136q0 -25 -4 -53h-347q9 -177 178 -177q31 0 65 7t54 13l20 7v-73q-64 -34 -169 -34q-115 0 -179 66t-64 176q0 130 67 204 t174 74z"/>
<glyph glyph-name="ecircumflex" horiz-adv-x="553" unicode="ê" d="M175 597l-46 51l152 126h20l151 -124l-46 -53l-115 78zM293 442q-57 0 -93 -36t-46 -95l249 4v7q1 50 -25 84q-28 36 -85 36zM297 510q113 0 165 -74q39 -56 40 -136q0 -25 -4 -53h-347q9 -177 178 -177q31 0 65 7t54 13l20 7v-73q-64 -34 -169 -34q-115 0 -179 66 t-64 176q0 130 67 204t174 74z"/>
<glyph glyph-name="edieresis" horiz-adv-x="553" unicode="ë" d="M393 610q-27 0 -43 16t-16 41q0 26 18 41t46 15q26 -1 42 -15t16 -39q0 -27 -17 -43t-46 -16zM193 610q-27 0 -43 16t-16 41q0 26 18 41t46 15q26 -1 42 -15t16 -39q0 -27 -17 -43t-46 -16zM293 442q-57 0 -93 -36t-46 -95l249 4v7q1 50 -25 84q-28 36 -85 36zM297 510 q113 0 165 -74q39 -56 40 -136q0 -25 -4 -53h-347q9 -177 178 -177q31 0 65 7t54 13l20 7v-73q-64 -34 -169 -34q-115 0 -179 66t-64 176q0 130 67 204t174 74z"/>
<glyph glyph-name="igrave" horiz-adv-x="269" unicode="ì" d="M188 632l-40 -42l-187 154l67 69zM88 0v397l-6 103l99 5v-412l5 -93h-98z"/>
<glyph glyph-name="iacute" horiz-adv-x="269" unicode="í" d="M110 590l-40 42l160 181l67 -69zM88 0v397l-6 103l99 5v-412l5 -93h-98z"/>
<glyph glyph-name="icircumflex" horiz-adv-x="269" unicode="î" d="M19 597l-46 51l152 126h20l151 -124l-46 -53l-115 78zM88 0v397l-6 103l99 5v-412l5 -93h-98z"/>
<glyph glyph-name="idieresis" horiz-adv-x="269" unicode="ï" d="M232 610q-26 0 -42 16t-17 41q0 26 18 41t46 15q27 -1 43 -15t15 -39q0 -27 -17 -43t-46 -16zM32 610q-26 0 -42 16t-17 41q0 26 18 41t46 15q27 -1 43 -15t15 -39q0 -27 -17 -43t-46 -16zM88 0v397l-6 103l99 5v-412l5 -93h-98z"/>
<glyph glyph-name="eth" horiz-adv-x="595" unicode="ð" d="M430 303q0 18 -2 50q-57 34 -126 34q-72 0 -110 -46t-38 -113q0 -71 36 -118t100 -47q68 -1 104 63t36 177zM186 510l-44 53l111 93q-60 27 -156 39l12 77q131 -18 213 -57l109 92l43 -52l-91 -77q146 -110 146 -371q0 -133 -64 -225t-180 -92q-107 0 -167 68t-61 172 q0 101 60 167t163 66q84 0 143 -50q-21 141 -107 207z"/>
<glyph glyph-name="ntilde" horiz-adv-x="583" unicode="ñ" d="M355 610q-35 0 -73 28t-56 28q-39 0 -52 -49l-66 16q10 57 40 85t71 28q35 0 73 -28t59 -28q36 0 47 49l64 -16q-9 -57 -38 -85t-69 -28zM500 342v-259l5 -83h-98v309q0 61 -25 91t-81 30q-58 0 -122 -34q2 -20 2 -95v-218l5 -83h-98v397l-6 103l92 5l3 -56q76 61 165 61 q158 0 158 -168z"/>
<glyph glyph-name="ograve" d="M375 632l-40 -42l-187 154l67 69zM286 -10q-107 0 -168 66t-61 172q0 132 68 207t187 75q107 0 168 -65t61 -172q0 -131 -68 -207t-187 -76zM291 441q-63 0 -101 -49t-38 -120q0 -104 40 -158t115 -54q61 0 100 50t39 119q0 105 -40 159t-115 53z" unicode="ò"/>
<glyph glyph-name="oacute" d="M275 588l-40 42l160 181l67 -69zM286 -10q-107 0 -168 66t-61 172q0 132 68 207t187 75q107 0 168 -65t61 -172q0 -131 -68 -207t-187 -76zM291 441q-63 0 -101 -49t-38 -120q0 -104 40 -158t115 -54q61 0 100 50t39 119q0 105 -40 159t-115 53z" unicode="ó"/>
<glyph glyph-name="ocircumflex" d="M184 597l-46 51l152 126h20l151 -124l-46 -53l-115 78zM286 -10q-107 0 -168 66t-61 172q0 132 68 207t187 75q107 0 168 -65t61 -172q0 -131 -68 -207t-187 -76zM291 441q-63 0 -101 -49t-38 -120q0 -104 40 -158t115 -54q61 0 100 50t39 119q0 105 -40 159t-115 53z " unicode="ô"/>
<glyph glyph-name="otilde" d="M363 611q-35 0 -73 28t-56 28q-39 0 -52 -49l-66 16q10 56 40 84t71 29q35 0 73 -28t59 -28q36 0 47 49l64 -16q-9 -57 -38 -85t-69 -28zM286 -10q-107 0 -168 66t-61 172q0 132 68 207t187 75q107 0 168 -65t61 -172q0 -131 -68 -207t-187 -76zM291 441q-63 0 -101 -49 t-38 -120q0 -104 40 -158t115 -54q61 0 100 50t39 119q0 105 -40 159t-115 53z" unicode="õ"/>
<glyph glyph-name="odieresis" d="M395 610q-27 0 -43 16t-16 41q0 26 18 41t46 15q26 -1 42 -15t16 -39q0 -27 -17 -43t-46 -16zM195 610q-27 0 -43 16t-16 41q0 26 18 41t46 15q26 -1 42 -15t16 -39q0 -27 -17 -43t-46 -16zM286 -10q-107 0 -168 66t-61 172q0 132 68 207t187 75q107 0 168 -65t61 -172 q0 -131 -68 -207t-187 -76zM291 441q-63 0 -101 -49t-38 -120q0 -104 40 -158t115 -54q61 0 100 50t39 119q0 105 -40 159t-115 53z" unicode="ö"/>
<glyph glyph-name="divide" horiz-adv-x="556" unicode="÷" d="M272 50q-29 0 -47 18t-18 45q-1 29 19 45t52 17q30 0 47 -16t17 -44q0 -29 -19 -47t-51 -18zM272 396q-29 0 -47 18t-18 45q-1 29 19 45t52 17q30 0 47 -16t17 -44q0 -29 -19 -47t-51 -18zM67 248v74h421v-74h-421z"/>
<glyph glyph-name="oslash" d="M446 229q0 80 -25 132l-195 -280q34 -21 81 -21q61 0 100 50t39 119zM291 441q-63 0 -101 -49t-38 -120q0 -87 27 -138l196 283q-35 24 -84 24zM118 -78l-63 37l65 94q-63 65 -63 175q0 132 68 207t187 75q62 0 110 -23l61 88l63 -38l-65 -93q60 -65 60 -171 q0 -131 -68 -207t-187 -76q-58 0 -106 21z" unicode="ø"/>
<glyph glyph-name="ugrave" horiz-adv-x="583" unicode="ù" d="M389 632l-40 -42l-187 154l67 69zM408 -4l-4 53q-74 -59 -166 -59q-155 0 -155 168v259l-5 83h98v-317q0 -113 101 -113q64 0 125 33v314l-5 83h98v-396l6 -103z"/>
<glyph glyph-name="uacute" horiz-adv-x="583" unicode="ú" d="M273 589l-40 42l160 181l67 -69zM408 -4l-4 53q-74 -59 -166 -59q-155 0 -155 168v259l-5 83h98v-317q0 -113 101 -113q64 0 125 33v314l-5 83h98v-396l6 -103z"/>
<glyph glyph-name="ucircumflex" horiz-adv-x="583" unicode="û" d="M181 597l-46 51l152 126h20l151 -124l-46 -53l-115 78zM408 -4l-4 53q-74 -59 -166 -59q-155 0 -155 168v259l-5 83h98v-317q0 -113 101 -113q64 0 125 33v314l-5 83h98v-396l6 -103z"/>
<glyph glyph-name="udieresis" horiz-adv-x="583" unicode="ü" d="M394 611q-26 0 -42 16t-17 41q0 26 18 41t46 15q27 0 43 -14t15 -40q0 -27 -17 -43t-46 -16zM194 611q-26 0 -42 16t-17 41q0 26 18 41t46 15q27 0 43 -14t15 -40q0 -27 -17 -43t-46 -16zM408 -4l-4 53q-74 -59 -166 -59q-155 0 -155 168v259l-5 83h98v-317 q0 -113 101 -113q64 0 125 33v314l-5 83h98v-396l6 -103z"/>
<glyph glyph-name="yacute" horiz-adv-x="496" unicode="ý" d="M237 590l-40 42l160 181l67 -69zM210 -254l-92 4q10 69 79 227l8 19l-145 401l-42 103l107 5l97 -294q9 -27 17 -59t12 -50l4 -18h4q13 65 38 136l34 99q41 118 48 181h88q-6 -68 -58 -202l-120 -307q-29 -73 -49 -135t-24 -86z"/>
<glyph glyph-name="thorn" horiz-adv-x="599" unicode="þ" d="M180 301v-202q47 -39 115 -39q72 0 111 52t39 135q0 87 -35 135t-105 48q-73 0 -127 -33q2 -16 2 -96zM87 -250v896l-6 103l95 5v-297q59 53 153 53q105 0 159 -67t54 -166q0 -133 -69 -210t-184 -77q-61 0 -109 29v-186l5 -83h-98z"/>
<glyph glyph-name="OE" horiz-adv-x="993" unicode="Œ" d="M398 61q55 0 108 10v553q-53 16 -126 16q-110 0 -163 -77t-53 -201q0 -58 12 -108t36 -96q26 -45 74 -71t112 -26zM392 710q49 0 124 -10h417l-5 -79l-324 9v-240l279 5l-5 -86l-274 8v-246l329 9l-5 -80h-412q-70 -10 -124 -10q-84 0 -148 29t-104 79q-38 50 -58 110 t-20 129q0 173 82 273t248 100z"/>
<glyph glyph-name="oe" horiz-adv-x="912" unicode="œ" d="M652 442q-56 0 -92 -36t-47 -95l249 4v7q0 50 -26 84q-28 36 -84 36zM306 60q78 0 122 80q-13 40 -13 92q0 60 15 108q-4 13 -12 26t-22 32q-16 19 -44 31t-62 12q-62 0 -100 -49t-39 -120q0 -104 40 -158t115 -54zM656 510q114 0 166 -74q39 -56 39 -136q0 -25 -4 -53 h-347q9 -177 178 -177q32 0 66 7t54 13l19 7v-73q-64 -34 -169 -34q-120 0 -186 72q-74 -72 -187 -72q-107 0 -168 66t-61 172q0 132 68 207t187 75q113 0 171 -74q66 74 174 74z"/>
<glyph glyph-name="Scaron" horiz-adv-x="555" unicode="Š" d="M417 957l46 -51l-155 -128h-14l-154 126l46 53l115 -78zM289 633q-61 -1 -95 -27t-33 -72q-1 -52 33 -82t107 -58q40 -16 64 -26q23 -10 53 -28t46 -37t26 -48q11 -29 11 -65q0 -94 -70 -147t-197 -53q-50 0 -92 6t-60 12l-17 7v77q73 -23 169 -23q78 0 124 28t46 83 q0 52 -40 82t-126 60q-82 28 -128 74t-46 125q0 86 64 139t173 53q41 0 101 -9t79 -11l-14 -80q-24 2 -81 11t-97 9z"/>
<glyph glyph-name="scaron" horiz-adv-x="449" unicode="š" d="M351 793l46 -51l-155 -128h-14l-154 126l46 53l115 -78zM217 -10q-35 0 -89 10t-73 11l8 82q19 -2 73 -13t86 -11q97 0 97 60q0 29 -27 47t-93 40q-137 45 -137 155q0 65 44 102t113 37q39 0 86 -10t69 -10l-8 -81q-30 2 -74 12t-76 10q-34 1 -54 -15t-20 -41 q0 -31 24 -47t96 -43q69 -25 103 -59t34 -90q-1 -68 -49 -107t-133 -39z"/>
<glyph glyph-name="Ydieresis" horiz-adv-x="579" unicode="Ÿ" d="M395 775q-27 0 -43 16t-16 41q0 26 18 41t46 15q26 0 42 -14t16 -40q0 -27 -17 -43t-46 -16zM195 775q-27 0 -43 16t-16 41q0 26 18 41t46 15q26 0 42 -14t16 -40q0 -27 -17 -43t-46 -16zM240 0v278l-186 330l-58 92l112 5l194 -354l119 230q17 33 31 63t18 43l4 13h97 q-22 -64 -80 -158l-153 -263v-186l5 -93h-103z"/>
<glyph glyph-name="circumflex" horiz-adv-x="384" unicode="ˆ" d="M76 538l-46 51l152 126h20l151 -124l-46 -53l-115 78z"/>
<glyph glyph-name="tilde" horiz-adv-x="424" unicode="˜" d="M285 531q-35 0 -73 28t-56 28q-39 0 -52 -49l-66 16q10 56 40 84t71 29q35 0 73 -28t59 -28q36 0 47 49l64 -16q-9 -57 -38 -85t-69 -28z"/>
<glyph glyph-name="afii10023" horiz-adv-x="590" unicode="Ё" d="M417 776q-27 0 -43 16t-16 41q0 26 18 41t46 15q26 -1 42 -15t16 -39q0 -27 -17 -43t-46 -16zM217 776q-27 0 -43 16t-16 41q0 26 18 41t46 15q26 -1 42 -15t16 -39q0 -27 -17 -43t-46 -16zM103 0v598l-6 102h433l-5 -79q-49 5 -97 6l-227 3v-240l279 5l-5 -86l-274 8 v-246l250 3l79 6l-5 -80h-422z"/>
<glyph glyph-name="afii10051" horiz-adv-x="764" unicode="Ђ" d="M245 0v629l-145 -4l-79 -5l3 80h542l-4 -81q-40 5 -80 6l-139 4v-197q64 18 138 18q107 0 175 -53t68 -162q0 -174 -192 -247l-37 68q69 32 100 72t31 109q0 65 -46 99t-114 34q-76 0 -123 -10v-267l5 -93h-103z"/>
<glyph glyph-name="afii10052" horiz-adv-x="517" unicode="Ѓ" d="M253 731l-40 42l160 181l67 -69zM103 0v598l-6 102h403l-5 -77q-33 4 -69 4l-225 2v-536l5 -93h-103z"/>
<glyph glyph-name="afii10053" horiz-adv-x="596" unicode="Є" d="M365 633q-79 -1 -133 -65t-64 -179l294 6v-83l-296 4q6 -112 66 -178t171 -66q28 0 63 5t56 11l21 5v-78q-61 -25 -163 -25q-142 0 -230 94t-88 245q0 176 82 280t237 104q28 1 57 -3t61 -10t49 -7l-14 -80q-1 0 -66 10t-103 10z"/>
<glyph glyph-name="afii10054" horiz-adv-x="555" unicode="Ѕ" d="M289 633q-61 -1 -95 -27t-33 -72q-1 -52 33 -82t107 -58q40 -16 64 -26q23 -10 53 -28t46 -37t26 -48q11 -29 11 -65q0 -94 -70 -147t-197 -53q-50 0 -92 6t-60 12l-17 7v77q73 -23 169 -23q78 0 124 28t46 83q0 52 -40 82t-126 60q-82 28 -128 74t-46 125q0 86 64 139 t173 53q41 0 101 -9t79 -11l-14 -80q-24 2 -81 11t-97 9z"/>
<glyph glyph-name="afii10055" horiz-adv-x="304" unicode="І" d="M103 0v598l-6 103l104 5v-613l5 -93h-103z"/>
<glyph glyph-name="afii10056" horiz-adv-x="304" unicode="Ї" d="M253 796q-27 0 -43 16t-16 41q0 26 18 41t46 15q26 -1 42 -15t16 -39q0 -27 -17 -43t-46 -16zM53 796q-27 0 -43 16t-16 41q0 26 18 41t46 15q26 -1 42 -15t16 -39q0 -27 -17 -43t-46 -16zM103 0v598l-6 103l104 5v-613l5 -93h-103z"/>
<glyph glyph-name="afii10057" horiz-adv-x="303" unicode="Ј" d="M103 90v508l-6 103l104 5v-615q0 -62 -18 -114q-12 -33 -32 -63t-56 -71q-36 -42 -44 -52l-60 49q11 16 38 48t41 55t23 50q10 37 10 97z"/>
<glyph glyph-name="afii10058" horiz-adv-x="976" unicode="Љ" d="M581 378v-303h103q72 1 112 39t41 103q1 73 -43 117t-134 44h-79zM192 700h389v-247h93q129 1 196 -57t67 -165q1 -99 -71 -165t-182 -66h-201v626h-207q-4 -70 -8 -114t-10 -103t-12 -95t-17 -83q-10 -47 -22 -75t-29 -58q-18 -30 -38 -50t-46 -34t-58 -21l-29 85 q29 6 53 24t41 41t30 66t21 83t16 112q8 70 13 132t11 164z"/>
<glyph glyph-name="afii10059" horiz-adv-x="1028" unicode="Њ" d="M633 378v-303h103q72 1 112 39t41 103q1 73 -43 117t-134 44h-79zM535 0v327h-334v-234l5 -93h-103v598l-6 103l104 5v-305h334v197l-6 103l104 5v-253h93q129 1 196 -57t67 -165q1 -99 -71 -165t-182 -66h-201z"/>
<glyph glyph-name="afii10060" horiz-adv-x="770" unicode="Ћ" d="M245 0v629l-145 -4l-79 -5l3 80h542l-4 -81q-40 5 -80 6l-139 4v-197q66 18 122 18q249 0 249 -231v-219h-98v209q0 161 -163 161q-25 0 -53 -2t-42 -4l-15 -3v-268l5 -93h-103z"/>
<glyph glyph-name="afii10061" horiz-adv-x="628" unicode="Ќ" d="M325 749l-40 42l160 181l67 -69zM103 0v598l-6 103l104 5v-311h70q102 132 142 190t72 115h102q-37 -66 -86 -134t-157 -201l220 -295q10 -14 26 -32t26 -28l9 -10l-119 -5l-243 327h-62v-229l5 -93h-103z"/>
<glyph glyph-name="afii10062" horiz-adv-x="576" unicode="Ў" d="M278 0h-99q31 76 77 166l-198 431l-53 103l106 3l152 -336l45 -113h3q15 51 39 109l72 178q18 43 30 83t16 58l4 18h90q-18 -85 -81 -225l-123 -279q-30 -69 -50 -118t-25 -64zM309 783q-112 0 -184 70l54 68q4 -4 16 -15t17 -15q6 -5 16 -13t18 -12t18 -8t21 -6t24 -2 q15 0 29 4t22 6q8 3 22 13t18 13t20 18t19 17l54 -68q-28 -27 -77 -49t-107 -21z"/>
<glyph glyph-name="afii10145" horiz-adv-x="756" unicode="Џ" d="M103 0v598l-6 103l104 5v-632h354v524l-6 103l104 5v-613l5 -93h-225v-120l5 -90l-90 -6l-8 216h-237z"/>
<glyph glyph-name="afii10017" horiz-adv-x="622" unicode="А" d="M300 600h-4q-11 -54 -27 -101l-85 -252h238l-91 251zM160 176l-8 -25q-30 -91 -39 -151h-87q9 64 49 177l188 520l89 6l216 -583q12 -32 24 -62t19 -43l6 -13l-103 -6l-66 180h-288z"/>
<glyph glyph-name="afii10018" horiz-adv-x="607" unicode="Б" d="M201 350v-278h84q83 0 127 38t44 102q0 138 -171 138h-84zM103 0v598l-6 102h413l-5 -80q-41 4 -93 5l-211 4v-206h92q127 1 195 -55t68 -145q0 -103 -72 -163t-191 -60h-190z"/>
<glyph glyph-name="afii10019" horiz-adv-x="615" unicode="В" d="M296 629h-97v-226h166q3 1 7 4t14 13t20 22q8 12 14 32t7 41q0 114 -131 114zM317 331h-118v-260h117q64 0 102 35t39 97q1 58 -37 93t-103 35zM103 0v598l-6 102h210q109 0 164 -48t55 -128q0 -52 -28 -94t-70 -61v-2q60 -16 94 -61t34 -101q0 -97 -66 -151t-182 -54 h-205z"/>
<glyph glyph-name="afii10020" horiz-adv-x="517" unicode="Г" d="M103 0v598l-6 102h403l-5 -77q-33 4 -69 4l-225 2v-536l5 -93h-103z"/>
<glyph glyph-name="afii10021" horiz-adv-x="726" unicode="Д" d="M273 628q-10 -202 -34 -332t-80 -224h339v556h-225zM19 -206l-10 278h50q31 38 53 94t36 104q12 49 22 135q10 87 12 137q3 50 9 158h405v-628h93v-182l5 -90l-85 -6l-8 206h-502v-110l5 -90z"/>
<glyph glyph-name="afii10022" horiz-adv-x="590" unicode="Е" d="M103 0v598l-6 102h433l-5 -79q-49 5 -97 6l-227 3v-240l279 5l-5 -86l-274 8v-246l250 3l79 6l-5 -80h-422z"/>
<glyph glyph-name="afii10024" horiz-adv-x="944" unicode="Ж" d="M424 0v328h-62l-238 -333l-117 5q34 35 63 75l211 290q-117 144 -161 207t-79 127l104 6q27 -49 37 -69t54 -81q44 -62 118 -158h70v201l-6 103l104 5v-309h73q74 91 118 153q45 62 59 88q14 27 32 67l100 -6q-30 -55 -45 -80t-65 -93t-129 -161l215 -295q12 -14 26 -32 t24 -28l9 -10l-117 -5l-238 333h-62v-235l5 -93h-103z"/>
<glyph glyph-name="afii10025" horiz-adv-x="520" unicode="З" d="M199 67q81 0 119 36t39 98q1 61 -35 95t-104 33h-70v73h77q59 0 89 31t31 83q0 54 -29 88t-92 34q-32 0 -91 -10t-67 -10l-13 75q16 1 50 7q35 6 65 10t61 3q108 0 162 -51t54 -137q0 -54 -29 -96t-84 -61v-3q58 -11 92 -56t33 -105q0 -94 -67 -154t-188 -60q-42 0 -82 6 t-60 12l-19 7v75q72 -23 158 -23z"/>
<glyph glyph-name="afii10026" horiz-adv-x="766" unicode="И" d="M103 0v598l-6 103l104 5v-478q0 -26 -2 -54t-4 -42l-2 -14l5 -1q22 52 50 97l322 487l93 5v-613l5 -93h-103v492q-1 23 1 46t4 34l2 12l-4 1q-14 -42 -45 -91l-327 -494h-93z"/>
<glyph glyph-name="afii10027" horiz-adv-x="766" unicode="Й" d="M103 0v598l-6 103l104 5v-478q0 -26 -2 -54t-4 -42l-2 -14l5 -1q21 53 50 97l322 487l93 5v-613l5 -93h-103v492q-1 23 1 46t4 34l2 12l-4 1q-13 -43 -45 -91l-327 -494h-93zM394 787q-111 0 -184 71l54 64q26 -23 40 -34q14 -12 39 -22t51 -10q36 0 64 16t66 50l54 -64 q-73 -71 -184 -71z"/>
<glyph glyph-name="afii10028" horiz-adv-x="628" unicode="К" d="M103 0v598l-6 103l104 5v-311h70q102 132 142 190t72 115h102q-37 -66 -86 -134t-157 -201l220 -295q10 -14 26 -32t26 -28l9 -10l-119 -5l-243 327h-62v-229l5 -93h-103z"/>
<glyph glyph-name="afii10029" horiz-adv-x="682" unicode="Л" d="M190 700h389v-607l5 -93h-103v626h-207q-4 -70 -8 -114t-10 -103t-12 -95t-17 -83q-10 -47 -22 -75t-29 -58q-18 -30 -38 -50t-46 -34t-58 -21l-29 85q29 6 53 24t41 41t30 66t21 83t16 112q8 70 13 132t11 164z"/>
<glyph glyph-name="afii10030" horiz-adv-x="906" unicode="М" d="M451 170h-14l-208 313q-11 17 -22 35t-16 28l-5 11l-3 -1q4 -41 4 -90v-383l5 -83h-89v587l-6 114l90 5l222 -335l40 -67h3q21 40 40 69l215 328l96 5v-613l5 -93h-101v488l5 86l-4 1q-20 -43 -45 -80z"/>
<glyph glyph-name="afii10031" horiz-adv-x="756" unicode="Н" d="M555 0v325h-354v-232l5 -93h-103v598l-6 103l104 5v-307h354v199l-6 103l104 5v-613l5 -93h-103z"/>
<glyph glyph-name="afii10032" horiz-adv-x="751" unicode="О" d="M364 -10q-98 0 -168 50t-102 128q-32 77 -31 169q0 173 81 273t243 100q98 0 168 -50q69 -50 101 -128q32 -77 32 -169q0 -173 -81 -273t-243 -100zM384 60q102 0 152 78t50 200q0 46 -6 88t-23 81q-17 40 -41 69q-24 28 -62 46t-87 18q-101 0 -151 -78t-51 -200 q1 -46 7 -88t22 -81q16 -40 40 -69q24 -28 64 -46q38 -18 86 -18z"/>
<glyph glyph-name="afii10033" horiz-adv-x="746" unicode="П" d="M103 0v597l-6 103h546v-607l5 -93h-103v626h-344v-533l5 -93h-103z"/>
<glyph glyph-name="afii10034" d="M279 628h-78v-308h102q71 0 112 42t41 110t-44 112t-133 44zM103 0v598l-6 102h196q127 0 195 -60t68 -167q0 -96 -71 -161t-182 -65h-102v-154l5 -93h-103z" unicode="Р"/>
<glyph glyph-name="afii10035" horiz-adv-x="594" unicode="С" d="M365 635q-89 1 -145 -77t-56 -194q0 -59 12 -110q12 -52 39 -94q26 -42 72 -66t108 -24q39 0 75 5t51 9l15 5l17 -70q-52 -29 -165 -29q-150 0 -238 94t-88 245q0 176 82 280t237 104q28 1 57 -3t61 -10t49 -7l-14 -78q-1 0 -66 10t-103 10z"/>
<glyph glyph-name="afii10036" horiz-adv-x="585" unicode="Т" d="M245 0v629l-145 -4l-79 -5l3 80h542l-4 -81q-40 5 -80 6l-139 4v-536l5 -93h-103z"/>
<glyph glyph-name="afii10037" horiz-adv-x="576" unicode="У" d="M278 0h-99q31 76 77 166l-198 431l-53 103l106 3l152 -336l45 -113h3q15 51 39 109l72 178q18 43 30 83t16 58l4 18h90q-18 -85 -81 -225l-123 -279q-30 -69 -50 -118t-25 -64z"/>
<glyph glyph-name="afii10038" horiz-adv-x="854" unicode="Ф" d="M146 366q0 -106 59 -162t166 -55h10v432h-10q-109 0 -167 -55t-58 -160zM362 649h19l-5 101l97 5v-106h19q84 0 146 -23t98 -63q36 -39 53 -89t17 -108q0 -55 -18 -104q-18 -48 -52 -90q-36 -42 -98 -66t-146 -25h-19l5 -101h-96l-1 101h-19q-84 1 -146 25t-98 66t-52 90 q-18 49 -18 104q0 58 17 108t53 89q36 40 98 63t146 23zM708 366q0 105 -58 160t-167 55h-10v-432h10q107 -1 166 55t59 162z"/>
<glyph glyph-name="afii10039" horiz-adv-x="632" unicode="Х" d="M492 -5l-187 295l-89 -138q-25 -40 -47 -78t-31 -56l-10 -18h-105q41 80 116 183l125 170l-160 241l-73 106l122 5l177 -287l92 146q24 37 42 71t26 49l7 16h102q-30 -69 -101 -168l-127 -177l171 -259l66 -96z"/>
<glyph glyph-name="afii10040" horiz-adv-x="783" unicode="Ц" d="M103 0v598l-6 103l104 5v-632h354v524l-6 103l104 5v-632h93v-184l5 -90l-85 -6l-8 206h-555z"/>
<glyph glyph-name="afii10041" horiz-adv-x="668" unicode="Ч" d="M467 0v278q-72 -23 -165 -23q-134 0 -192 69t-58 182v92l-6 103l104 5v-184q0 -193 166 -193q37 -1 75 3t57 8l19 3v255l-6 103l104 5v-613l5 -93h-103z"/>
<glyph glyph-name="afii10042" horiz-adv-x="1016" unicode="Ш" d="M103 0v598l-6 103l104 5v-632h258v524l-6 103l104 5v-632h258v524l-6 103l104 5v-613l5 -93h-815z"/>
<glyph glyph-name="afii10043" horiz-adv-x="1043" unicode="Щ" d="M103 0v598l-6 103l104 5v-632h258v524l-6 103l104 5v-632h258v524l-6 103l104 5v-632h93v-184l5 -90l-85 -6l-8 206h-815z"/>
<glyph glyph-name="afii10044" horiz-adv-x="691" unicode="Ъ" d="M297 378v-303h87q78 1 123 43t45 108q0 70 -45 111t-124 41h-86zM21 621l-1 79h277v-247h102q113 0 183 -62t70 -165q0 -102 -70 -164t-183 -62h-200v628l-106 -2z"/>
<glyph glyph-name="afii10045" horiz-adv-x="864" unicode="Ы" d="M201 378v-303h87q78 1 123 43t45 108q0 70 -45 111t-124 41h-86zM103 0v598l-6 102l104 5v-252h102q113 0 183 -62t70 -165q0 -102 -70 -164t-183 -62h-200zM663 0v598l-6 103l104 5v-613l5 -93h-103z"/>
<glyph glyph-name="afii10046" horiz-adv-x="595" unicode="Ь" d="M201 378v-303h87q78 1 123 43t45 108q0 70 -45 111t-124 41h-86zM103 0v598l-6 102l104 5v-252h102q113 0 183 -62t70 -165q0 -102 -70 -164t-183 -62h-200z"/>
<glyph glyph-name="afii10047" horiz-adv-x="603" unicode="Э" d="M232 65q92 0 142 66t59 184l-281 -8v88l282 -5q-5 113 -59 177t-150 64q-46 0 -88 -12t-61 -24l-20 -12v83q6 5 20 13q14 7 63 21t107 14q136 0 216 -94t79 -239q0 -81 -20 -151t-59 -126q-39 -54 -101 -86t-140 -32q-39 0 -73 6t-63 16q-29 9 -42 11l20 84q8 -1 66 -19 t103 -19z"/>
<glyph glyph-name="afii10048" horiz-adv-x="1008" unicode="Ю" d="M641 60q101 0 151 78t51 200q-1 46 -7 88t-22 81q-16 40 -40 69q-24 28 -64 46q-38 18 -86 18q-102 0 -152 -78t-50 -200q0 -46 6 -88t23 -81q17 -40 41 -69q24 -28 62 -46t87 -18zM621 -10q-73 0 -131 28t-94 74q-36 48 -55 107t-21 126h-119v-232l5 -93h-103v598 l-6 103l104 5v-307h122q13 145 93 228t228 83q98 0 168 -50t102 -128q32 -77 31 -169q0 -173 -81 -273t-243 -100z"/>
<glyph glyph-name="afii10049" horiz-adv-x="637" unicode="Я" d="M436 322v303h-87q-78 -1 -123 -43t-45 -108q0 -70 45 -111t124 -41h86zM534 700v-598l6 -102l-104 -5v252h-102q-23 0 -34 1l-155 -248h-112l177 271q-61 27 -95 80t-34 123q1 102 71 164t182 62h200z"/>
<glyph glyph-name="afii10065" horiz-adv-x="544" unicode="а" d="M217 66q61 0 124 40q0 43 2 127q-76 -6 -112 -15q-49 -12 -69 -33t-20 -52q0 -29 20 -48t55 -19zM503 88v-69q-30 -29 -76 -29q-65 0 -81 62q-70 -62 -158 -62q-68 0 -104 38t-36 94q0 58 41 100t120 54q55 9 136 9v31q-1 62 -27 88t-85 26q-39 0 -77 -8t-56 -16l-17 -8 v75q65 37 178 37q177 0 177 -174v-6q0 -19 -2 -71t-2 -96v-71q0 -24 21 -24q9 0 21 5t20 10z"/>
<glyph glyph-name="afii10066" horiz-adv-x="611" unicode="б" d="M139 390l5 -1q61 99 182 99q104 0 166 -64t62 -166q0 -126 -68 -197t-186 -71q-104 0 -166 75t-62 222q0 107 14 182t49 135t98 92q63 34 157 44q46 5 78 10t40 8l8 3l11 -86q-32 -14 -135 -24q-120 -13 -178 -75t-75 -186zM305 415q-61 0 -99 -46t-37 -112 q0 -97 39 -147t113 -50q61 0 99 46t37 111q0 98 -39 148t-113 50z"/>
<glyph glyph-name="afii10067" horiz-adv-x="530" unicode="в" d="M272 429h-92v-139h99q38 0 61 20t23 51q0 68 -91 68zM291 221h-111v-150h104q49 0 73 22t24 58q0 70 -90 70zM88 0v397l-6 103h196q84 0 130 -33t46 -90q0 -44 -25 -75t-66 -40v-3q50 -5 81 -33t31 -75q1 -75 -53 -113t-130 -38h-204z"/>
<glyph glyph-name="afii10068" horiz-adv-x="426" unicode="г" d="M88 0v397l-6 103h323l-4 -80q-40 5 -80 5h-140v-342l5 -83h-98z"/>
<glyph glyph-name="afii10069" horiz-adv-x="605" unicode="д" d="M236 427q-7 -278 -80 -355h241v355h-161zM158 500h332v-428h78v-151l5 -83l-85 -5l-7 167h-371v-79l5 -83l-85 -5l-10 239h43q49 44 69 140t26 288z"/>
<glyph glyph-name="afii10070" horiz-adv-x="553" unicode="е" d="M293 442q-57 0 -93 -36t-46 -95l249 4v7q1 50 -25 84q-28 36 -85 36zM297 510q113 0 165 -74q39 -56 40 -136q0 -25 -4 -53h-347q9 -177 178 -177q31 0 65 7t54 13l20 7v-73q-64 -34 -169 -34q-115 0 -179 66t-64 176q0 130 67 204t174 74z"/>
<glyph glyph-name="afii10072" horiz-adv-x="807" unicode="ж" d="M359 286v111l-6 103l95 5v-219h55l84 99q29 34 51 63t29 40l7 12h93q-24 -48 -111 -147l-83 -95l154 -183l65 -75l-110 -5l-183 226h-51v-128l5 -93h-94v221h-51l-183 -226l-108 5q45 50 65 75l149 179l-85 99q-38 44 -65 81t-35 52l-8 14h96q21 -38 86 -115l84 -99h55z "/>
<glyph glyph-name="afii10073" horiz-adv-x="465" unicode="з" d="M177 64q64 0 98 24t34 63q0 70 -92 70h-85v73h86q37 0 58 18t21 51q0 70 -94 70q-23 1 -46 -3t-51 -10t-40 -8l-16 77q14 2 44 8q30 5 57 9t59 4q82 0 134 -35t53 -100q-1 -41 -23 -73t-62 -42v-3q46 -7 72 -37t25 -72q-1 -70 -59 -114t-153 -44q-48 0 -87 8t-54 16 l-14 9v70q51 -29 135 -29z"/>
<glyph glyph-name="afii10074" horiz-adv-x="616" unicode="и" d="M88 0v397l-6 103l99 5v-309l-6 -95h4q17 41 46 84l210 315l93 5v-412l5 -93h-98v325q-1 19 1 38t4 28l1 9h-3q-14 -34 -38 -70l-219 -330h-93z"/>
<glyph glyph-name="afii10075" horiz-adv-x="616" unicode="й" d="M88 0v397l-6 103l99 5v-309l-6 -95h4q17 41 46 84l210 315l93 5v-412l5 -93h-98v325q-1 19 1 38t4 28l1 9h-3q-14 -34 -38 -70l-219 -330h-93zM309 599q-112 0 -184 70l54 68q1 -1 13 -11t13 -12q2 -2 12 -10t14 -11q3 -3 13 -9t16 -8t14 -4q10 -4 18 -5t17 -1 q25 0 51 12t38 23q12 10 41 36l54 -68q-72 -70 -184 -70z"/>
<glyph glyph-name="afii10076" horiz-adv-x="525" unicode="к" d="M88 0v397l-6 103l99 5v-218h51l73 98q25 37 45 65t26 39l6 11h96q-25 -50 -95 -138l-81 -102l145 -185l65 -75l-110 -5l-174 225h-47v-127l5 -93h-98z"/>
<glyph glyph-name="afii10077" horiz-adv-x="568" unicode="л" d="M387 0v427h-162q-8 -227 -44 -319t-137 -114l-27 80q49 13 75 54q26 40 37 126q12 86 15 246h336v-417l5 -83h-98z"/>
<glyph glyph-name="afii10078" horiz-adv-x="746" unicode="м" d="M86 0l3 397l-4 103l95 5l151 -245l40 -67h2l40 66l150 241l91 5l6 -412q0 -19 2 -43t4 -37l1 -13h-98l-6 296l3 92l-2 1q-20 -43 -43 -79l-151 -240h-15l-149 236q-10 16 -20 34t-15 29l-5 11l-2 -1q4 -44 4 -88l-1 -198l5 -93h-86z"/>
<glyph glyph-name="afii10079" horiz-adv-x="591" unicode="н" d="M410 0v217h-229v-124l5 -93h-98v397l-6 103l99 5v-214h229v106l-6 103l99 5v-412l5 -93h-98z"/>
<glyph glyph-name="afii10080" d="M286 -10q-107 0 -168 66t-61 172q0 132 68 207t187 75q107 0 168 -65t61 -172q0 -131 -68 -207t-187 -76zM291 441q-63 0 -101 -49t-38 -120q0 -104 40 -158t115 -54q61 0 100 50t39 119q0 105 -40 159t-115 53z" unicode="о"/>
<glyph glyph-name="afii10081" horiz-adv-x="593" unicode="п" d="M88 0v397l-6 103h423v-417l5 -83h-98v427h-231v-344l5 -83h-98z"/>
<glyph glyph-name="afii10082" horiz-adv-x="599" unicode="р" d="M181 301v-202q47 -39 115 -39q72 0 111 52t39 135q0 87 -35 135t-105 48q-73 0 -127 -33q2 -16 2 -96zM88 -250v647l-6 103l92 5l3 -48q59 53 153 53q104 0 158 -67t55 -166q0 -133 -69 -210t-184 -77q-61 0 -109 29v-186l5 -83h-98z"/>
<glyph glyph-name="afii10083" horiz-adv-x="484" unicode="с" d="M287 431q-68 0 -102 -46t-34 -127q1 -84 41 -136t114 -52q33 0 65 7t47 13l15 7v-74q-52 -33 -141 -33q-114 0 -175 67t-61 177q0 120 67 198t167 78q30 0 75 -10t67 -10l-8 -82q-24 2 -69 12t-68 11z"/>
<glyph glyph-name="afii10084" horiz-adv-x="472" unicode="т" d="M192 0v430l-95 -2l-73 -6l3 78h422l-4 -78q-26 5 -70 6l-90 2v-347l5 -83h-98z"/>
<glyph glyph-name="afii10085" horiz-adv-x="496" unicode="у" d="M210 -254l-92 4q10 69 79 227l8 19l-145 401l-42 103l107 5l97 -294q9 -27 17 -59t12 -50l4 -18h4q13 65 38 136l34 99q41 118 48 181h88q-6 -68 -58 -202l-120 -307q-29 -73 -49 -135t-24 -86z"/>
<glyph glyph-name="afii10086" horiz-adv-x="831" unicode="ф" d="M290 59q38 0 79 13v357q-24 15 -67 15q-74 0 -111 -52t-37 -138q0 -195 136 -195zM541 441q-38 0 -79 -13v-357q24 -15 67 -15q74 0 111 52t37 138q0 195 -136 195zM369 -250v267q-48 -27 -108 -27q-103 0 -153 68t-51 172q0 128 66 204t168 76q23 0 43 -4t27 -10l8 -4 v155l-6 103l99 5v-272q54 27 108 27q104 0 154 -68t50 -172q0 -128 -66 -204t-168 -76q-22 0 -42 4t-28 10l-8 4v-175l5 -83h-98z"/>
<glyph glyph-name="afii10087" horiz-adv-x="536" unicode="х" d="M385 334l-62 -81l131 -177l59 -76l-116 -5l-140 198l-57 -78q-28 -39 -48 -67t-24 -38l-6 -10h-96q26 48 108 151l78 98l-114 168q-14 21 -30 41t-24 32l-9 10l116 5l129 -197l49 72q23 34 41 64t24 43l6 13h96q-44 -78 -111 -166z"/>
<glyph glyph-name="afii10088" horiz-adv-x="620" unicode="ц" d="M503 -167l-7 167h-408v397l-6 103l99 5v-433h231v325l-6 103l99 5v-433h78v-151l5 -83z"/>
<glyph glyph-name="afii10089" horiz-adv-x="535" unicode="ч" d="M354 0v192q-51 -31 -138 -31q-74 0 -118 38t-44 119v79l-6 103l99 5v-168q0 -54 23 -77t76 -23q28 0 55 4t40 8l13 4v144l-6 103l99 5v-412l5 -93h-98z"/>
<glyph glyph-name="afii10090" horiz-adv-x="853" unicode="ш" d="M88 0v397l-6 103l99 5v-432h199v324l-6 103l99 5v-432h199v324l-6 103l99 5v-422l5 -83h-682z"/>
<glyph glyph-name="afii10091" horiz-adv-x="880" unicode="щ" d="M88 0v397l-6 103l99 5v-433h199v325l-6 103l99 5v-433h199v325l-6 103l99 5v-433h78v-151l5 -83l-85 -5l-7 167h-668z"/>
<glyph glyph-name="afii10092" horiz-adv-x="602" unicode="ъ" d="M346 267h-80v-199h89q48 0 77 28t29 77q-1 46 -31 70t-84 24zM173 0v429l-73 -2l-74 -5l2 78h238v-165h85q211 0 211 -161q0 -84 -57 -129t-154 -45h-178z"/>
<glyph glyph-name="afii10093" horiz-adv-x="737" unicode="ы" d="M260 267h-79v-199h79q56 0 86 26t29 74q0 99 -115 99zM88 0v397l-6 103l99 5v-170h97q92 1 146 -39t53 -122q0 -82 -55 -128t-144 -46h-190zM556 0v397l-6 103l99 5v-412l5 -93h-98z"/>
<glyph glyph-name="afii10094" horiz-adv-x="517" unicode="ь" d="M261 267h-80v-199h80q55 0 85 26t30 74q0 99 -115 99zM88 0v397l-6 103l99 5v-170h97q92 1 146 -39t53 -122q0 -82 -55 -128t-144 -46h-190z"/>
<glyph glyph-name="afii10095" horiz-adv-x="490" unicode="э" d="M193 431q-29 0 -75 -10t-58 -12l-16 80q14 2 44 8q30 5 56 9t55 4q103 0 169 -64t66 -183q0 -125 -67 -199t-185 -74q-34 0 -67 7t-49 14l-16 7v75q49 -23 128 -23q70 0 112 38t48 109l-212 -9v83l212 -7q-7 65 -45 106t-100 41z"/>
<glyph glyph-name="afii10096" horiz-adv-x="822" unicode="ю" d="M521 441q-61 0 -97 -49t-37 -120q0 -212 150 -212q61 0 97 49t37 120q0 212 -150 212zM516 -14q-103 0 -162 64t-62 167h-111v-124l5 -93h-98v397l-6 103l99 5v-214h115q15 105 79 165t167 59q106 0 165 -67t59 -175q0 -135 -66 -211t-184 -76z"/>
<glyph glyph-name="afii10097" horiz-adv-x="540" unicode="я" d="M162 340q0 -44 30 -71t83 -27h84v185h-91q-46 -1 -76 -23t-30 -64zM359 173h-108l-98 -173h-109l120 193q-45 16 -73 51t-28 87q0 79 57 124t152 45h180v-407l5 -93h-98v173z"/>
<glyph glyph-name="afii10071" horiz-adv-x="553" unicode="ё" d="M293 442q-57 0 -93 -36t-46 -95l249 4v7q1 50 -25 84q-28 36 -85 36zM297 510q113 0 165 -74q39 -56 40 -136q0 -25 -4 -53h-347q9 -177 178 -177q31 0 65 7t54 13l20 7v-73q-64 -34 -169 -34q-115 0 -179 66t-64 176q0 130 67 204t174 74zM394 610q-26 0 -42 16t-17 41 q0 26 18 41t46 15q27 -1 43 -15t15 -39q0 -27 -17 -43t-46 -16zM194 610q-26 0 -42 16t-17 41q0 26 18 41t46 15q27 -1 43 -15t15 -39q0 -27 -17 -43t-46 -16z"/>
<glyph glyph-name="afii10099" horiz-adv-x="594" unicode="ђ" d="M-8 540v73h95v34l-6 103l99 5l-1 -142h194v-73h-195v-114q70 24 155 24t135 -49t51 -156v-157q0 -58 -17 -107q-12 -34 -34 -66q-22 -33 -56 -67t-40 -43l-59 55q11 16 35 44t40 50q16 23 23 50q10 33 10 84v149q0 133 -132 133q-41 0 -110 -11q1 -17 1 -58v-218l5 -83 h-98v540h-95z"/>
<glyph glyph-name="afii10100" horiz-adv-x="426" unicode="ѓ" d="M229 590l-40 42l160 181l67 -69zM88 0v397l-6 103h323l-4 -80q-40 5 -80 5h-140v-342l5 -83h-98z"/>
<glyph glyph-name="afii10101" horiz-adv-x="487" unicode="є" d="M292 428q-67 0 -102 -39t-39 -107l216 9v-83l-213 9q11 -67 51 -107t106 -40q31 0 63 7t48 13l16 7v-74q-54 -33 -151 -33q-111 0 -171 66t-60 172q0 130 67 206t172 76q25 0 49 -4t52 -9q28 -6 45 -8l-16 -80q-7 1 -39 7t-53 10q-21 2 -41 2z"/>
<glyph glyph-name="afii10102" horiz-adv-x="449" unicode="ѕ" d="M217 -10q-35 0 -89 10t-73 11l8 82q19 -2 73 -13t86 -11q97 0 97 60q0 29 -27 47t-93 40q-137 45 -137 155q0 65 44 102t113 37q39 0 86 -10t69 -10l-8 -81q-30 2 -74 12t-76 10q-34 1 -54 -15t-20 -41q0 -31 24 -47t96 -43q69 -25 103 -59t34 -90q-1 -68 -49 -107 t-133 -39z"/>
<glyph glyph-name="afii10103" horiz-adv-x="269" unicode="і" d="M88 0v397l-6 103l99 5v-412l5 -93h-98zM132 610q-26 0 -42 16t-17 41q0 26 18 41t46 15q27 -1 43 -15t15 -39q0 -27 -17 -43t-46 -16z"/>
<glyph glyph-name="afii10104" horiz-adv-x="269" unicode="ї" d="M203 630q-24 0 -40 15t-16 39t17 38t44 15q25 0 40 -14t15 -37q-1 -26 -17 -41t-43 -15zM51 630q-24 0 -40 15t-16 39t17 38t44 15q25 0 40 -14t15 -37q-1 -26 -17 -41t-43 -15zM88 0v397l-6 103l99 5v-412l5 -93h-98z"/>
<glyph glyph-name="afii10105" horiz-adv-x="268" unicode="ј" d="M132 610q-26 0 -42 16t-17 41q0 26 18 41t46 15q27 -1 43 -15t15 -39q0 -27 -17 -43t-46 -16zM181 505v-479q0 -69 -21 -119q-21 -49 -121 -164l-51 44q6 9 22 27t22 26t16 22t15 25q6 12 11 27q14 42 14 112v371l-6 103z"/>
<glyph glyph-name="afii10106" horiz-adv-x="806" unicode="љ" d="M550 267h-70v-197h79q49 0 77 28t29 75q0 44 -31 69t-84 25zM387 427h-162q-8 -227 -44 -319t-137 -114l-27 80q49 13 75 54q26 40 37 126q12 86 15 246h336v-163h87q91 1 145 -39t54 -117q0 -85 -60 -133t-146 -48h-173v427z"/>
<glyph glyph-name="afii10107" horiz-adv-x="843" unicode="њ" d="M588 267h-70v-197h79q49 0 77 28t29 75q0 44 -31 69t-84 25zM425 0v217h-244v-124l5 -93h-98v397l-6 103l99 5v-214h244v106l-6 103l99 5v-168h87q91 1 145 -39t54 -117q0 -85 -60 -133t-146 -48h-173z"/>
<glyph glyph-name="afii10108" horiz-adv-x="594" unicode="ћ" d="M-8 540v73h95v34l-6 103l99 5l-1 -142h194v-73h-195v-114q70 24 155 24t135 -49t51 -156v-162l5 -83h-103v237q0 133 -132 133q-41 0 -110 -11q1 -17 1 -58v-218l5 -83h-98v540h-95z"/>
<glyph glyph-name="afii10109" horiz-adv-x="525" unicode="ќ" d="M254 592l-40 42l160 181l67 -69zM88 0v397l-6 103l99 5v-218h51l73 98q25 37 45 65t26 39l6 11h96q-25 -50 -95 -138l-81 -102l145 -185l65 -75l-110 -5l-174 225h-47v-127l5 -93h-98z"/>
<glyph glyph-name="afii10110" horiz-adv-x="496" unicode="ў" d="M210 -254l-92 4q10 69 79 227l8 19l-145 401l-42 103l107 5l97 -294q9 -27 17 -59t12 -50l4 -18h4q13 65 38 136l34 99q41 118 48 181h88q-6 -68 -58 -202l-120 -307q-29 -73 -49 -135t-24 -86zM250 610q-106 0 -184 75l54 68q26 -23 40 -34t39 -21t51 -11q36 1 64 17 t66 49l54 -68q-78 -75 -184 -75z"/>
<glyph glyph-name="afii10193" horiz-adv-x="593" unicode="џ" d="M260 -167l-7 167h-165v397l-6 103l99 5v-432h231v324l-6 103l99 5v-422l5 -83h-167v-79l5 -83z"/>
<glyph glyph-name="afii10050" horiz-adv-x="518" unicode="Ґ" d="M431 843h69l-5 -225l-294 9v-534l5 -93h-103v598l-6 102h319z"/>
<glyph glyph-name="afii10098" horiz-adv-x="426" unicode="ґ" d="M332 634h79l-10 -217l-220 5v-339l5 -83h-98v397l-6 103h240l5 40z"/>
<glyph glyph-name="thinspace" horiz-adv-x="40" unicode=" "/>
<glyph glyph-name="endash" horiz-adv-x="662" unicode="–" d="M75 259v74h511v-74h-511z"/>
<glyph glyph-name="emdash" horiz-adv-x="846" unicode="—" d="M77 262v74h691v-74h-691z"/>
<glyph glyph-name="quoteleft" horiz-adv-x="247" unicode="‘" d="M152 724l40 -33q-64 -58 -69 -142h3q26 0 44 -15q20 -16 20 -46t-18 -46t-48 -16q-69 0 -69 79q0 63 25 121t72 98z"/>
<glyph glyph-name="quotesinglbase" horiz-adv-x="262" unicode="‚" d="M101 -188l-40 33q64 58 69 142h-3q-27 0 -45 15q-20 16 -19 46t19 46t47 16q69 0 69 -79q0 -63 -25 -121t-72 -98z"/>
<glyph glyph-name="quotedblleft" horiz-adv-x="451" unicode="“" d="M356 724l40 -33q-64 -58 -69 -142h3q26 0 44 -15q20 -16 20 -46t-18 -46t-48 -16q-69 0 -69 79q0 63 25 121t72 98zM152 724l40 -33q-64 -58 -69 -142h3q26 0 44 -15q20 -16 20 -46t-18 -46t-48 -16q-69 0 -69 79q0 63 25 121t72 98z"/>
<glyph glyph-name="quotedblright" horiz-adv-x="448" unicode="”" d="M98 416l-40 33q64 58 69 142h-3q-26 0 -44 15q-20 16 -20 46t18 46t48 16q69 0 69 -79q0 -63 -25 -121t-72 -98zM302 416l-40 33q64 58 69 142h-3q-26 0 -44 15q-20 16 -20 46t18 46t48 16q69 0 69 -79q0 -63 -25 -121t-72 -98z"/>
<glyph glyph-name="dagger" horiz-adv-x="556" unicode="†" d="M39 500l199 -5l-9 220h98l-9 -220l199 5v-74l-199 5l9 -634l-48 -47l-50 47l9 634l-199 -5v74z"/>
<glyph glyph-name="daggerdbl" horiz-adv-x="594" unicode="‡" d="M536 -35l-198 5l5 -220h-92l5 220l-198 -5v74l198 -5l-10 191l10 206l-198 -5v74l198 -5l-5 220h92l-5 -220l198 5v-74l-198 5l10 -206l-10 -191l198 5v-74z"/>
<glyph glyph-name="ellipsis" horiz-adv-x="771" unicode="…" d="M637 -15q-29 -1 -47 17t-18 46q0 30 20 46t51 16q30 0 47 -16t17 -44q0 -30 -19 -48t-51 -17zM382 -15q-29 -1 -47 17t-18 46q-1 30 19 46t52 16q30 0 47 -16t17 -44q0 -30 -19 -48t-51 -17zM128 -15q-29 -1 -47 17t-18 46q-1 30 19 46t52 16q30 0 47 -16t17 -44 q0 -30 -19 -48t-51 -17z"/>
<glyph glyph-name="perthousand" horiz-adv-x="1355" unicode="‰" d="M1116 -10q-82 0 -130 53t-48 123q0 91 50 144t146 53q82 0 130 -53t48 -123q0 -91 -50 -144t-146 -53zM1128 53q42 1 66 33t25 78q0 56 -25 96t-74 40q-42 0 -66 -32t-24 -79q0 -59 24 -97t74 -39zM705 -10q-82 0 -130 53t-48 123q0 91 50 144t146 53q82 0 130 -53 t48 -123q0 -91 -50 -144t-146 -53zM717 53q43 1 67 33t24 78q0 56 -25 96t-74 40q-42 0 -66 -32t-24 -79q-1 -59 23 -97t75 -39zM223 341q-82 0 -130 53t-48 123q0 91 50 144t146 53q82 0 130 -53t48 -123q0 -91 -50 -144t-146 -53zM235 404q43 0 67 32t24 79q0 57 -25 97 t-74 39q-42 0 -66 -32t-24 -79q-1 -60 23 -98t75 -38zM283 0h-98l478 700h97z"/>
<glyph glyph-name="guilsinglleft" horiz-adv-x="354" unicode="‹" d="M29 269l228 240l52 -50l-199 -205l196 -201l-49 -53l-228 240v29z"/>
<glyph glyph-name="guilsinglright" horiz-adv-x="354" unicode="›" d="M97 509l228 -240v-29l-228 -240l-49 53l196 201l-199 205z"/>
<glyph glyph-name="fraction" horiz-adv-x="481" unicode="⁄" d="M85 0h-83l396 701h82z"/>
<glyph glyph-name="Euro" horiz-adv-x="652" unicode="€" d="M432 635q-54 1 -100 -45t-66 -120h271l-13 -74h-272q-1 -11 -1 -32q0 -36 4 -64h252l-12 -74h-224q23 -72 71 -114t120 -42q33 0 65 5t47 11l16 5v-76q-48 -25 -135 -25q-111 0 -189 64t-105 172h-107v74h96q-1 9 -1 29q0 34 3 67h-98v74h112q30 113 104 178t178 65 q36 1 86 -9t61 -11l-14 -78q-10 1 -61 11t-88 9z"/>
<glyph glyph-name="trademark" horiz-adv-x="825" unicode="™" d="M546 418h-10l-77 106l-36 60l-2 -1q2 -32 2 -70v-66l4 -64h-68v230l-6 88l70 4l96 -140l27 -45h2q13 23 28 45l88 136l75 4v-250l4 -72h-79v147l4 67l-3 1q-12 -24 -37 -59zM151 382v263l-105 -6l-4 62h289l-3 -62l-101 6v-190l3 -73h-79z"/>
<glyph glyph-name="arrowright" horiz-adv-x="788" unicode="→" d="M607 280l-4 3q-39 35 -74 83t-50 82l64 34q49 -90 143 -176l50 -46v-29l-50 -46q-94 -86 -143 -176l-64 34q15 33 49 81t73 82h-529v74h535z"/>
<glyph glyph-name="minus" horiz-adv-x="537" unicode="−" d="M83 248v74h371v-74h-371z"/>
<glyph glyph-name="radical" horiz-adv-x="649" unicode="√" d="M643 750l-258 -750l-92 -5l-157 434h-106v71h175l106 -299q9 -27 17 -57t11 -46l3 -16h4q12 56 32 117l180 551h85z"/>
<glyph glyph-name="infinity" horiz-adv-x="744" unicode="∞" d="M216 359q-32 -1 -52 -21t-20 -51q0 -32 20 -52t52 -20q24 0 48 12t38 25t32 35q-20 23 -32 35t-36 24t-50 13zM527 359q-26 -1 -50 -13q-25 -12 -37 -24t-31 -35q19 -22 33 -35t36 -25q24 -12 49 -12q33 0 53 20t19 52q0 31 -20 51t-52 21zM217 430q88 0 154 -92 q65 92 155 92q64 0 107 -38t43 -106t-43 -105t-107 -37q-86 0 -155 92q-65 -92 -154 -92q-64 0 -107 37t-43 105t43 106t107 38z"/>
<glyph glyph-name="approxequal" horiz-adv-x="644" unicode="≈" d="M220 179q-30 1 -52 -15t-30 -32l-8 -16l-53 53q1 4 4 10q3 5 15 21t27 28t41 22t57 10q34 0 63 -10q28 -10 46 -22t44 -23q26 -10 51 -10q29 -1 51 15t31 32l8 16l53 -53q-1 -4 -4 -10q-3 -5 -15 -21t-27 -28t-41 -22t-57 -10q-53 0 -110 32t-94 33zM220 361 q-30 1 -52 -15t-30 -32l-8 -16l-53 53q1 4 4 10q3 5 15 21t27 28t41 22t57 10q34 0 63 -10q28 -10 46 -22t44 -23q26 -10 51 -10q29 -1 51 15t31 32l8 16l53 -53q-1 -4 -4 -10q-3 -5 -15 -21t-27 -28t-41 -22t-57 -10q-53 0 -110 32t-94 33z"/>
<glyph glyph-name="notequal" horiz-adv-x="550" unicode="≠" d="M69 342v74h254l99 150l58 -40l-73 -110h73v-74h-122l-76 -116h198v-74h-247l-106 -161l-58 39l80 122h-80v74h129l76 116h-205z"/>
<glyph glyph-name="lessequal" horiz-adv-x="499" unicode="≤" d="M70 324l348 185v-87l-207 -104l207 -92v-86l-348 165v19zM70 60v74h348v-74h-348z"/>
<glyph glyph-name="greaterequal" horiz-adv-x="500" unicode="≥" d="M82 509l348 -185v-19l-348 -165v86l207 92l-207 104v87zM430 134v-74h-348v74h348z"/>
<glyph glyph-name="lozenge" horiz-adv-x="622" unicode="◊" d="M502 336l-198 245l-186 -229l199 -251zM20 338v11l285 351h12l285 -353v-11l-285 -351h-12z"/>
</font>
</defs>
</svg>
